/* XPM */
static char *bt____xnr_ngt_ssqobzvq_hbav__lp________out[] = {
/* columns rows colors chars-per-pixel */
"40 40 150 2",
"   c #121F2F",
".  c #152736",
"X  c #172C3D",
"o  c #1A2D3F",
"O  c #172C41",
"+  c #1B2D41",
"@  c #1B3345",
"#  c #1D354C",
"$  c #1E394D",
"%  c #1F3B53",
"&  c #203749",
"*  c #22394E",
"=  c #223D53",
"-  c #213E59",
";  c #2D4756",
":  c #25425B",
">  c #2B4458",
",  c #2C4B5F",
"<  c #344E5F",
"1  c #264861",
"2  c #294A64",
"3  c #274A6D",
"4  c #2A4C6C",
"5  c #2D506E",
"6  c #274D72",
"7  c #294D73",
"8  c #2B5176",
"9  c #2D547C",
"0  c #2F5A7B",
"q  c #325474",
"w  c #355875",
"e  c #31567B",
"r  c #335A7C",
"t  c #485D6E",
"y  c #456179",
"u  c #2E5781",
"i  c #2F5983",
"p  c #315B85",
"a  c #385F80",
"s  c #325E8A",
"d  c #345F91",
"f  c #376386",
"g  c #386487",
"h  c #34628D",
"j  c #356493",
"k  c #396693",
"l  c #366A95",
"z  c #3B6A93",
"x  c #376798",
"c  c #39679A",
"v  c #376A99",
"b  c #3A6B9C",
"n  c #3E719C",
"m  c #3C6EA2",
"M  c #3E6FA9",
"N  c #3D71A4",
"B  c #3F75AA",
"V  c #3F79AC",
"C  c #4D6E8D",
"Z  c #546F82",
"A  c #5D798F",
"S  c #497290",
"D  c #42719B",
"F  c #577B95",
"G  c #5D7A91",
"H  c #507C9F",
"J  c #60768D",
"K  c #607B90",
"L  c #607E98",
"P  c #416CA1",
"I  c #4174A5",
"U  c #437AA3",
"Y  c #4175AA",
"T  c #437AAC",
"R  c #497EAE",
"E  c #4377B0",
"W  c #447CB3",
"Q  c #4A7FB1",
"!  c #457EB8",
"~  c #64829C",
"^  c #65889E",
"/  c #4D82AB",
"(  c #5D83A3",
")  c #4581B5",
"_  c #4A83B5",
"`  c #4682BA",
"'  c #4985BC",
"]  c #4C89BD",
"[  c #528DBD",
"{  c #5890BF",
"}  c #6689A7",
"|  c #6B8FA9",
" . c #6B94B3",
".. c #7098BB",
"X. c #4A87C1",
"o. c #4D8BC3",
"O. c #4E8FCA",
"+. c #518EC4",
"@. c #518FC9",
"#. c #4E90C4",
"$. c #4F90C9",
"%. c #5291C5",
"&. c #5C95C2",
"*. c #5394CB",
"=. c #5896CA",
"-. c #5599CE",
";. c #5A99CE",
":. c #5496D1",
">. c #569AD4",
",. c #5A9DD4",
"<. c #579DD9",
"1. c #599ED9",
"2. c #6499C1",
"3. c #5DA1D6",
"4. c #5CA3DC",
"5. c #5FA8DF",
"6. c #77A2C2",
"7. c #72A3CB",
"8. c #62A1D5",
"9. c #6AA4D4",
"0. c #63A5DC",
"q. c #66A9DE",
"w. c #69ABDE",
"e. c #7BADD0",
"r. c #75AFDD",
"t. c #7CB0D7",
"y. c #7DB3DD",
"u. c #5EA6E1",
"i. c #61A7E2",
"p. c #64AAE3",
"a. c #6AAEE4",
"s. c #67ADE8",
"d. c #6CB1E6",
"f. c #6CB2E9",
"g. c #72B3E6",
"h. c #78B5E4",
"j. c #7EB8E0",
"k. c #73B5EA",
"l. c #78B7EC",
"z. c #76B9ED",
"x. c #7DBCED",
"c. c #7EBCF0",
"v. c #83B7DF",
"b. c #82BDE7",
"n. c #82BFEE",
"m. c #8CBFEA",
"M. c #86C1EE",
"N. c #89C2ED",
"B. c #83C1F1",
"V. c #8AC4F2",
/* pixels */
"s h z n N I Q _ _ ] [ [ %.[ %.%.%.%.=.=.=.=.=.-.=.-.%.&.+.[ [ o.] _ T U N z k h ",
"h z n T / _ ] +.%.=.=.-.;.3.3.;.8.3.3.3.8.0.3.3.8.3.3.3.>.;.=.=.%.+.[ _ R Y P k ",
"b D T _ [ %.%.>.3.8.8.0.5.q.q.q.w.w.q.a.w.w.w.p.q.p.q.q.0.0.8.8.3.;.=.%.[ _ U b ",
"I T ] [ =.;.,.0.q.w.w.w.w.g.g.g.g.k.g.g.z.g.z.k.g.g.g.g.g.a.a.a.0.0.4.2.%._ Q U ",
"T _ +.;.,.0.q.a.f.f.f.g.k.z.x.z.x.x.x.n.x.M.M.x.x.x.x.z.h.z.k.g.d.a.q.8.2.%.' / ",
"_ [ =.,.0.w.a.g.k.z.z.x.x.x.M.n.M.b. .G A } y.M.B.B.M.x.x.x.l.z.g.g.a.0.5.=.[ _ ",
"] %.;.0.i.a.d.k.z.z.z.n.M.n.M.M.y.~ ^ v.m.| G t.N.V.B.B.n.n.x.z.z.f.d.a.0.>.&.] ",
"] &.,.0.p.s.f.k.z.z.z.z.n.n.N.e.J  .N.V.V.V.6.K ..N.B.B.B.x.c.z.z.g.d.p.0.3.%.%.",
"+.=.,.0.p.f.f.f.k.k.z.z.x.z.( y 7.N.B.M.V.B.N.t.K F y.c.c.x.z.z.k.f.s.p.p.3.=.] ",
"+.;.,.0.p.p.p.f.f.f.k.f.9.y C r.x.x.x.x.x.x.c.x.h.( t 2.g.z.k.f.f.f.p.p.8.>.=.] ",
"%.=.,.0.5.q.p.s.s.d.f./ ; H f.f.g.k.g.l.k.z.k.k.k.g.&.< S 0.f.f.d.p.i.5.4.,.-.+.",
"+.>.,.1.5.i.p.i.u.3.w : &.p.d.f.s.f.s.d.d.d.s.f.s.d.s.0.w , [ p.p.i.i.4.3.>.=.o.",
"+.-.,.1.4.u.5.i./ : 0 3.q.u.u.p.p.i.p.p.p.p.i.p.p.p.i.u.i.z * z i.5.5.4.3.-.*.] ",
"o.*.>.<.4.4.4.f @ n u.u.u.u.4.u.5.u.i.i.u.u.i.0.u.u.u.5.q.u._ > : -.4.4.,.>.%.o.",
"%.=.-.3.4.%.2 : [ 4.4.4.4.4.u.4.i.4.5.4.4.u.4.4.0.5.4.4.4.4.5.-.e @ / 3.>.-.%.#.",
"o.*.-.>.>.2 q >.4.4.4.3.4.4.4.4.4.4.4.4.4.4.4.4.4.4.4.4.4.4.4.4.4.n . >.>.-.*.] ",
"o.%.-.>.>.4 g ,.4.4.1.3.1.4.1.1.1.1.1.4.1.1.1.1.1.1.4.<.,.3.4.<.4.U - >.=.-.%.] ",
"o.*.*.-.>.n $ 4.>.1.<.>.<.1.,.<.1.>.>.,.<.1.1.1.1.1.<.3.1.<.<.>.>.4 f >.-.*.$.] ",
"] %.*.:.>.[ & _ >.1.>.>.>.>.<.>.>.>.>.>.>.>.>.>.>.>.<.>.>.>.,.>.*.& ) :.*.%.$.] ",
"X.+.$.:.$.=.9 w :.:.>.>.>.>.:.>.>.:.>.>.:.>.>.:.>.:.:.>.>.>.:.>.n > o.*.*.*.o.' ",
"' o.%.%.:.:.N $ -.>.:.:.-.:.:.:.:.:.:.:.:.:.:.:.:.:.:.:.:.-.:.:.1 e *.*.*.%.] ' ",
"' o.o.+.$.*.' # I *.$.:.:.:.*.:.:.*.*.:.:.*.*.:.$.:.@.:.*.-.*.+.$ n %.*.%.o.#.' ",
") ] o.$.%.%.$.5 9 %.$.:.$.$.*.*.*.%.*.%.O.*.*.%.:.O.%.:.*.%.@.b : _ $.$.o.o.] ' ",
"` ' X.o.%.o.@.z : o.O.$.O.$.$.$.O.O.O.O.O.O.O.O.@.O.%.O.@.@.%.8 4 $.+.O.o.] ' ' ",
") ` ' X.o.o.+.W % b +.o.$.o.o.$.+.O.o.$.O.o.O.o.o.O.O.o.O.o.' = h %.o.o.o.] ' ) ",
"Q ) ` ] X.o.o.o.: 0 X.o.o.o.o.o.o.o.o.o.o.o.o.o.o.o.o.o.o.o.b @ ) o.o.X.] ' ) ) ",
"V / ` ` ' ] ] X.0 % ` X.o.X.X.o.o.o.X.X.o.X.X.X.o.o.X.o.X.] p : o.X.X.] ' ' ) W ",
"V Y W ' ' ' ' X.I # N X.] ' ' X.' X.X.' X.] X.' ] X.X.' X.Q - h o.' ' ` ` ) ) T ",
"N V W W ` ` ` ' ' - p X.` X.` X.` X.' ' X.' X.X.' ' ' ' ' N + ) ' ` ' ` ' ) T T ",
"m B T Q W ) ) ` ` 9 $ W ` ` ` X.` ` ` ` ` ` ` ` ` ` ) ` ` u $ ` ` ' ` ! W T V B ",
"b N I Y T W ) ) ) T X N ! ! ) ! ! ` ! ` ! ! ! ! ` ) ` ) ` % p ) ` W Q W W Y B n ",
"z c b M Y W V Q W ` % 9 ! ) ) ! W W ! W V B V V V V Y Y v . W W W W V V I N P c ",
"j x v N N Y Y T T W s   O X X O O O O O @ # # # # # # # O 3 W W W V Y B m m c z ",
"s h j v m P N Y V V E T T W E W W T W T E W V E V E E V E V V Y B N N b c c j h ",
"u s s j k c b P m M P B I Y B Y Y B V B B B B V B V B B B B B N N m b c j j s i ",
"9 u i i s j k c m b m b M m N M N N M N N N m N M M M M N m m b b z x j s s i u ",
"8 8 9 u p s s d j x c l v c b c v m m b v m v m v m m v b b l v x j s s u u 9 8 ",
"6 7 7 9 9 u u s s d j j j j v l x j j x x x v v v j x j j j j d h s p e 9 9 8 7 ",
"3 7 7 7 7 9 9 u 0 s s s s s h j d j j j j j j d j x j j d s s s i u 9 9 8 7 7 3 ",
"3 3 7 3 6 6 8 9 9 u u i i p p p s s s s s s s s s i s p s s i i u 9 9 7 7 7 7 3 "
};
