/* XPM */
static char *bt____b__wlzwm_wgzwm__vxvus_a_lh_______out[] = {
/* columns rows colors chars-per-pixel */
"40 40 145 2",
"   c #000004",
".  c #090E14",
"X  c #071017",
"o  c #0A1116",
"O  c #071019",
"+  c #0C151C",
"@  c #0D1720",
"#  c #121D23",
"$  c #131F2B",
"%  c #0F212F",
"&  c #13222E",
"*  c #1A252E",
"=  c #142533",
"-  c #192A3A",
";  c #232C33",
":  c #27343D",
">  c #1B3242",
",  c #2E3F47",
"<  c #203548",
"1  c #233B4E",
"2  c #35434C",
"3  c #26445C",
"4  c #2C4559",
"5  c #29485D",
"6  c #3B4954",
"7  c #3D4D5C",
"8  c #2D4C63",
"9  c #274A6F",
"0  c #294B6E",
"q  c #2D506D",
"w  c #37566B",
"e  c #3E576D",
"r  c #274E73",
"t  c #2A4D73",
"y  c #2A4F79",
"u  c #2A5175",
"i  c #2C537B",
"p  c #2C587F",
"a  c #335875",
"s  c #31557F",
"d  c #31587F",
"f  c #434C55",
"g  c #46545F",
"h  c #445664",
"j  c #445B6B",
"k  c #44627A",
"l  c #2E5681",
"z  c #2F5983",
"x  c #2E5D89",
"c  c #315783",
"v  c #315B85",
"b  c #325D8A",
"n  c #33618D",
"m  c #356493",
"M  c #386592",
"N  c #356996",
"B  c #3B6A95",
"V  c #376798",
"C  c #386698",
"Z  c #376A99",
"A  c #3A6C9C",
"S  c #3D719E",
"D  c #3C6EA3",
"F  c #3D71A4",
"G  c #3E75A9",
"H  c #51718A",
"J  c #4B7492",
"K  c #41729B",
"L  c #4175A5",
"P  c #447AA4",
"I  c #497CA5",
"U  c #4175AB",
"Y  c #437AAD",
"T  c #497EAC",
"R  c #447DB4",
"E  c #447FB9",
"W  c #4B7FB8",
"Q  c #4A80AF",
"!  c #5083AE",
"~  c #5A86A9",
"^  c #5D8AAB",
"/  c #4681B6",
"(  c #4A83B5",
")  c #4B88B7",
"_  c #4682BA",
"`  c #4985BC",
"'  c #4C89BD",
"]  c #558AB6",
"[  c #518DBE",
"{  c #5090BE",
"}  c #5D92BC",
"|  c #6786A2",
" . c #638EB0",
".. c #6691B3",
"X. c #6B96B6",
"o. c #6E99B9",
"O. c #739EBE",
"+. c #4987C0",
"@. c #4D8BC3",
"#. c #4D8EC9",
"$. c #518EC4",
"%. c #518EC9",
"&. c #4F90C5",
"*. c #4F90C9",
"=. c #5291C6",
"-. c #5394CB",
";. c #5996CC",
":. c #5598CE",
">. c #5A9ACE",
",. c #5496D0",
"<. c #569AD3",
"1. c #5A9DD4",
"2. c #579DD8",
"3. c #5A9FD9",
"4. c #6399C5",
"5. c #6D9EC6",
"6. c #699ECA",
"7. c #5EA0D5",
"8. c #5CA2DC",
"9. c #5EA8DE",
"0. c #60A1D7",
"q. c #62A5DB",
"w. c #68A7DD",
"e. c #67A9DE",
"r. c #68A9DF",
"t. c #5FA6E0",
"y. c #60A6E1",
"u. c #64ABE3",
"i. c #6AADE4",
"p. c #6AAFE8",
"a. c #70AEE1",
"s. c #6DB1E6",
"d. c #6DB2E9",
"f. c #72B3E7",
"g. c #7FB8E3",
"h. c #73B5E9",
"j. c #7AB7EA",
"k. c #76B9EC",
"l. c #7CBBED",
"z. c #7FBDF0",
"x. c #81BEEE",
"c. c #81BFF0",
"v. c #85C1EF",
"b. c #85C2F1",
"n. c #8AC4F2",
/* pixels */
"b n M S L L T ( ) { { { =.{ =.=.=.=.;.;.;.>.;.>.;.=.=.=.=.{ { ' ) ( T P L A n n ",
"n B S Y T ( ' $.{ ;.;.:.>.>.1.>.0.7.0.0.7.q.7.7.7.7.7.1.>.>.;.;.=.[ ' ( Y L K M ",
"A L I ( [ =.;.;.>.7.7.7.q.q.w.w.e.a.w.e.e.e.e.w.e.e.e.e.q.0.0.0.1.>.;.=.[ T Y A ",
"L I ( &.;.1.1.q.e.e.s.i.s.s.f.f.f.f.f.f.h.g.f.f.h.h.h.f.s.a.s.e.r.0.7.>.{ ] W L ",
"Y ! $.;.1.q.w.i.d.d.d.h.h.k.k.l.l.l.l.l.l.v.v.x.x.l.k.k.l.h.h.f.s.s.w.7.6.=.) Q ",
"( [ ;.1.0.r.i.f.d.k.k.l.l.l.x.x.v.v.v.v.v.v.v.v.v.v.v.l.l.l.k.k.h.d.s.q.7.>.{ ) ",
"[ $.1.0.u.i.d.h.k.k.k.z.x.v.b.b.v.n.n.n.n.n.n.n.n.b.b.b.v.x.l.k.f.f.s.e.q.1.=.) ",
"[ ;.1.q.u.p.d.d.k.k.z.k.x.x.b.b.n.n.n.n.n.n.n.x.O.o.X.X... .^ ~ } f.s.i.q.1.;.) ",
"[ ;.1.q.p.p.p.d.d.k.k.k.k.z.z.b.x.b.b.b.b.v.x.| f h h 7 6 2 , ; : } d.u.q.7.;.{ ",
"$.;.7.8.u.u.u.d.d.d.d.k.k.k.k.k.l.l.l.z.c.x.g.H j 5.6.6.4.4.4.J * ~ i.u.8.7.;.&.",
"@.:.1.8.t.u.u.p.p.p.p.p.d.d.d.d.h.h.h.h.h.h.f.k e h.d.f.s.d.p.] * K u.9.7.:.:.' ",
"=.;.7.8.t.y.t.y.t.u.u.u.u.p.p.p.i.p.i.p.d.i.i.w 4 i.p.i.i.u.i.T & P 9.8.8.7.&.{ ",
"&.;.<.7.8.t.t.t.u.t.t.t.t.t.t.t.y.u.y.u.u.u.y.8 1 9.u.u.u.y.u.I + Q q.8.7.:.-.' ",
"&.-.<.2.8.8.t.8.t.t.t.t.t.t.t.t.y.y.9.u.t.t.8.5 < 8.9.9.t.t.t.P + P 8.7.2.:.;.{ ",
"&.-.:.7.8.8.8.8.t.t.8.t.t.t.8.t.8.8.8.t.8.8.7.3 1 8.8.9.8.8.8.P + F 8.7.2.:.-.@.",
"@.=.:.2.2.7.2.8.t.8.8.8.t.t.8.8.8.8.8.8.8.8.8.8 > ;.:.=.-.-.:.S O S 7.1.<.-.&.@.",
"@.-.:.<.1.3.3.3.3.3.8.3.2.8.3.3.8.1.8.3.7.8.&.=   & & & # & & . X I 2.<.:.:.=.' ",
"@.$.:.,.<.<.<.3.3.<.3.3.2.1.2.3.2.2.1.2.<.=.- + a q q q q q q 0 B :.2.<.:.-.=.' ",
"' $.-.-.<.,.<.3.<.1.<.<.2.<.<.<.<.2.2.<.&.- + P <.<.1.<.<.<.1.<.<.<.:.,.-.=.@.' ",
"' $.-.:.,.,.,.,.,.<.<.,.:.<.<.,.<.<.<.@.- @ Y <.<.<.,.<.<.<.<.<.<.:.:.:.-.-.@.` ",
"` @.#.=.-.-.,.,.,.<.,.,.,.,.,.,.:.:.@.- + P <.,.,.,.,.,.:.:.:.,.,.,.-.-.-.=.#.` ",
"` @.@.-.-.-.-.-.,.*.:.,.-.-.-.,.:.( = o L ,.,.*.-.,.-.:.-.-.-.-.:.*.*.-.&.&.` ' ",
"( ` ' #.-.&.-.-.*.:.*.*.-.-.:.=.` = X F -.*.-.-.*.-.*.*.-.-.#.-.-.-.*.&.@.@.' ) ",
"_ ` ' ' @.#.*.#.#.*.#.*.#.&.#.` = . L @.#.#.#.%.*.#.$.=.#.#.*.*.%.&.&.#.#.` ) _ ",
"/ ( ` @.@.@.&.@.#.%.@.#.#.@./ = O S #.@.#.#.@.#.#.#.@.%.@.%.#.@.#.@.@.@.` ` _ / ",
"R / _ @.` @.@.@.@.@.@.@.@.R - + S @.@.@.@.@.@.@.@.@.@.@.@.@.@.@.@.@.@.@.@.` / / ",
"U / _ ( _ @.' ' @.+.@.@.R = + A @.@.@.@.@.+.+.@.+.@.' @.+.@.@.@.+.` @.` _ ) / R ",
"Y Y T _ ( ` ` @.` +.+.Y = o A +.` ` +.` +.+.+.+.+.+.` +.+.` +.+.@.` ` ` _ _ R Y ",
"L Y R R _ _ _ ` ` ` U $ O Z ` ` ` +.` ` ` ` ` _ ` ` ` ` ` ` +.` ( ` ` ` / R T Y ",
"D L U R R _ _ _ _ U = . Z E ` _ _ _ E E _ ` ` _ _ _ _ _ W E ` E _ _ _ R R R U U ",
"A A L Y U R / / G $ . N ( E W / _ _ E _ _ / R _ E _ _ E _ E E E R E R R U U U F ",
"Z A A F U Y Y G & . M _ R E / E E R E R E E / E R R R E R R E R R / Y Y Y F A A ",
"n C A K L F U & O M R R E Y E R R R R R R R R R R E R R E E R R U R G L D A A m ",
"b n m A D D F - i U U U Y R U R R R R Y E G R E R G R G G Y U U G G F A A N M n ",
"d v b m C C D K F F U U U G U U G G G G G U G G R U G U G F G D D D A A m m b v ",
"i p c v b n M A A A D D D D D G F F F D F F F D D D D F D D D D A A m n n v c p ",
"t i i c l b b b m V V V A C D D A A A D A D D A D D D A Z Z V V m M b v v l i u ",
"r y t i i l c x b x m m m m m m V m Z V V Z m m V V C C V V C b n b c s i i t t ",
"0 9 t t u u i s l b x b b m n n b m m m m m m m m m b m n b b b v z p i t t t t ",
"9 9 9 t r t u i i l l l v v c b b b b b b x b b x b x b x x x c l i i t t t t 9 "
};
