/* XPM */
static char *bt_____qinweprq_vysx_zldlwb_tua________out[] = {
/* columns rows colors chars-per-pixel */
"40 40 143 2",
"   c #050409",
".  c #050F11",
"X  c #080D13",
"o  c #0C1721",
"O  c #0E1A26",
"+  c #121923",
"@  c #101D29",
"#  c #121F30",
"$  c #11212C",
"%  c #142334",
"&  c #162936",
"*  c #1A2937",
"=  c #172639",
"-  c #162C3E",
";  c #1A2C3D",
":  c #152F40",
">  c #1A2E42",
",  c #1B3144",
"<  c #1E354C",
"1  c #1E394E",
"2  c #203342",
"3  c #233849",
"4  c #233D54",
"5  c #223D58",
"6  c #2B4254",
"7  c #22425C",
"8  c #254760",
"9  c #284A66",
"0  c #294769",
"q  c #274B6E",
"w  c #2A4C6D",
"e  c #385165",
"r  c #264C72",
"t  c #2A4D73",
"y  c #2C4F79",
"u  c #2C5275",
"i  c #2D547B",
"p  c #2D597E",
"a  c #325573",
"s  c #31577B",
"d  c #335A7B",
"f  c #4B6478",
"g  c #2D5682",
"h  c #2E5A84",
"j  c #2F5C8A",
"k  c #305682",
"l  c #325C85",
"z  c #335D8A",
"x  c #375F90",
"c  c #376183",
"v  c #3A6386",
"b  c #34628D",
"n  c #39658C",
"m  c #3D6A8E",
"M  c #356493",
"N  c #396594",
"B  c #356A95",
"V  c #3B6995",
"C  c #366698",
"Z  c #386698",
"A  c #366A9B",
"S  c #3A6C9C",
"D  c #3D729E",
"F  c #3B6EA2",
"G  c #3E71A4",
"H  c #3E73AA",
"J  c #3F7BAD",
"K  c #506B80",
"L  c #577182",
"P  c #597286",
"I  c #436F94",
"U  c #417199",
"Y  c #4A7699",
"T  c #62798F",
"R  c #4175A5",
"E  c #457CA5",
"W  c #4175AA",
"Q  c #437AAC",
"!  c #497EAF",
"~  c #4377B0",
"^  c #447DB4",
"/  c #4A7FB1",
"(  c #467FB8",
")  c #5581A4",
"_  c #4581B6",
"`  c #4A83B4",
"'  c #4B88B7",
"]  c #4682BA",
"[  c #4985BC",
"{  c #4C89BE",
"}  c #518CBD",
"|  c #638EB0",
" . c #6793B6",
".. c #6D97B9",
"X. c #739DBD",
"o. c #4987C0",
"O. c #4D8BC3",
"+. c #4E8DC9",
"@. c #518EC4",
"#. c #518EC8",
"$. c #4E90C6",
"%. c #4F90CA",
"&. c #5291C5",
"*. c #5394CB",
"=. c #5896CB",
"-. c #5598CE",
";. c #5B99CE",
":. c #5496D1",
">. c #569AD3",
",. c #5A9DD4",
"<. c #579CD9",
"1. c #5A9ED9",
"2. c #609FD4",
"3. c #57A0D7",
"4. c #5EA0D5",
"5. c #5CA2DC",
"6. c #5FA8DF",
"7. c #62A3D7",
"8. c #63A5DC",
"9. c #67A9DE",
"0. c #6AABDF",
"q. c #5FA6E0",
"w. c #5EA9E2",
"e. c #60A6E1",
"r. c #64ABE4",
"t. c #6AADE4",
"y. c #67ADE9",
"u. c #68ADE8",
"i. c #6CB1E6",
"p. c #67B2EC",
"a. c #6DB2E9",
"s. c #71B3E7",
"d. c #78B4E6",
"f. c #79B9E7",
"g. c #73B5EA",
"h. c #75B9EC",
"j. c #7CBBED",
"k. c #7CBDF0",
"l. c #81BEEE",
"z. c #81BFF0",
"x. c #85C1EF",
"c. c #84C1F1",
"v. c #8AC4F1",
/* pixels */
"z b N D R W ! ` ' ' } } &.&.&.&.&.=.=.&.=.=.=.=.=.*.&.&.&.&.{ } ' ` Q R G D n b ",
"b V D Q E ` } @.&.=.=.;.;.;.,.;.7.2.4.7.7.7.4.4.4.4.2.4.;.;.=.=.=.} { ` E E U V ",
"S R E ` } @.=.=.,.4.7.7.8.8.9.9.9.0.9.9.t.0.0.0.0.0.9.9.7.7.7.7.4.=.=.} { ! E S ",
"R E ' @.=.,.,.8.8.0.0.i.i.i.s.s.s.s.s.f.s.s.h.f.s.g.s.i.s.i.t.9.9.8.4.;.&.{ ` R ",
"! ` @.=.,.7.t.t.p.a.g.g.g.h.f.h.j.j.j. .f c.x.j.j.j.f.j.f.h.g.s.i.0.9.7.2.&.' ) ",
"` } =.,.7.0.t.s.a.h.h.f.j.j.l.x.x.x.x...L c.v.v.c.c.c.k.z.j.g.h.h.i.t.9.4.-.} ' ",
"' &.;.5.t.t.u.g.g.h.j.k.x.l.c.c.v.v.v.X.T v.v.v.v.v.v.c.z.k.j.j.h.a.i.0.7.,.&.} ",
"} =.,.8.t.u.u.g.h.h.j.j.z.z.c.c.v.v.v.X.T v.v.v.v.v.c.c.z.k.k.h.h.s.i.0.6.2.-.} ",
"} =.,.8.y.t.i.a.g.h.h.h.k.j.j.z.c.z.x...P x.c.c.z.l.z.k.l.j.h.h.g.a.a.t.8.,.=.} ",
"@.=.5.8.r.r.r.a.a.a.a.g.h.h.f.k.j.j.l.| f l.j.j.j.k.h.j.h.g.g.p.a.a.r.r.5.,.-.} ",
"&.-.,.5.6.r.r.y.r.t.p.a.a.i.g.a.g.g.g.) e g.g.g.g.g.g.s.i.p.t.i.r.r.r.8.4.,.*.} ",
"@.=.,.5.q.e.e.r.r.r.y.y.r.y.y.y.t.t.i.Y 6 t.i.t.y.t.t.y.y.t.p.r.r.r.w.5.5.,.*.{ ",
"O.=.,.3.5.6.q.e.w.r.q.r.r.w.e.r.r.r.r.I 3 r.r.r.t.r.w.r.r.q.r.e.e.q.5.5.5.;.=.&.",
"&.*.,.,.5.5.5.q.5.v 6.q.q.q.r.q.q.q.e.V , q.r.q.q.w.8.8.6.q.} a 5.5.5.5.,.-.&.{ ",
"$.*.-.3.<.5.5.5.5.w ; =.6.1.q.q.5.5.5.m ; 5.5.5.5.q.5.5.8.n - V 6.5.5.3.,.-.*.O.",
"O.*.-.,.,.5.<.5.3.5.c & E 5.5.1.5.5.5.n - 5.5.5.5.5.5.5.9 ; @.6.5.<.3.>.-.-.$.O.",
"O.&.-.>.,.<.1.,.<.5.1.R & c <.5.<.1.5.v ; 5.,.5.5.<.-., 6 5.,.5.1.<.,.>.>.*.&.O.",
"@.#.-.>.>.>.,.<.,.,.1.<.O.* 8 ,.1.<.3.v > ,.<.>.3.Q & u <.3.<.<.<.>.,.>.>.*.&.{ ",
"{ #.*.:.>.>.>.<.1.<.>.>.,.>.< , -.,.>.n ; ,.<.>.d & U ;.>.>.>.<.>.>.-.>.*.%.$.{ ",
"[ @.&.*.:.:.>.>.-.,.;.<.:.>.>.7 % ' -.l - >.>.5 ; @.>.>.>.>.-.>.>.>.*.>.*.*.O.{ ",
"[ O.O.*.*.:.:.:.-.:.:.:.>.:.:.>.d % S I > O.* 4 :.:.>.:.>.>.:.*.:.:.*.*.&.&.$.[ ",
"' O.O.&.%.*.*.*.&.:.*.*.*.>.%.:.*.D % 1 $ = p *.:.*.%.*.:.*.%.:.*.:.%.*.%.O.{ { ",
"' [ O.$.%.*.*.&.*.%.*.%.%.%.*.%.*.:.+.X   ` %.&.&.%.&.:.*.&.*.%.*.&.&.&.$.{ { [ ",
"] [ [ O.O.&.%.%.+.%.+.#.+.%.&.&.+.&.< @ X < O.%.%.%.%.%.%.%.%.%.%.%.O.$.O.O.{ _ ",
"` _ [ o.o.&.O.O.+.&.+.O.+.#.+.$.R $ 7 n , 9 $ J +.+.O.%.O.O.#.#.$.+.O.$.{ [ _ _ ",
"^ ] [ [ o.O.O.O.+.o.o.+.O.O.O.p @ s O.s & { s O z O.O.O.#.+.O.+.O.O.O.[ { [ _ _ ",
"Q _ _ ' [ [ +.o.o.O.[ O.[ [ 1 % G O.o.p & o.O.A @ 7 @.{ o.+.{ o.O.o.o.[ [ ' _ ^ ",
"R Q ` _ [ [ [ o.o.o.[ o.] - ; [ [ [ o.i & o.o.o._ $ > [ [ o.[ [ [ O.[ [ ] _ ( Q ",
"G Q ^ _ ] ] ] [ [ [ [ C O 5 [ ] o.[ ] u = ] [ [ [ [ : % ] o.[ [ ] [ [ ] ( ( ^ Q ",
"G G Q Q ` _ ] ] ] ] 0 o i o.( [ ] ] [ u % ] ] ] [ ] ] 1 + B ( [ ] ] _ ^ ^ Q W R ",
"S G R W ~ ~ _ _ _ : @ D ] ] _ ( ( _ ( u = ] ] ( ( ^ ( ( u o t ] _ ( ( ^ Q Q R R ",
"B S F R W Q Q G # - ] _ ^ ] ] ^ ^ ( ] w % ^ ( ] J ( ( ( ( Z o 1 ^ ^ Q Q G G S S ",
"b Z A S G W q o 7 ^ ^ ~ ( ^ ^ ^ ^ ~ ( t % ^ J ( ^ ^ ^ ^ ^ ^ ~ $ % G W G G F Z Z ",
"z M N S F F > i W Q ~ ~ J Q ^ ^ J ^ ^ q % ^ ^ J Q J ~ J J ~ H W & < G D A A C z ",
"g l b b C A S F G R F G W W H H W W W w % H H H ~ H H W H G H G G S S S C b z h ",
"i p k l z x N V S F S F F F G G H F G H G G G H G F H F G F F S S C C M z z g i ",
"u u i g g z x z M C C B A S S A F A F A S S A F F F F A S A B C C b z z l g p u ",
"t t i u p g g l z z M N M N C C C M C C C S C B C C B C C M M b z z h i g u t y ",
"r t t t y i i g h j j j b b b x x M b M b M M M N N b M b b z z l g g i y t y q ",
"q 0 q q r t t i u g p h h h l j z z z z z z j z j z j l j h h l g p u y t t q q "
};
