/* XPM */
static char *bt____xwmkcidalvqiz_ix__phuzhzto_______out[] = {
/* columns rows colors chars-per-pixel */
"40 40 166 2",
"   c #010000",
".  c #04090D",
"X  c #09131C",
"o  c #0C1824",
"O  c #0D1E2B",
"+  c #111E2B",
"@  c #11212E",
"#  c #132433",
"$  c #172937",
"%  c #1D2A32",
"&  c #142738",
"*  c #162B3C",
"=  c #1A2C3C",
"-  c #1E313D",
";  c #172C41",
":  c #1A2F40",
">  c #1A3144",
",  c #1C344A",
"<  c #1E384D",
"1  c #1E3A52",
"2  c #223545",
"3  c #20354D",
"4  c #213A4D",
"5  c #2B3E4D",
"6  c #223C53",
"7  c #293E51",
"8  c #233F59",
"9  c #294256",
"0  c #25425C",
"q  c #2A455C",
"w  c #2F4A5D",
"e  c #304151",
"r  c #254461",
"t  c #2D4A65",
"y  c #26476A",
"u  c #274A6D",
"i  c #2A4C6D",
"p  c #324E65",
"a  c #2F516C",
"s  c #3C5365",
"d  c #32506A",
"f  c #3E586F",
"g  c #274D72",
"h  c #294D73",
"j  c #2B5275",
"k  c #2D547C",
"l  c #335473",
"z  c #31567B",
"x  c #31597C",
"c  c #3E6079",
"v  c #40637F",
"b  c #4D687D",
"n  c #526C7D",
"m  c #2D5781",
"M  c #2F5983",
"N  c #315B85",
"B  c #325E8A",
"V  c #366387",
"C  c #3A6383",
"Z  c #34628D",
"A  c #3A668C",
"S  c #39698F",
"D  c #356493",
"F  c #396692",
"G  c #3B6A94",
"H  c #366799",
"J  c #396798",
"K  c #376A9A",
"L  c #3A6C9B",
"P  c #3D719D",
"I  c #3C6EA2",
"U  c #3D71A4",
"Y  c #3F77A9",
"T  c #496884",
"R  c #426C8C",
"E  c #5D7486",
"W  c #567288",
"Q  c #5E778B",
"!  c #457296",
"~  c #497497",
"^  c #42749D",
"/  c #4B7698",
"(  c #48789E",
")  c #587793",
"_  c #5D7B93",
"`  c #627E93",
"'  c #4174A6",
"]  c #4578A5",
"[  c #4B7DA5",
"{  c #4175AA",
"}  c #437AAD",
"|  c #497EAF",
" . c #517DA0",
".. c #447DB4",
"X. c #4A7FB1",
"o. c #437EB8",
"O. c #658197",
"+. c #4380AD",
"@. c #4C81AC",
"#. c #5080A4",
"$. c #5784A9",
"%. c #4581B6",
"&. c #4A83B4",
"*. c #4D88B5",
"=. c #4682B9",
"-. c #4985BC",
";. c #4C89BD",
":. c #5188B1",
">. c #518CBE",
",. c #678BA5",
"<. c #668FAF",
"1. c #6E97B7",
"2. c #7196B3",
"3. c #7398B5",
"4. c #4986C1",
"5. c #4D8BC3",
"6. c #4E8EC8",
"7. c #518EC4",
"8. c #518EC9",
"9. c #4F91C6",
"0. c #4F91C9",
"q. c #5391C5",
"w. c #5C99C6",
"e. c #5394CB",
"r. c #5896CB",
"t. c #5698CD",
"y. c #5B99CE",
"u. c #5496D1",
"i. c #569AD3",
"p. c #5A9DD4",
"a. c #579DD8",
"s. c #599ED9",
"d. c #689ECC",
"f. c #5DA1D6",
"g. c #5CA2DC",
"h. c #5FA8DF",
"j. c #68A3CF",
"k. c #72A5CC",
"l. c #62A3D7",
"z. c #63A5DC",
"x. c #67A9DE",
"c. c #6BAADC",
"v. c #73A9D5",
"b. c #7DADD3",
"n. c #73ACD9",
"m. c #5EA5E0",
"M. c #5DA8E2",
"N. c #60A6E1",
"B. c #64AAE3",
"V. c #6AADE3",
"C. c #68AEE9",
"Z. c #6DB1E5",
"A. c #6DB2E9",
"S. c #72B3E6",
"D. c #78B6E7",
"F. c #73B5EA",
"G. c #76B9EC",
"H. c #7BBBEC",
"J. c #74B9F0",
"K. c #7DBDF0",
"L. c #81BEEE",
"P. c #82BFF1",
"I. c #85C1EE",
"U. c #89C4EF",
"Y. c #84C2F1",
"T. c #89C3F1",
/* pixels */
"B Z F P U ] X.&.*.;.>.>.9.9.q.q.w.q.q.y.r.t.t.r.r.r.q.q.q.q.>.>.*.&.| } U G G V ",
"Z G P ] +.&.;.7.9.w.t.w.y.p.y.y.p.f.f.f.l.l.f.f.f.p.p.p.y.y.r.r.e.>.*.&.| } L G ",
"L U [ &.>.7.r.r.y.f.f.l.z.l.x.x.x.x.x.c.V.x.c.V.x.x.x.x.z.z.l.p.p.y.r.>.*.| ] L ",
"' [ -.9.r.p.p.z.z.c.Z.Z.Z.Z.S.F.D.D.F.F.D.F.F.D.D.F.S.S.S.V.V.V.x.z.f.y.q.;.&.' ",
"| &.7.r.p.l.V.V.Z.A.A.F.D.F.G.H.H.H.L.,._ L.L.H.H.H.G.H.D.F.F.S.Z.c.x.l.d.q.;.+.",
"&.>.r.p.l.x.V.A.F.F.G.G.H.H.I.L.Y.T.L.` n T.I.T.Y.Y.I.L.L.H.G.F.F.A.V.x.g.w.>.*.",
"*.q.d.s.B.V.A.F.F.G.H.K.L.I.Y.Y.U.T.L.n Q b.T.T.T.T.Y.Y.P.K.H.H.F.F.Z.V.z.y.w.*.",
">.e.p.z.B.C.C.F.J.J.H.K.L.K.I.I.T.Y.L.Q 3.2.T.T.T.U.Y.Y.P.K.K.H.F.F.Z.B.h.p.q.>.",
"7.r.p.z.C.C.Z.A.x.v.G.G.H.H.I.I.P.L.,.1.k.` L.U.I.P.L.L.H.H.n.Z.F.A.Z.B.z.f.t.>.",
"7.r.p.z.B.B.C.C.[ 5 / l.F.F.G.G.H.H.b n.v.W k.H.H.K.H.H.c.$.e #.A.C.B.B.g.f.t.;.",
"5.t.p.h.g.B.B.C.l.- 2 p ~ c.A.A.F.d.s F.S.T #.F.F.A.V.( f e % w.Z.B.B.N.g.p.t.9.",
"q.t.p.g.m.m.B.B.B.! 9 :.p 9 ! Z.C.R v V.V.R T V.V.[ w w :.d S B.B.B.N.g.g.t.q.;.",
"7.t.i.g.g.h.m.m.h.h., *.g.! 6 9 @.4 @.V.B.@.t ( d 4 S f.>., >.B.B.N.m.g.f.i.q.5.",
"7.e.i.f.g.g.g.m.h.m.] - M.h.t.G 2 $ g.z.h.g.4 $ A r.z.g.q C h.h.m.m.s.s.p.t.e.;.",
"6.r.i.a.a.g.g.m.g.g.g.9 A h.g.g.t.q.g.g.h.g.0.q.h.h.h.^ 2 q.h.g.g.g.g.s.a.t.e.9.",
"5.q.t.i.a.f.s.s.g.g.g.%.= i.g.g.g.f.g.g.g.g.g.s.g.g.i.0 V g.g.g.g.s.s.p.i.t.9.5.",
"5.q.r.i.i.a.g.s.a.f.g.f.t i a.s.s.s.s.s.s.s.s.s.s.p.G 2 p.f.s.g.p.s.a.p.u.e.0.;.",
";.e.e.u.i.i.a.p.a.a.%.G 4 = a.a.a.a.p.p.a.a.p.a.s.i.0 = G } i.a.i.a.a.t.t.0.9.;.",
"5.7.e.u.i.i.i.^ z 0 8 0 z | i.a.i.i.a.a.a.i.i.a.i.a.&.V 0 6 6 l ^ r.a.y.u.e.7.*.",
";.8.9.u.^ a 6 6 a S [ e.u.i.i.u.i.i.u.u.u.a.u.u.i.u.u.i.r.+.S i 0 6 u G 0.e.5.;.",
"-.5.6.8.<   @ G 0.u.t.e.u.i.u.u.u.t.u.u.u.u.u.u.u.0.u.e.u.i.u.u.G =   > 9.9.5.;.",
"-.5.5.q.*.] x 1 > 0 Z ;.0.e.e.u.u.e.u.e.u.0.e.e.u.e.e.e.;.G t > 3 i ' *.e.5.5.-.",
"=.;.5.9.9.6.e.8.%.x 1 = 1 G 7.e.6.e.e.e.0.0.u.e.0.0.L 0 > , j ] 7.0.9.6.6.5.5.-.",
"=.*.-.5.6.8.9.8.7.0.0.*.8 + 5.6.6.0.6.6.6.0.6.0.0.6.6 $ ;.0.0.0.5.q.6.6.5.5.*.%.",
"o.-.-.;.5.5.6.5.5.6.6.5.4 N 6.6.7.6.6.6.5.6.6.6.6.0.U > %.6.7.6.5.6.5.5.;.-.-.%.",
"} %.-.;.;.5.5.5.5.5.5.B * 5.5.5.5.5.5.5.5.5.5.5.5.5.;.0 0 5.5.5.5.5.5.5.5.-.%.%.",
"} %.%.-.-.5.5.;.5.-.-.# L ;.5.5.V N -.5.5.4.Z x 5.4.;.U * L 5.4.4.;.5.;.=.-.%...",
"Y } %.%.-.=.-.-.;.4.z , ;.-.P , * + ..4.-.| : # > F -.4.0 0 4.4.5.-.-.-.=.%...} ",
"U | | o.=.=.-.=.-...# U { r # y ] , N -.=.N 1 U j # 6 ] P # G -.-.-.-.=.o...| ..",
"U U { ....%.=.=.=.0 : j # 8 ^ o.=.k 6 =.=.r r =.4.} r # j 1 6 o.o.&.o.%.....{ { ",
"L I ' { } ..o.%.U X O < L o.=.=.o.' # ..] , k %.=.=.=.' 8 + . Z o.o.%...| { ' I ",
"G L L ' ' } } o.z , B o.X.o...o.o.o.; Z F * U ..o.o.o.o.o.G , k ......} U U L L ",
"D H K I ' { { { { ..o...........o.o.y 8 N < o.o...o.....o.o.o.Y o...Y U I I J J ",
"M D H K J ' ' { { { { { } ..Y ..Y ..J * 6 u Y ..{ ....{ Y Y } Y Y U U I I J D B ",
"M B Z Z J J I I U ' U { Y Y Y { Y { I O o D { { { Y { { Y U U I ' I I H H Z N N ",
"k k M M B Z J J L I I I I U U U U U I 1 # U U U U U I U I I I I J J D Z B N M m ",
"j j k m M B B Z H H H H H H I H H L I I L I H I I I I I H I H H H D B B M m m j ",
"g h h k k m M N B B B D H H D H H H H H H J H H H H D H D D D D B B N k z j h h ",
"u h h h h k k m m N N B B B B D Z D D Z D D B D D B D D B D B B N M z k h h h h ",
"u u h u h h j k m m m N N N N N B B B B B N B B B B B B M B m m m k k h h h h u "
};
