/* XPM */
static char *bt____o_gidoupubadpzzve_c____ssr_______out[] = {
/* columns rows colors chars-per-pixel */
"40 40 146 2",
"   c #142433",
".  c #172A38",
"X  c #172B43",
"o  c #192F46",
"O  c #1D3344",
"+  c #1E364B",
"@  c #1E3951",
"#  c #203246",
"$  c #2C3F4D",
"%  c #233D56",
"&  c #243E59",
"*  c #264157",
"=  c #2A4356",
"-  c #25425C",
";  c #2A445E",
":  c #264664",
">  c #2A4562",
",  c #2B4B64",
"<  c #274A6E",
"1  c #2A4B6C",
"2  c #2E516E",
"3  c #30526E",
"4  c #274D72",
"5  c #2A4D73",
"6  c #2A5175",
"7  c #2D547C",
"8  c #30557F",
"9  c #345D7D",
"0  c #415B6C",
"q  c #2E5781",
"w  c #2E5A84",
"e  c #2E5D89",
"r  c #315C86",
"t  c #325E8A",
"y  c #366384",
"u  c #386083",
"i  c #34628D",
"p  c #3B6A8E",
"a  c #356493",
"s  c #396593",
"d  c #356997",
"f  c #3A6A96",
"g  c #376798",
"h  c #396798",
"j  c #366A9A",
"k  c #3A6C9C",
"l  c #3D729E",
"z  c #376CA0",
"x  c #3B6DA1",
"c  c #3E72A3",
"v  c #3F74A8",
"b  c #3C79A8",
"n  c #4D6D86",
"m  c #557085",
"M  c #5A7587",
"N  c #567589",
"B  c #59788D",
"V  c #477597",
"C  c #41749F",
"Z  c #537692",
"A  c #617B92",
"S  c #4174A5",
"D  c #447AA7",
"F  c #4A7AA0",
"G  c #4075AA",
"H  c #437AAC",
"J  c #497EAD",
"K  c #4377B0",
"L  c #437DB4",
"P  c #4A7FB1",
"I  c #457DB8",
"U  c #5482A4",
"Y  c #4581B5",
"T  c #4A84B5",
"R  c #4B88B7",
"E  c #4682B9",
"W  c #4985BC",
"Q  c #4C89BD",
"!  c #578CB4",
"~  c #518DBE",
"^  c #6688A1",
"/  c #688BA7",
"(  c #648BAA",
")  c #6B8EAA",
"_  c #6893B5",
"`  c #6F98B6",
"'  c #729BB9",
"]  c #4A87C0",
"[  c #4788C0",
"{  c #4D8BC3",
"}  c #4F8DC9",
"|  c #518EC4",
" . c #518FC8",
".. c #4F90C6",
"X. c #4F91C9",
"o. c #5392C5",
"O. c #5896C7",
"+. c #5394CC",
"@. c #5896CB",
"#. c #5598CE",
"$. c #5A99CD",
"%. c #5496D0",
"&. c #5997D1",
"*. c #569AD3",
"=. c #5B9DD4",
"-. c #579DD8",
";. c #5A9EDA",
":. c #679BC2",
">. c #689ECC",
",. c #619FD3",
"<. c #5DA1D5",
"1. c #5CA2DC",
"2. c #5FA8DF",
"3. c #6BA1CC",
"4. c #74A1CA",
"5. c #61A2D6",
"6. c #63A5DC",
"7. c #66A9DE",
"8. c #6AAADF",
"9. c #7CA9D0",
"0. c #7FB6DF",
"q. c #5EA5E1",
"w. c #5CA9E1",
"e. c #61A6E1",
"r. c #63AAE3",
"t. c #6AADE4",
"y. c #6AAFE9",
"u. c #70AFE4",
"i. c #67B0E7",
"p. c #6DB1E6",
"a. c #6DB2EA",
"s. c #72B3E6",
"d. c #7DB7E7",
"f. c #73B5EA",
"g. c #79B6EA",
"h. c #76B9ED",
"j. c #7CBCED",
"k. c #7EBDF0",
"l. c #82B2D8",
"z. c #83BAE1",
"x. c #81BEED",
"c. c #83BFF1",
"v. c #85C0EE",
"b. c #8AC2EE",
"n. c #84C1F1",
"m. c #8AC4F2",
/* pixels */
"t i f k S S J T T R Q o.| o.o.o.O.O.o.@.O.O.#.@.O.#.O.o.o.~ ~ Q R P J D c k s i ",
"i f l D Y T ~ ~ O.O.O.$.=.$.,.$.=.5.<.5.<.<.<.5.=.<.=.,.@.=.=.O.O.~ Q T J S k s ",
"k c J T ~ | O.@.<.<.5.5.6.6.6.8.7.8.r.8.8.t.r.8.8.8.7.7.6.6.5.,.=.$.@.~ R P D k ",
"C J T ~ @.=.=.6.7.7.t.t.u.u.s.s.s.s.s.g.g.f.g.g.g.s.p.s.u.t.u.r.7.6.5.$.O.R T D ",
"J T | $.=.5.r.u.i.f.p.s.f.g.j.j.d.j.j.3.N d.x.x.j.j.j.g.d.g.f.p.p.t.7.5.,.o.R T ",
"T ~ @.=.5.r.t.s.a.h.h.j.j.j.x.v.n.n.` N ' M l.c.n.n.n.n.j.j.h.h.g.a.t.6.5.O.~ T ",
"R o.&.5.8.r.y.f.h.h.j.k.j.v.n.n.v.) ^ b.b.l.A l.b.m.n.n.x.k.j.j.h.p.p.t.5.$.O.Q ",
"~ O.=.6.r.y.a.f.h.h.h.k.k.v.v.x.A / m.m.m.m.z.M 4.b.n.n.k.k.j.h.h.s.p.r.6.<.O.Q ",
"| @.=.e.r.i.a.a.h.h.h.h.k.j.s.m _ v.n.v.b.n.c.x.B ( v.j.j.h.h.h.f.a.y.r.6.<.O...",
"| @.;.6.r.r.y.i.a.a.a.a.f.>.0 :.g.k.j.j.d.x.x.j.j.Z n g.j.f.f.a.p.y.r.r.6.<.O.| ",
"..O.=.1.e.e.i.r.i.y.a.y.! $ 5.h.f.f.g.g.h.f.g.f.f.f.U ; 6.a.i.p.y.t.e.6.<.*.O.~ ",
"| #.=.;.e.e.w.r.r.w.y.V = ,.t.r.i.i.p.p.r.a.y.i.r.i.t.F = <.t.r.r.r.w.1.<.-.+.Q ",
"{ #.-.<.1.q.e.q.w.r.3 , 1.r.w.r.r.e.r.r.r.r.r.r.r.r.r.w.~ O J r.e.q.2.1.;.*.O...",
"..+.=.=.q.<.6.1.;.& y 2.6.e.q.w.2.e.e.2.e.q.e.q.q.e.w.q.6.@.+ p q.1.1.;.<.%.o.Q ",
"..+.#.-.;.1.1.@.+ y 1.1.q.<.1.q.1.1.2.1.q.1.q.q.q.2.1.1.q.1.=.O 9 1.1.;.*.#.+...",
"{ O.#.;.-.;.T o J <.1.1.1.1.1.1.;.1.1.1.;.<.;.<.1.;.q.;.1.q.;.<.2 - *.;.*.@.o.Q ",
"{ X.@.*.<.f O R ;.<.;.<.;.;.;.;.;.;.;.;.;.;.;.<.<.1.;.-.<.-.1.-.;.y + o.%.%...Q ",
"{ +.%.*.9   +.*.X.+.+.O.*.;.;.;.;.;.=.-.;.;.-.-.;.*.;.*.*.+.+.X.o.-.p   R +...Q ",
"Q  .+.%.  % - - - - % # 9 *.;.*.-.*.*.*.*.*.*.-.*.*.-...O - - * - % : . 1 o...Q ",
"Q | X.+.@.%.*.*.*.*.*.J 6 *.*.*.*.%.*.*.*.%.*.%.*.*.%.R > *.*.*.*.*.#.+.+.+.{ Q ",
"Q |  . .+.%.#.%.%.X.*.b 2 *.O.+.@.%.%.%.%.%.%.%.*.%.#.T : @.*.+.@.%.X.+.X...{ Q ",
"W ] { | ..+.%.X.%.+.%.S 6 +.%.%.%.+.%.+.%.X.%.+.X.+.+.Y ; +.X.%.%.+.+.+.X.{ { E ",
"E [ Q o.o.o...+.+.+.X.S 1 +.+.+.X.+.X.+.X.%.X.+.+.X.+.J - +.+.X.+.X.......{ Q R ",
"T W [ { ....X.} }  . .l 1  .} } } X.X.X.X.X.} X.X.+...L - X.X.X.X.X...} ..Q Q E ",
"P W W [ { { } } { } } C 1 | {  .{  .{ } { } } } } } } H - } } { { } } { { Q W Y ",
"L Y E Q Q { Q { } { { k , { { { { { { { { { { } } { { D & { { { { { Q [ Q W Y L ",
"H L R W Q Q Q { [ { { k 1 { { { { { { { { ] { [ W { [ D @ } W { { Q [ Q E E T L ",
"G H L Y W E Q W W W Q f : [ W W W ] W Q W W W [ W Q Q b - [ W W [ Q W W W Y L H ",
"S H H I E E W E W E W f : W W W W W W W [ E [ W W W W v @ [ E W W W W Y Y I L H ",
"x v H K L Y E E W E W a : E E E I E W I E E E E E E E c - W E E E Y I Y L H G S ",
"k c c H H I I Y E E Y d : E E E E E I I E E I E E E E c @ E E I I I Y K L G D x ",
"h j x c D D H I I L L a < b I L L L E I E E b Y I L I x @ E E b L L L G D S k k ",
"i g j x S G G K K L H i : L L L L L b Y b I L I b I I z @ b I I v K v v x x j h ",
"t a g j h S x G b K I t - K I b K K I L K L L L L b L j @ H H K v v c x j g s i ",
"r r t i s h k x c x c r & v v H v H K v v v b v K S S s + G S c c x k j g a t r ",
"7 7 r r t s h h k x x r X 7 5 6 6 5 5 5 6 6 7 5 7 6 6 : o x z x j h h a t r q 8 ",
"6 6 7 q r r t a a h g g h h x z j x x x k x j x k z z z h z d g h a t r r q 7 5 ",
"5 5 5 7 7 q q r t t a a a h g a g g a g g j g d g g a g a g a a i t r 8 q 6 7 5 ",
"< 4 4 4 5 7 7 q q e e r e i i a i a i a a a a i a a i a i t t r r r 7 7 7 5 5 < ",
"1 < < 4 5 5 6 7 7 7 q q e w r r t t t t t r t t t r t t e r e q 7 7 6 5 4 < < < "
};
