/* XPM */
static char *bt______v_fffc_vvlofcvx_qt__dblp_______out[] = {
/* columns rows colors chars-per-pixel */
"40 40 177 2",
"   c #020203",
".  c #04050A",
"X  c #04090D",
"o  c #060C12",
"O  c #080D12",
"+  c #0B0F18",
"@  c #091014",
"#  c #0F1817",
"$  c #0C141C",
"%  c #0E1E2B",
"&  c #111B25",
"*  c #1D1E23",
"=  c #121C2A",
"-  c #152433",
";  c #182835",
":  c #152638",
">  c #162B3C",
",  c #192D3D",
"<  c #202125",
"1  c #2B3036",
"2  c #162B40",
"3  c #1A2E44",
"4  c #1C3245",
"5  c #1D354B",
"6  c #1E394E",
"7  c #1E3954",
"8  c #21374E",
"9  c #23384B",
"0  c #333D46",
"q  c #243B52",
"w  c #38424B",
"e  c #264155",
"r  c #294354",
"t  c #24415F",
"y  c #264663",
"u  c #284763",
"i  c #2B4A66",
"p  c #274A6E",
"a  c #2A4B6B",
"s  c #2B506D",
"d  c #3F5A6D",
"f  c #274D71",
"g  c #294D73",
"h  c #2A5176",
"j  c #2D547B",
"k  c #2E5A7D",
"l  c #305572",
"z  c #365977",
"x  c #30557F",
"c  c #404E59",
"v  c #43515E",
"b  c #48555E",
"n  c #425363",
"m  c #495762",
"M  c #4C5A66",
"N  c #465B6E",
"B  c #4D5F6B",
"V  c #445D71",
"C  c #4D606E",
"Z  c #4E6471",
"A  c #546574",
"S  c #586B7A",
"D  c #2E5781",
"F  c #2F5A83",
"G  c #2E5D8A",
"H  c #305782",
"J  c #315B85",
"K  c #325E8A",
"L  c #356183",
"P  c #396486",
"I  c #34628D",
"U  c #3A658D",
"Y  c #38688E",
"T  c #356493",
"R  c #396694",
"E  c #356996",
"W  c #396895",
"Q  c #386699",
"!  c #366999",
"~  c #3A6B9C",
"^  c #3E739D",
"/  c #3B6DA1",
"(  c #3D71A4",
")  c #3E73A9",
"_  c #3E79AB",
"`  c #436684",
"'  c #4D6F8A",
"]  c #5A7283",
"[  c #527088",
"{  c #5C758B",
"}  c #5D788D",
"|  c #467194",
" . c #46789D",
".. c #5B7991",
"X. c #406FA6",
"o. c #4174A5",
"O. c #457AA5",
"+. c #4175AA",
"@. c #437BAC",
"#. c #497EAF",
"$. c #447DB3",
"%. c #4A7EB3",
"&. c #467EB9",
"*. c #487FB8",
"=. c #5F829E",
"-. c #60829D",
";. c #5282A6",
":. c #5C85A5",
">. c #5586AB",
",. c #4581B6",
"<. c #4A83B5",
"1. c #4B88B7",
"2. c #4682BA",
"3. c #4985BC",
"4. c #4C89BD",
"5. c #5287B3",
"6. c #518CBE",
"7. c #5F90B9",
"8. c #6190AE",
"9. c #6F9DBF",
"0. c #4B87C0",
"q. c #4788C2",
"w. c #4D8CC3",
"e. c #4E8DC8",
"r. c #518EC4",
"t. c #518FC8",
"y. c #4F91C5",
"u. c #4F90C9",
"i. c #5392C5",
"p. c #5394CC",
"a. c #5996CB",
"s. c #5598CD",
"d. c #5A99CE",
"f. c #5496D1",
"g. c #569AD3",
"h. c #5A9DD4",
"j. c #579DD8",
"k. c #599ED9",
"l. c #6B9AC2",
"z. c #729EC1",
"x. c #609DD3",
"c. c #5EA1D6",
"v. c #5CA2DC",
"b. c #5FA8DF",
"n. c #75A7CC",
"m. c #61A2D7",
"M. c #62A5DC",
"N. c #68A7DD",
"B. c #66A9DE",
"V. c #69AADE",
"C. c #7CB1DC",
"Z. c #5FA6E1",
"A. c #5EA9E3",
"S. c #60A6E1",
"D. c #64ABE3",
"F. c #6AADE3",
"G. c #6AAFE9",
"H. c #64B0E4",
"J. c #6CB1E6",
"K. c #6CB2E9",
"L. c #73B3E6",
"P. c #7AB4E2",
"I. c #7FB8E5",
"U. c #72B5EA",
"Y. c #78B7EA",
"T. c #76B9ED",
"R. c #7CBCED",
"E. c #7DBDF0",
"W. c #82B5E0",
"Q. c #83BCE4",
"!. c #80BEED",
"~. c #89BFEB",
"^. c #82BFF0",
"/. c #85C1EF",
"(. c #88C1EE",
"). c #85C2F2",
"_. c #8AC3F1",
/* pixels */
"K I W ~ o.O.#.<.1.1.6.i.i.y.6.i.a.i.i.a.d.a.s.a.a.i.i.i.i.i.4.6.1.,.#.@.( ~ U I ",
"I W ^ @.<.<.1.6.i.a.a.d.d.d.x.h.c.x.c.c.c.c.c.m.c.c.c.c.d.d.d.i.i.6.1.5.O.O.X.W ",
"~ o.O.<.6.r.a.d.h.x.m.M.M.M.N.B.D.B.B.V.J.F.B.H.B.V.F.B.M.M.m.m.c.d.a.i.4.<.O.~ ",
"o.O.1.i.a.h.h.M.M.N.F.F.F.J.L.L.L.L.L.Y.L.L.P.L.L.L.L.J.L.J.F.V.B.m.m.d.i.1.%.O.",
"#.<.r.a.h.M.V.F.G.G.U.L.U.Y.R.R.R.R.R./.R.!.E.!.R.R.R.T.Y.L.Y.L.J.V.B.m.x.i.1.<.",
"<.6.a.h.m.N.F.U.U.T.Y.R.R.!.^.^.-.M C Z n.(.).(.(.)./.!.R.R.Y.T.T.U.F.M.c.a.6.5.",
"1.i.h.c.N.F.G.U.U.T.E.^.^.^.^.z.M S } M S W._._._.).).).).E.T.T.T.J.J.V.m.c.i.1.",
"6.a.h.M.D.G.G.U.T.T.Y.7...l.P.A { (.(.Q.S { (.Q.I.(.).).!.E.E.T.T.L.J.H.M.d.s.6.",
"6.a.h.M.D.H.K.U.K.U.d 1 n w d w C.(.^.~.z.b ] B m ..P.R.!.E.T.T.U.K.K.D.M.c.s.6.",
"r.a.h.b.D.D.D.K.K.` * >.U.8.' 9.T.E.R.!.R.[ V :.:.w N L.T.U.K.K.K.K.D.D.M.g.s.6.",
"y.a.h.M.Z.D.D.D.5.# | J.K.K.K.U.U.U.T.U.U.L.L.U.K.>.< ;.J.K.K.G.D.D.D.M.b.d.a.6.",
"y.a.j.v.b.A.D.M.e ; A.D.D.F.D.H.G.F.F.G.F.F.F.F.H.J.r q D.D.H.D.D.D.Z.b.j.g.s.4.",
"r.a.d.v.v.b.Z.i.O P A.D.D.A.D.D.D.D.D.D.D.D.D.D.D.D.z $ b.D.A.D.S.S.Z.v.c.g.i.w.",
"i.p.g.j.c.v.b.U X 1.Z.Z.Z.b.Z.Z.Z.M.Z.A.b.Z.Z.Z.A.A. .@ h.M.Z.v.Z.Z.v.k.j.s.s.6.",
"w.p.g.j.v.v.v.6 ; v.M.v.v.c.v.Z.v.v.Z.v.Z.v.Z.v.b.c.O.$ s.v.Z.v.Z.v.v.j.g.a.p.w.",
"w.p.a.j.j.v.j.X e v.v.v.v.v.v.v.v.v.v.v.v.k.v.v.Z.v.O.@ a.v.v.v.c.k.k.j.j.a.i.w.",
"w.p.p.j.g.k.k.. a v.j.c.v.k.v.k.k.k.k.k.k.k.k.k.j.k. .o g.c.j.v.c.v.j.g.g.p.u.4.",
"w.i.p.g.g.g.k.  a k.j.j.j.j.j.j.j.j.j.k.j.j.k.k.j.j.O.X W j.j.j.j.g.h.f.f.f.y.4.",
"4.r.p.f.f.g.g.  i j.j.g.d.g.j.g.j.g.g.g.g.g.g.g.h.g.j.5   , L w.g.a.s.g.p.p.w.1.",
"4.r.u.a.f.g.g.  u g.g.g.a.g.g.f.g.f.g.g.g.g.g.f.g.a.s.4.l 4   - ( g.f.f.p.p.w.4.",
"3.w.i.p.f.f.p.& 6 f.f.f.f.f.f.f.a.f.f.f.f.f.f.f.p.g.g.f.a.a.,.  - p.u.p.i.w.w.4.",
"3.4.q.i.u.p.f.6 ; y.p.p.p.f.u.f.f.p.f.p.f.u.f.f.p.p.p.f.u.f.p.a $ f.f.u.y.w.w.3.",
"<.4.w.r.i.u.u.L . o.p.p.e.p.p.u.u.p.u.p.u.p.u.p.u.p.p.u.a.u.u.a $ u.p.t.r.w.4.3.",
",.4.q.w.r.y.u.o.  I w.u.p.e.e.p.e.u.e.u.u.u.u.e.u.u.u.u.u.u.1.o & p.w.r.w.q.0.<.",
"$.3.3.q.w.r.w.$.X a w.e.t.e.e.w.w.r.t.w.i.w.w.e.u.e.w.p.w.e.6 X J r.w.w.q.4.3.2.",
"#.,.3.3.4.w.w.4.; 3 w.w.w.q.4.e.e.q.e.r.q.q.e.e.q.e.w.w.w.a X U w.w.w.w.4.1.,.$.",
"@.$.,.3.4.q.w.4.u @ &.0.w.q.w.w.0.w.4.w.w.w.0.4.q.q.w.3.5   j q.q.q.4.3.3.2.2.$.",
"+.@.%.2.3.3.3.3.W X Q 0.4.0.3.0.0.3.q.3.q.3.q.q.4.4.3.5 . L 3.3.4.4.3.3.<.2.$.@.",
"( @.$.$.<.2.2.3.3.- 6 0.2.3.3.3.3.3.3.3.3.2.q.3.2.2.5 o Q 3.3.q.3.3.3.2.*.,.@.@.",
"( ) +.@.$.$.2.2.2.t   o.3.2.&.&.2.2.2.&.2.2.2.3.$.> X T ,.&.&.2.2.2.&.&.$._ +.+.",
"~ ( +.+.+.$.,.,.2.R X 7 2.,.&.2.2.,.*.&.2.,.,.&.4 X I &.,.&.&.,.$.$.$.$.#.@.+.~ ",
"W W / o.+.$.@.$.$.&.5 . ! _ q._ &.,.$.&.$.&.+.: X E ,.$.&.&.$.$.$.$.$.@.) ) ^ Q ",
"T E ~ / X.o.+.@.$.$._ = & T $.$.$.$.$.$./ g $ + G $.$.@.&.$.$.$.$.+.+.) ( ~ ! Q ",
"K I E Q ~ X.o.) _ +.+.o.% . 2 f j j p 5 $   3 ! @.$._ $.+.$._ +.) ( ( ~ ~ E R I ",
"F K I I Q Q ~ / ( ) X.( ~ u $ X X o . + 6 H ) ) ) _ +.) +.+.+./ ( ( ~ Q Q I K H ",
"j j F K K U Q Q ~ ~ / / / / / X.) / ( ) / ) ) ) ) / ) ) / / / / Q Q Q T K K J j ",
"h h j x H K K T T E ! Q ~ / / / / ~ / / ~ / ~ ! ~ / / / Q / ! ! Q I I K H F j j ",
"g g g j j D F F K K K T T T T T T T T T Q Q ! ! ! E T Q T T T K I I H j j h g g ",
"p p g g h j j D F G K K G T K T T T T T T I I T T T I T I K K K F F j j h g g g ",
"p p p g f g h j j j D k F F H K G K K K K K K K K K G G K G G H F j h h g g g p "
};
