/* XPM */
static char *bt____h_nyz_____ks_pft__yf_wky_o_______out[] = {
/* columns rows colors chars-per-pixel */
"40 40 156 2",
"   c #010203",
".  c #03090C",
"X  c #050D11",
"o  c #0A0B10",
"O  c #081116",
"+  c #0B131C",
"@  c #0D181C",
"#  c #0C1620",
"$  c #0F1A24",
"%  c #0F1E2C",
"&  c #121C26",
"*  c #111E2A",
"=  c #11212D",
"-  c #122534",
";  c #1C2832",
":  c #172639",
">  c #242D36",
",  c #1B2F48",
"<  c #1C3346",
"1  c #1C334A",
"2  c #1E394C",
"3  c #1C3850",
"4  c #203546",
"5  c #2A3642",
"6  c #2D3B48",
"7  c #233B53",
"8  c #2A3F50",
"9  c #2E4356",
"0  c #26425F",
"q  c #2A4359",
"w  c #354B59",
"e  c #3B4E5D",
"r  c #2B4961",
"t  c #274A6D",
"y  c #2A4C6D",
"u  c #2E516C",
"i  c #274D72",
"p  c #294D73",
"a  c #2B5275",
"s  c #2D547C",
"d  c #355A75",
"f  c #30557C",
"g  c #325D7E",
"h  c #435667",
"j  c #4A5760",
"k  c #4A5B66",
"l  c #4C5D6D",
"z  c #4D616C",
"x  c #51636F",
"c  c #466077",
"v  c #41607C",
"b  c #4F6678",
"n  c #2E5781",
"m  c #2F5983",
"M  c #2F5E8A",
"N  c #315C86",
"B  c #325E8A",
"V  c #366183",
"C  c #33628D",
"Z  c #3B668A",
"A  c #3C688B",
"S  c #356493",
"D  c #396594",
"F  c #356995",
"G  c #3A6994",
"H  c #356699",
"J  c #396698",
"K  c #366B9B",
"L  c #3A6C9C",
"P  c #3D729E",
"I  c #3C6EA1",
"U  c #3D6EA9",
"Y  c #3D72A5",
"T  c #3E73A9",
"R  c #54728A",
"E  c #5B778C",
"W  c #5D788D",
"Q  c #4B7492",
"!  c #5D7C93",
"~  c #5A7F9C",
"^  c #406FA3",
"/  c #4174A5",
"(  c #4579A6",
")  c #4175AA",
"_  c #437AAC",
"`  c #497EAF",
"'  c #447DB3",
"]  c #4A7FB1",
"[  c #477FB8",
"{  c #62829B",
"}  c #5681A3",
"|  c #5D8BAC",
" . c #4681B6",
".. c #4B84B5",
"X. c #4682BA",
"o. c #4985BC",
"O. c #4C89BE",
"+. c #518CBD",
"@. c #6286A0",
"#. c #678CA9",
"$. c #6D92AF",
"%. c #4A87C0",
"&. c #4D8BC3",
"*. c #4E8FCA",
"=. c #518EC3",
"-. c #518EC9",
";. c #4F91C6",
":. c #4F90C9",
">. c #5391C5",
",. c #5896C7",
"<. c #5394CB",
"1. c #5896CB",
"2. c #5698CE",
"3. c #5B9ACE",
"4. c #5496D0",
"5. c #569AD3",
"6. c #5A9DD5",
"7. c #579DD8",
"8. c #5A9FD9",
"9. c #6D9EC6",
"0. c #609FD4",
"q. c #5EA1D6",
"w. c #5CA2DC",
"e. c #5FA8DD",
"r. c #71A5CD",
"t. c #61A2D6",
"y. c #69A6D3",
"u. c #6AA9D5",
"i. c #62A5DC",
"p. c #67A9DE",
"a. c #6AABDE",
"s. c #73A8D0",
"d. c #7EAFD7",
"f. c #5EA6E1",
"g. c #5DA9E1",
"h. c #60A6E1",
"j. c #64ABE3",
"k. c #6AADE3",
"l. c #6AAFE8",
"z. c #67B0E7",
"x. c #6BB1E5",
"c. c #6DB2E9",
"v. c #73B3E6",
"b. c #73B5EA",
"n. c #78B7EB",
"m. c #75B9ED",
"M. c #7CBCEC",
"N. c #76BCF0",
"B. c #7CBDF1",
"V. c #83B8E0",
"C. c #81BEED",
"Z. c #81BFF1",
"A. c #85C0ED",
"S. c #89C1EE",
"D. c #84C2F1",
"F. c #8AC4F2",
/* pixels */
"B C G P / Q ' ....O.O.>.>.+.>.>.,.,.,.<.1.,.,.2.1.,.,.>.>.+.=.O.O...` ( P L Z C ",
"C G Y (  ...O.=.,.,.,.3.3.3.6.6.6.0.q.q.t.q.i.q.q.q.6.6.1.3.3.,.>.+.o...` ( P G ",
"L / ( ..+.>.,.2.q.q.t.t.e.i.u.p.p.a.p.a.a.a.a.a.p.p.a.p.i.i.t.t.q.3.,.>.....( L ",
"/ ( ..>.,.6.6.i.p.a.a.x.k.x.v.v.v.v.v.b.n.v.b.n.n.v.v.v.v.k.x.p.p.i.6.3.,.O.` / ",
"_ ..=.1.6.t.j.k.z.x.v.v.n.n.M.M.M.M.9.R b { s.M.M.M.M.M.n.v.v.c.x.x.u.t.3.,.....",
"..+.1.6.t.k.k.v.b.m.m.M.M.M.C.A.C.E z ! { E k #.C.D.A.B.C.M.M.n.b.v.l.i.t.,.+...",
"O.=.3.i.h.l.v.c.m.m.B.B.Z.Z.S.A.{ E S.S.F.F.S.x $.F.D.D.D.C.M.m.n.x.x.p.i.3.>.O.",
"+.,.6.i.k.l.l.b.m.N.m.B.M.A.C.r.j V.S.F.F.F.F.V.k C.F.A.B.M.B.m.m.v.x.z.e.q.1.+.",
"=.1.6.i.l.l.l.c.c.m.m.N.M.M.M.k @.A.D.C.F.F.A.D.! W Z.C.M.M.n.n.b.c.l.j.i.q.2.+.",
"=.,.8.i.j.l.j.z.c.c.c.b.y.| w c M.B.C.M.M.B.M.M.M.e h | a.b.b.c.x.l.l.g.i.6.,.+.",
"=.2.6.i.w.j.j.l.j.l.3.9 ; > Q k.c.n.n.b.b.b.v.b.b.u.v 6 > 9 j.c.l.l.j.i.q.6.>.>.",
"=.2.6.w.f.h.h.j.j.f.; d 6.j.l.z.a.l.x.x.x.k.l.k.l.k.z.j.6.q < j.j.j.g.w.w.5.<.O.",
"=.2.6.q.w.f.f.h.j.+.& i.j.j.j.j.j.j.j.j.j.j.j.l.j.j.g.j.p.j.+ ..h.h.f.w.q.5.>.=.",
">.<.5.7.w.w.w.w.g.r u g.g.w.f.g.g.g.f.h.f.f.f.h.f.e.h.j.g.w.q G h.f.w.8.6.5.>.O.",
"&.<.5.q.7.w.w.w.w.$ A w.w.w.w.w.i.w.w.e.f.w.f.w.f.w.w.w.e.w.g u f.8.w.6.7.2.<.;.",
"&.<.2.5.7.w.8.w.w.   .q.w.w.w.w.8.w.w.w.8.8.w.w.w.w.w.w.6.e.u g w.8.8.6.5.2.;.%.",
"&.<.2.5.7.8.8.6.8.  _ 8.8.8.8.8.8.8.8.8.8.8.8.8.8.8.8.8.8.8.< A 8.8.7.7.5.<.>.&.",
"&.>.<.5.5.5.6.8.8.  ( 6.7.7.8.7.7.7.7.8.7.8.8.5.8.8.7.7.6.8.. ..6.5.5.5.4.<.>.O.",
"O.=.<.2.5.5.7.7.5.X Z 6.5.7.7.5.5.5.5.5.5.7.5.5.5.7.4.6.5.( . 5.5.5.2.5.<.:.;.O.",
"O.=.-.<.4.2.4.4.5.4 y 2.5.5.5.4.5.5.5.5.5.4.4.5.5.5.5.5.5.4 7 5.5.5.2.4.<.<.&.O.",
"O.&.&.<.<.<.4.4.5.a < 2.5.4.<.4.5.<.4.4.4.4.4.4.5.4.<.4.-.@ G 5.4.4.<.<.<.;.&.O.",
"X.&.&.:.<.<.<.<.-.o.+ *.<.<.<.4.4.<.<.<.4.:.4.<.4.<.:.<.O.. <.<.4.<.<.:.;.&.O.o.",
" .O.&.&.<.:.<.-.<.<.X ] <.<.:.<.-.<.<.<.:.4.:.<.:.<.<.<._ $ <.<.<.:.:.>.&.&.O.O.",
" .O.O.&.&.&.<.*.*.>.= N *.*.-.:.*.-.*.*.:.:.*.*.*.*.:.-.a r :.:.;.:.;.&.&.&.O. .",
"' o.O.O.%.;.*.&.&.*.a : &.*.&.*.&.&.&.*.*.*.:.&.&.*.*.&.1 g >.&.;.*.&.&.O.O. . .",
"`  . .O.O.&.&.%.&.&./   &.&.&.&.&.*.&.&.%.&.&.*.&.&.&.&.o Y &.&.&.&.&.O.&.X. . .",
"_  . .o.O.%.&.O.*.O.&.% a O.&.%.%.&.*.%.%.%.%.&.O.%.&...  &.%.&.%.%.%.X.o. . .' ",
"T _  . .O.X.O.X.%.%.X.C + O.%.O.O.O.o.O.%.o.o.%.O.%.%.y $ %.%.%.%.O.%.O.o. .' _ ",
") _ _ ' X.X.o.X.X.O.%.X.O s %.%.X.o.X.O.X.%.X.%.o.%.X.- r X.%.X.o.o.o.X. . .` ) ",
"I / ) ' '  .X.X.X.X.X.X.s # X.X.X.X.X.X.X.X.X.X.X.X.T X K [ X.X.X.X.'  .' ' ) ) ",
"L P Y _ ` ' '  .[ X. .X.' + S X.[ X.[ ' X.X.X.X.X.X.C + [ %.[ X.' [ ' ' _ _ / Y ",
"D L I / Y ) ' '  .' ' '  .C O T T [ X.' X.%.T X.T  .# a T ' ' ' ' ' ' _ Y Y L L ",
"S F L I ^ ) ) _ ' ' ' ' ' ' 3 + T T X.X. .' ' ' T 1 % T ' ' ' ' ' T _ T I I L S ",
"B C F K L ^ U ) Y ) ' ) T ' T 1 + t T T ' T T M - % _ ' ' T _ ) T Y Y I L J S C ",
"m B B S D J L I Y Y T U ) ) ) T s + + % = = # X 7 I _ ) T T T Y Y I L L F S B N ",
"s s m N B D J J L L I I I I / T Y Y Y U Y Y T U Y Y Y Y Y I U L L J F C B N n s ",
"a a s n m B B C S F K K K L L H L I I I Y K L L I I L L L L F F S S B B m n s s ",
"i p p s s n m m B C B C S H H H J H S H D D K H H H F S S H S S C B N f s s p p ",
"t p p p p s n s m B B B B B C S C S S S S S C S S S C S S C N B N m s s p p p p ",
"t t t p p p s s s n n m m N N N M C m m B B B B M M M B M m m m n s s p p p p t "
};
