/* XPM */
static char *bt____wgy__ck__b_ghhend_a_p_dtam_______out[] = {
/* columns rows colors chars-per-pixel */
"40 40 162 2",
"   c #10222E",
".  c #142434",
"X  c #142738",
"o  c #18273C",
"O  c #162A3B",
"+  c #192C3C",
"@  c #1A303E",
"#  c #152E42",
"$  c #192C42",
"%  c #1F2E4B",
"&  c #1C3245",
"*  c #1D344C",
"=  c #1E394E",
"-  c #1F3B52",
";  c #233C4F",
":  c #2A3D4B",
">  c #213B54",
",  c #2C3E52",
"<  c #223D59",
"1  c #25425D",
"2  c #244562",
"3  c #2D4C65",
"4  c #284668",
"5  c #274A6D",
"6  c #2A4B6C",
"7  c #2D506E",
"8  c #355063",
"9  c #395060",
"0  c #274D72",
"q  c #294D72",
"w  c #2B5174",
"e  c #2D547C",
"r  c #2D597C",
"t  c #325475",
"y  c #30557F",
"u  c #345B78",
"i  c #40596D",
"p  c #435D76",
"a  c #2E5681",
"s  c #2F5983",
"d  c #2F5B8A",
"f  c #305782",
"g  c #315C85",
"h  c #325E8A",
"j  c #356186",
"k  c #3A6587",
"l  c #34618D",
"z  c #396689",
"x  c #356493",
"c  c #396694",
"v  c #366995",
"b  c #396995",
"n  c #376699",
"m  c #396799",
"M  c #366999",
"N  c #3A6C9C",
"B  c #3D729E",
"V  c #376FA0",
"C  c #3C6EA1",
"Z  c #3D71A4",
"A  c #3E74A9",
"S  c #3F7DB0",
"D  c #446F8F",
"F  c #506D82",
"G  c #557085",
"H  c #5A7485",
"J  c #53718B",
"K  c #5D768A",
"L  c #437097",
"P  c #4C7497",
"I  c #4C799A",
"U  c #5A7C95",
"Y  c #607B8E",
"T  c #627D94",
"R  c #4175A6",
"E  c #457AA7",
"W  c #4175AA",
"Q  c #437AAC",
"!  c #497EAF",
"~  c #437DB4",
"^  c #4A7FB1",
"/  c #457EB9",
"(  c #4A7EBA",
")  c #5E829A",
"_  c #64869D",
"`  c #5481A2",
"'  c #5D84A3",
"]  c #5484AB",
"[  c #4681B5",
"{  c #4B83B4",
"}  c #4682BA",
"|  c #4985BC",
" . c #4C89BD",
".. c #5288B6",
"X. c #5C89B0",
"o. c #508DBE",
"O. c #6385A0",
"+. c #6289A6",
"@. c #608DAE",
"#. c #7092AD",
"$. c #6D96B4",
"%. c #719DBE",
"&. c #4A86C1",
"*. c #4D8BC3",
"=. c #4F8DC9",
"-. c #518EC3",
";. c #528FC8",
":. c #4E91C5",
">. c #4F90C9",
",. c #5392C5",
"<. c #5394CB",
"1. c #5896CB",
"2. c #5598CE",
"3. c #5B99CE",
"4. c #5496D0",
"5. c #5997D0",
"6. c #569AD3",
"7. c #5A9DD4",
"8. c #579CD9",
"9. c #5A9ED9",
"0. c #5EA1D5",
"q. c #5CA3DC",
"w. c #5FA8DF",
"e. c #6DA7CF",
"r. c #75A1C4",
"t. c #74A5CB",
"y. c #7AA6CB",
"u. c #7DABCF",
"i. c #61A2D7",
"p. c #6CA6D4",
"a. c #63A5DB",
"s. c #68A7DC",
"d. c #66A9DE",
"f. c #6BABDD",
"g. c #76AEDD",
"h. c #7BAEDB",
"j. c #5FA6E1",
"k. c #5EA9E1",
"l. c #61A6E2",
"z. c #64AAE3",
"x. c #6AADE4",
"c. c #66AEE8",
"v. c #6AAFE8",
"b. c #70AFE5",
"n. c #65B0E7",
"m. c #6CB1E6",
"M. c #6DB2E9",
"N. c #72B3E6",
"B. c #7EB4E2",
"V. c #72B5EA",
"C. c #78B7ED",
"Z. c #76B9EC",
"A. c #7CBBED",
"S. c #7EBDF1",
"D. c #80B3DD",
"F. c #81BCEC",
"G. c #89BFEB",
"H. c #81BFF1",
"J. c #86C2EF",
"K. c #88C0EF",
"L. c #84C1F1",
"P. c #8AC5F3",
/* pixels */
"h l c B R E ! { .. . .o.o.,.,.,.,.,.,.1.<.1.2.1.,.1.,.,.,.o.-. . .{ ! E B N c l ",
"l b B E Q {  .-.,.1.1.2.2.7.7.0.i.0.i.0.0.0.i.0.0.0.0.2.3.3.1.1.,.o. .{ E E L b ",
"N R E { o.-.,.3.3.0.i.i.a.a.p.d.f.d.d.f.f.m.z.z.f.x.d.d.a.i.a.i.7.3.1.,...! E N ",
"R E ..:.1.7.7.a.a.d.m.x.m.N.N.N.N.V.N.N.A.N.N.B.V.N.N.N.N.x.x.f.f.i.0.3.<. .^ R ",
"! { -.1.0.i.f.x.m.M.V.M.Z.Z.A.A.A.A.F.F.A.F.F.F.A.A.A.A.C.B.V.m.m.x.f.i.0.o.| ] ",
"{ o.1.7.i.z.v.b.M.Z.A.A.A.A.A.L.L.L.F.y.) %.F.F.L.J.H.S.A.A.A.Z.V.m.x.a.0.1.o.{ ",
" .,.3.i.l.c.b.V.V.Z.A.S.F.J.J.J.D.%.K Y #._ H #.D.J.J.L.S.A.A.Z.Z.M.m.f.i.0.,. .",
"o.,.7.s.z.v.M.V.Z.Z.A.A.S.A.t.+.H T t.P.P.P.D._ H O.t.B.L.S.S.A.Z.N.m.n.0.0.1.o.",
"-.1.7.a.z.c.m.M.M.V.Z.x.@.J p ) t.K.J.L.K.K.L.L.h._ G G ' e.Z.Z.V.m.M.z.a.0.1.o.",
"-.1.0.a.z.c.c.m.M.M.] 8 i ` g.A.A.H.A.A.J.A.F.A.A.S.g.X.p 9 P f.M.v.c.d.a.6.2.o.",
"-.2.7.w.j.c.z.c.c..., I a.m.V.M.M.m.V.V.V.V.V.V.M.V.m.M.n.] : D c.c.z.w.0.6.2.:.",
"-.2.7.0.q.j.z.z.c.3 u x.c.c.c.x.m.m.x.m.c.m.x.v.c.m.m.c.c.c.L ; i.l.l.9.0.7.>. .",
"=.<.6.0.q.q.k.j. .@ E c.k.c.l.z.z.z.l.c.z.z.z.z.z.z.z.k.z.z.,.; E k.0.j.0.6.,.*.",
",.<.6.q.q.0.w.q.k 1 j.j.a.q.j.j.k.k.l.w.j.j.q.j.q.j.k.w.q.w.j.7 3 q.q.q.7.3.<.o.",
":.<.6.7.q.q.q.1.; k w.q.q.q.q.j.j.q.q.q.j.j.q.q.q.j.q.q.w.q.q.Q & { q.q.6.2.<.*.",
"-.,.3.6.6.q.q.A + ,.0.q.q.q.q.9.9.q.q.q.9.q.q.q.q.q.q.q.q.q.0.w.- z 8.7.6.2.>. .",
"*.;.2.6.6.7.7.t 6 0.8.q.8.9.8.9.9.q.8.0.0.9.9.q.9.q.0.9.q.9.9.q.z = 2.7.2.2.,.*.",
"*.<.<.5.6.6. .+ { 8.7.7.8.0.8.9.8.7.8.8.8.8.8.8.8.7.8.7.8.7.7.8.2.. E 6.2.>.-. .",
"o.-.4.4.6.6.j & 6.8.7.6.8.6.6.6.7.6.7.6.6.6.6.6.6.6.6.6.6.6.6.6.8.1 4 2.2.;.:. .",
"| -.>.4.2.2.& c 6.6.6.2.6.6.6.6.6.4.6.6.6.4.6.6.6.6.6.4.6.4.6.6.2.[ O 2.4.<.*. .",
"|  .,.<.<.2.. ,.4.4.6.4.4.4.4.4.4.4.4.4.4.4.4.4.4.4.2.6.4.4.4.4.2.<.+ 2.:.<. .| ",
"| *. .=.<.<.* t 4.>.>.4.2.>.2.>.4.>.4.4.4.>.4.4.>.2.>.<.>.2.6.>.2.A O >.,.*. . .",
"}  .*.:.:.<.z X >.>.>.4.>.2.>.<.>.>.<.>.>.4.>.>.>.2.<.>.<.>.>.>.2.- 6 :.=. . .| ",
"{ |  .*.*.<.[ O B >.:.>.>.=.>.>.>.>.>.>.>.>.=.>.>.>.>.>.>.>.>.>.[ . L =.*.*. .} ",
"~ | | &.*.:.&.7 > -.=.=.=.=.*.:.=.*.=.>.*.=.=.=.=.=.=.=.*.*.:.=.7 >  .*.*. .| [ ",
"Q [ |  . .*.=.B . E *.*.*.&.*.=.*.=.*.*.*.*.*.*.=. .*.*.*.=.*.| & j &.*. .| | ~ ",
"Q [ [ | |  . .} * 6  .*.&.*.*.&.&.*.*.*.*.&.*.*. .*.&.*.*.*.&.j X A |  .| } } ~ ",
"W Q [ [ |  .| | g # ~  .&. .| &.| | |  .| | &.&.&.| |  .&.&.| < 1 | | | | [ ~ Q ",
"R W Q [ [ } | } A O g } } | | | | | | } | | } | } | &.| | } B O x | | | } ~ ~ W ",
"Z A Q Q ~ } } } } < = | } / &.} | } | } } } } } } } } | } } 5 O [ / } ~ ~ Q W R ",
"N B W W ~ Q ~ } / N O 2 v } ( } } } [ } / } } } } } [ / Z q   e ~ [ / ~ ~ E Z Z ",
"b m C C R W ~ ~ ~ ~ l * . * d ~ S / / S / / S / S ~ v > . # r ~ ~ ~ ~ W R R Z m ",
"x v N C R W W W ~ ~ ~ ~ h < # X q ~ / ~ ~ ~ ~ / e # . > g R ~ ~ ~ Q A A C C m v ",
"h l v M m R R A A W ~ W W ~ m q $   - C S A 2 X o 4 v W / W W W A Z Z C N v x l ",
"s h h x c m N C C C A W R W W W N g * . % . $ q C W R A A A A Z Z Z N m n x h f ",
"e e s g h x c m N C C C C C C A A C Z C C A C A A C A A C C C V m m x x h h f a ",
"w w a f f d h x x v n v M C C n N N C N N C N N n C V N N n n n v x h g g a a w ",
"0 q q e e a s s d l l x x x x n v n n n n b M M n n n n n v x x l h g e e e q q ",
"0 5 q q q e a a s d d h h l h x l x x x x x l x x x x x x x h g g s e e w q q q ",
"5 5 5 q q q w e e a s a s d g g d h h d h d h d h h g g s s s s a e e q q q 5 5 "
};
