/* XPM */
static char *bt____iwrqgq_o_mkzl_o__dig__e__v_______out[] = {
/* columns rows colors chars-per-pixel */
"40 40 149 2",
"   c #010001",
".  c #030408",
"X  c #040809",
"o  c #060D12",
"O  c #091016",
"+  c #0D161D",
"@  c #0E1B24",
"#  c #111B25",
"$  c #12212D",
"%  c #142433",
"&  c #172937",
"*  c #16273B",
"=  c #16293B",
"-  c #192B3D",
";  c #20313B",
":  c #172E43",
">  c #192D45",
",  c #1C3146",
"<  c #1C334B",
"1  c #1D394E",
"2  c #1E3C55",
"3  c #253A4D",
"4  c #223E55",
"5  c #223D5A",
"6  c #334752",
"7  c #394958",
"8  c #244563",
"9  c #284563",
"0  c #2B4963",
"q  c #24446A",
"w  c #274B6E",
"e  c #29496C",
"r  c #344D64",
"t  c #2E516F",
"y  c #274C71",
"u  c #294D72",
"i  c #2D4E78",
"p  c #2A5175",
"a  c #2D547B",
"s  c #2C587D",
"d  c #345773",
"f  c #355A76",
"g  c #30557F",
"h  c #335A7C",
"j  c #2E5681",
"k  c #2E5A83",
"l  c #315B85",
"z  c #325E8A",
"x  c #2D608B",
"c  c #3B6586",
"v  c #34628D",
"b  c #38658E",
"n  c #3F6B8E",
"m  c #356493",
"M  c #396693",
"N  c #356995",
"B  c #3A6995",
"V  c #376798",
"C  c #366999",
"Z  c #3A6C9C",
"A  c #3D719D",
"S  c #3C6EA3",
"D  c #3D71A4",
"F  c #3F79A6",
"G  c #3E74A9",
"H  c #406488",
"J  c #466D8A",
"K  c #4B6D88",
"L  c #457397",
"P  c #43729A",
"I  c #4C7A9C",
"U  c #527690",
"Y  c #587A96",
"T  c #517A9A",
"R  c #4174A5",
"E  c #4178A1",
"W  c #4979A1",
"Q  c #4175AA",
"!  c #437AAD",
"~  c #487DAF",
"^  c #4377B1",
"/  c #447DB4",
"(  c #497EB3",
")  c #5E809B",
"_  c #4481AE",
"`  c #4E81AB",
"'  c #5481A2",
"]  c #5185AD",
"[  c #4581B6",
"{  c #4A83B4",
"}  c #4B88B7",
"|  c #4681B9",
" . c #4985BC",
".. c #4C89BE",
"X. c #5487B2",
"o. c #588DB7",
"O. c #508CBE",
"+. c #6087A4",
"@. c #6492B6",
"#. c #4A87C0",
"$. c #4D8BC3",
"%. c #4E8ECB",
"&. c #518EC3",
"*. c #518EC8",
"=. c #4E90C6",
"-. c #4F90C9",
";. c #5391C6",
":. c #5896C7",
">. c #5394CB",
",. c #5897CC",
"<. c #5598CE",
"1. c #5A99CF",
"2. c #5496D1",
"3. c #5F97D2",
"4. c #569AD3",
"5. c #5A9DD5",
"6. c #579CD8",
"7. c #599EDA",
"8. c #709DC6",
"9. c #609FD3",
"0. c #5EA1D5",
"q. c #5CA2DC",
"w. c #6DA2CD",
"e. c #72A4C7",
"r. c #62A2D5",
"t. c #6AA7D4",
"y. c #63A5DC",
"u. c #66AADE",
"i. c #68AADF",
"p. c #74A9D6",
"a. c #72ADDB",
"s. c #5FA5E0",
"d. c #60A6E1",
"f. c #64ABE4",
"g. c #6AAEE4",
"h. c #6AAFE8",
"j. c #6CB1E6",
"k. c #6DB2E9",
"l. c #73B3E6",
"z. c #73B5EA",
"x. c #76B9ED",
"c. c #7CBCED",
"v. c #7DBCF0",
"b. c #80BEEE",
"n. c #89BFEE",
"m. c #82BFF0",
"M. c #85C2EF",
"N. c #84C2F0",
"B. c #8AC4F2",
/* pixels */
"z v B A R R ( { } } O.O.;.;.;.;.:.;.:.:.:.,.,.,.:.>.:.;.;.&.O.O.} } ! ! P Z m v ",
"v B A R _ { O.&.:.:.:.<.1.4.5.1.5.0.0.0.0.r.0.0.r.5.9.9.<.1.1.;.<...} { _ P A B ",
"Z P ! { ..;.:.,.1.0.r.0.y.t.u.u.i.i.i.i.l.i.g.i.g.g.u.y.y.y.r.y.5.1.;.&...( R A ",
"E ~ } &.:.3.5.y.u.u.j.j.j.j.l.l.l.l.l.z.l.l.l.x.l.l.j.l.i.g.w.y.u.3.9.9.:.X.( R ",
"~ { &.,.5.r.g.g.j.k.k.z.x.x.c.c.c.c.b.c.b.b.b.c.b.c.c.p.7 K 6 r J r ; d c :..._ ",
"{ O.:.5.y.i.g.k.k.x.x.x.c.c.c.v.m.M.M.B.B.n.M.B.n.M.b.p.U a.a.w.t.i.o.X.f ,.O.} ",
"O.;.5.0.d.g.k.z.x.x.c.c.b.b.N.N.B.B.B.B.B.B.B.B.B.B.M.e.' v.c.x.x.z.g.] f 9.:.} ",
"O.;.3.y.g.h.h.z.x.x.c.c.b.b.N.N.N.B.B.B.B.B.B.B.B.M.B.e.+.v.c.c.x.z.j.' d 5.:.O.",
"&.:.5.y.f.k.k.k.k.x.x.x.c.c.v.N.M.M.N.N.B.B.M.M.m.M.c.w.Y c.x.z.z.k.j.` c 0.<.O.",
"O.,.0.d.f.f.f.k.k.k.k.k.x.x.x.c.c.c.c.c.c.c.c.c.c.c.v.@.' x.z.k.j.j.f.W J 5.,.O.",
";.<.5.q.q.f.f.h.f.h.k.k.h.k.k.k.z.z.z.z.l.x.z.l.k.z.k.T I k.j.k.j.f.s.f B 5.,.$.",
";.<.5.q.s.s.f.f.f.h.f.f.f.h.h.h.f.k.g.j.g.j.j.j.h.g.h.L P y.f.0.q.f.q.d P 5.-.$.",
"$.<.<.q.q.q.s.d.s.s.s.s.s.s.s.s.f.f.d.f.f.f.f.f.f.d.f.$ 3 0 0 ; & h e   ..5.:...",
";.;.4.q.q.q.q.q.s.s.s.s.s.s.s.s.s.d.d.d.d.d.d.d.q.u.% d :.q.<.4.;.;.,.{ 5.4.-.O.",
"=.>.<.0.q.q.q.q.s.s.s.s.s.s.s.s.s.q.s.q.s.q.s.q.s.@ v q.s.q.q.q.q.0.0.q.4.<.=.=.",
"$.>.<.4.5.q.6.q.s.s.q.q.s.s.q.q.q.q.q.q.q.q.q.q.O A q.0.q.s.q.q.q.6.q.5.4.<.>...",
"$.;.2.2.5.5.7.7.q.q.6.q.q.6.q.6.q.7.q.6.6.q.4.X _ 5.6.q.6.q.q.6.6.6.6.5.2.<.;.#.",
"$.>.>.,.6.5.5.6.6.6.6.5.5.6.5.q.5.6.4.5.6.&.  ..5.5.6.0.5.6.6.5.5.4.5.5.2.-.;...",
"..;.>.<.2.2.4.4.2.5.4.5.6.4.6.2.4.4.5.4.}   <.6.6.6.4.4.5.6.6.4.6.2.<.2.>.>.=...",
"..=.>.>.2.2.2.6.4.2.4.2.4.2.2.2.4.4.4.!   2.,.4.5.4.<.4.4.2.4.4.4.2.<.<.<.-.$...",
" .$.=.>.>.>.<.2.2.-.2.4.2.2.2.<.2.4.A   ,.2.4.2.<.<.,.2.<.2.2.2.>.2.<.<.;.;.$. .",
" ...$.=.>.>.>.-.2.2.>.>.>.2.,.2.,.v   <.2.>.-.>.2.2.-.>.-.2.-.<.<.>.%.-.-.$.....",
"[ ..$.=.=.>.>.-.-.>.-.2.-.-.>.>.l   >.-.%.>.>.>.%.>.>.>.%.>.>.-.>.>.-.;.=...$. .",
"[  .....%.&.=.%.%.>.-.-.*.-.*.t . ;.=.=.%.%.%.%.-.%.%.&.>.=.-.-.=.=.%.$.$.$...[ ",
"[  . .#.$.$.$.&.$.%.$.%.%.$.9 o $.%.=.=.%.%.%.%.%.$.%.$.&.%.&.$.%.$.=.$.....[ [ ",
"! [  . .#.$.$.=.$.$.$.$.$.4 + #.$.$.$.=.$.#.#.$.$.$.$.%.$.$.$.$.#.%.........[ [ ",
"! [ {  . . .#.....$.#..., $ $.$.#.#.$.#.#.#.$.$...$.#.#.$.$.#.#.#.#.#...| | [ / ",
"R / / # 4 t 8 < u l 4 $ : $. . .#.#. .#. .#.#.#. . ... . . .#.#.#... . . .[ / ! ",
"G F R X C m l p s v s o #.| #.| |  . . .#.| #.| | #.G #. . .| #. . . .| [ / ! ! ",
"D R Q : [ [ [  .| | | & | | #.| | | | | | | | | | #.#.#.|  .| / | | / [ / ^ ! Q ",
"Z D l - ! / [ / | | Z = | | | | / | | | #.| | | G #.#.| #./ / #./ / / / / R R D ",
"M Z k - Q ! ! / / / F $ / / | | G | | / | G | | G | G #.G / / / / / / ! Q R Z Z ",
"v V v : D D G ! ! / G < / / / / / / / / / / / / / / / G / / / / ! ! G G D Z C B ",
"z v y 2 S S Q F G ^ v 2 ! ^ / F ^ / ^ / / F / / ^ ^ G / / G G ^ G G D A C V m v ",
"k k 8 , m V Z S Z R v = Q G G G G Q G G G G Q G Q G ^ G G S G S D S Z Z V m v k ",
"s a 5 $ > 5 5 5 < q 9 * S S G G S D G S G G D S G G G G S S S S Z B m m v k k a ",
"p a w 5 : 2 q 2 1 5 2 N V Z Z Z S C S S S S C S S C S C C S C N V v v l l k a p ",
"u u i p s k l l v x m m m m V m V N m N V V N V C C m m m m m m v z l j a i p i ",
"w y e p i a p j k z z z z z v v z m m m z m m m m m v m m z z z l k a p i u y u ",
"e e w y y u i a i a j l k l l l z l z z z z z z z z z z l l l k j a p i i y y q "
};
