/* XPM */
static char *bt______eon__hy_ossi__xox_r_scla_______out[] = {
/* columns rows colors chars-per-pixel */
"40 40 151 2",
"   c #010103",
".  c #04060A",
"X  c #04080B",
"o  c #090C0E",
"O  c #070E14",
"+  c #090D10",
"@  c #0B0D19",
"#  c #0B1014",
"$  c #0B131B",
"%  c #131416",
"&  c #12191F",
"*  c #0D1620",
"=  c #0E1B24",
"-  c #121C25",
";  c #121E2A",
":  c #14222D",
">  c #142533",
",  c #192732",
"<  c #152837",
"1  c #16293C",
"2  c #1B2D3D",
"3  c #20272F",
"4  c #2A2F33",
"5  c #252F38",
"6  c #24313B",
"7  c #182E43",
"8  c #1C3246",
"9  c #1E354A",
"0  c #1E394F",
"q  c #22394B",
"w  c #333D47",
"e  c #213A50",
"r  c #2B3D51",
"t  c #354046",
"y  c #39434C",
"u  c #28445C",
"i  c #394A5A",
"p  c #264461",
"a  c #274965",
"s  c #284C66",
"d  c #274A6E",
"f  c #2A4C6D",
"g  c #335267",
"h  c #31516A",
"j  c #274D72",
"k  c #294D73",
"l  c #2C5175",
"z  c #2D547C",
"x  c #315576",
"c  c #30557F",
"v  c #335A7D",
"b  c #415462",
"n  c #425865",
"m  c #416178",
"M  c #2E5781",
"N  c #2F5983",
"B  c #315C86",
"V  c #325E8A",
"C  c #3B6386",
"Z  c #34628D",
"A  c #386489",
"S  c #3B688E",
"D  c #356493",
"F  c #396593",
"G  c #356896",
"H  c #3C6B96",
"J  c #376798",
"K  c #396798",
"L  c #376A99",
"P  c #3A6C9C",
"I  c #3E719C",
"U  c #3C6EA2",
"Y  c #3D71A4",
"T  c #3F75A9",
"R  c #3E78AA",
"E  c #506A83",
"W  c #517085",
"Q  c #42739C",
"!  c #527591",
"~  c #537A99",
"^  c #4174A5",
"/  c #4279A2",
"(  c #487DA5",
")  c #4175AB",
"_  c #437BAD",
"`  c #497EAF",
"'  c #447DB4",
"]  c #4A7FB3",
"[  c #437EB8",
"{  c #4A81AF",
"}  c #4581B5",
"|  c #4B84B5",
" . c #4B88B7",
".. c #4682BA",
"X. c #4985BC",
"o. c #4D89BD",
"O. c #558AB4",
"+. c #518CBD",
"@. c #4A87C1",
"#. c #4788C1",
"$. c #4D8BC3",
"%. c #4E8DC9",
"&. c #518FC3",
"*. c #508EC9",
"=. c #4F91C6",
"-. c #4E91CA",
";. c #5392C6",
":. c #5394CB",
">. c #5996CC",
",. c #5598CE",
"<. c #5A9ACF",
"1. c #5496D1",
"2. c #5896D1",
"3. c #569AD3",
"4. c #5A9CD4",
"5. c #579DD9",
"6. c #599ED9",
"7. c #6697C2",
"8. c #6499C1",
"9. c #649DCA",
"0. c #609FD3",
"q. c #57A0D7",
"w. c #5EA1D5",
"e. c #55A0DA",
"r. c #5CA2DC",
"t. c #62A1D6",
"y. c #62A5DB",
"u. c #68A7DC",
"i. c #66A9DE",
"p. c #69AADF",
"a. c #70ADDA",
"s. c #5EA6E0",
"d. c #61A6E1",
"f. c #64AAE4",
"g. c #6AADE3",
"h. c #64AFE9",
"j. c #69AFE8",
"k. c #72AFE5",
"l. c #6CB1E6",
"z. c #6DB3EA",
"x. c #73B4E7",
"c. c #73B5EA",
"v. c #79B7E8",
"b. c #76B9EC",
"n. c #7CBCED",
"m. c #7EBDF0",
"M. c #80BEED",
"N. c #82BFF1",
"B. c #85C1EF",
"V. c #84C1F1",
"C. c #8AC4F2",
/* pixels */
"V Z H P ^ ^ ` |  . .o.+.;.;.;.;.>.;.;.>.>.>.,.>.:.:.;.;.;.;.+. .X.| { / Y P F Z ",
"Z H I ) { |  .&.;.>.<.<.<.<.<.4.0.w.w.w.w.w.t.w.0.w.0.w.4.>.>.>.>.+. . .( / P F ",
"P ^ ( | +.;.>.>.<.w.t.t.y.t.u.u.p.i.p.p.f.p.p.g.p.p.i.u.y.y.y.t.w.>.>.;. .` ^ Q ",
"Q _  .&.>.4.4.y.y.i.l.l.l.l.x.x.x.x.x.v.v.v.x.v.v.x.z.l.x.l.p.i.u.t.4.<.:.+.] ^ ",
"( | &.>.4.t.f.g.l.z.c.x.x.n.n.n.n.n.n.M.M.n.n.M.n.n.n.n.v.c.x.x.l.g.u.t.0.;. .{ ",
"| +.>.4.t.f.g.x.z.b.b.b.n.n.n.N.B.M.B.C.C.C.C.C.C.B.M.M.n.n.n.c.z.z.l.u.w.<.+.| ",
" .;.2.y.d.g.x.c.b.b.b.m.n.M.V.V.C.C.C.C.C.C.C.C.C.B.C.C.C.y g { 8.9.u.f.t.<.;.O.",
"+.>.4.u.f.j.z.z.b.b.b.n.B.B.V.V.V.C.C.C.C.C.C.C.C.B.C.C.m t ! y 4 , 6 g C O.,.+.",
"&.>.4.y.f.l.l.l.z.b.b.b.b.m.m.V.V.B.V.V.C.B.B.B.M.V.M.W w a.b.b.x.t.O.h & : :  .",
"&.>.w.r.f.f.j.j.z.z.z.b.b.b.b.b.b.n.n.m.n.n.n.n.n.b.b 4 8.b.z.c.z.j.j.i.w.( # o.",
";.>.4.r.s.f.f.j.j.h.h.j.z.z.z.c.c.c.v.c.v.b.c.v.c.m 6 l.k.z.j.j.j.f.f.y.r.u , ;.",
";.,.4.r.s.d.f.d.f.f.f.j.f.j.j.j.j.j.g.l.j.g.l.j.r % 0.j.j.f.f.h.f.f.s.d.4.X Q  .",
"$.,.4.q.r.y.s.d.d.s.s.d.f.d.d.d.f.f.f.d.f.f.f.0 # s.f.s.f.f.f.d.d.d.r.r.{ X +.=.",
";.:.4.q.r.r.6.s.s.s.s.s.d.s.s.s.s.f.y.d.s.r.6 o r.f.r.f.s.r.s.s.s.r.r.4.a : ,.o.",
"$.:.,.q.6.r.r.s.s.s.s.s.s.s.r.r.r.5.r.s.r.+    .r.i.r.r.s.r.s.r.y.w.e.q.# I -.$.",
"=.;.,.3.4.6.6.r.s.e.r.6.r.r.r.r.r.r.r.r.6 = r.r.r.e.r.r.r.r.e.r.r.r.e.;.  +.;.$.",
"$.-.,.3.5.4.6.e.r.e.6.6.r.e.e.e.r.6.:.: $ :.6.6.6.r.4.e.q.r.4.6.e.e.4.x + :.;.o.",
"$.;.>.2.3.4.4.4.4.5.4.5.4.6.>.| I > X : 4.5.4.6.e.2.6.5.6.6.4.F q     o  .:.&.o.",
"$.&.:.2.3.3.3.3.3.2.4.+.| 8 o   - f _ 4.3.3.5.2.4.3.5.,.A q     ; S _ ,.:.;.=.o.",
"X.%.&.:.3.:.4.;._ C > .   > f 1.3.3.,.3.3.3.3.3.v 9     + p H o.3.,.,.:.3.&.%. .",
" .$.=.;._ P 2 X   > a ( :.:.3.1.,.,.1.:.3.k 1   . > I  .1.1.,.1.1.1.:.:.;.%.$. .",
" .@.+.B .   8 l :.:.1.:.1.1.1.1.:.1.:.:.X . x H ..1.:.:.:.:.:.:.:.1.1.-.=.%.$.o.",
"..o.$.0 9 ;.-.-.:.-.:.*.-.-.>.;.:.-.:.@ $ :.:.:.-.:.-.-.-.-.-.:.;.;.=.&.%.@.$. .",
"'  .o.X P -.;.=.%.;.%.%.%.-.%.-.%.X.X = ;.*.%.-.=.-.;.-.-.-.-.-.%.-.;.%.$.o.X...",
"'  .'   | $.$.%.%.%.%.%.%.%.$.=.'   $ o.$.%.%.%.%.%.%.&.$.*.$.$.%.%.$.$.o.o. .} ",
"' [ k $ X.$.%.$.$.$.$.@.$.o.$.$.o 2 %.%.%.$.$.%.$.$.$.$.$.$.$.$.$.$.o.o.@.X...' ",
"_ ' . v X.o.o.o.$.@.@.@.$.o...  > o.#.$.o.@.@.@.o.$.o.$.$.@.$.$.$.@.$.X.X...} ' ",
"T P   ] X.X.#. .@.@.X.@.X...X 2 X.#.X.X.X.o.#.X.X.X.X.@.X.X.@.@.X.o.X.X. .} ' _ ",
") s $ ' ..| ..X.X.[ X.#.Y   > X.@.X...X.X.X.X.X.X.X.X.X.X.X.X.@.X.X.X...} ' _ _ ",
"U * > k P ' [ X.X. .X.U   7 [ ...... .........X.........X.[ ..[ ....[ } ' ' ) ) ",
"P 1 - . X * 8 Z Y } ..X 0 } [ ....} [ ..} } ..........[ ....[ ..[ ' ' ' ' _ ^ Y ",
"D U U F Z p > * . 8   8 ' [ [ [ [ ..' [ [ [ [ } ' ' [ ' ' ' [ ' ' ' _ _ ^ Y P P ",
"D D P U U ) ) _ P z F ' ' ' ' R ' ' ' [ ' ' [ ' ' [ ' R [ [ R [ ) ) ) ) U U J F ",
"B D D L U U ) ^ R ) ' ) ) ' ' ' ' [ ' R ' ' ' [ ) ' R ' R R R [ R T U U P J D Z ",
"N V V D F K U U U U ) ^ ) ) ) ) R T T T Y ) ) ) ) T ) ) T Y Y U U U U K K D V M ",
"z z B B V F F K P U U U U U U Y Y U Y U U Y U Y T Y Y Y U U U U U K D D V B B M ",
"l l z M B B V Z G G L G K K U P J U U U U U U L U U U U J J J J D D V B M M z l ",
"j k k z z M N B V V V Z D J G D D D G G D J G G J J J D J D J D V V B c c z l k ",
"d k k k k z M M M V V V V V Z Z D D D D D D D D D D V D D V V V B M M z k k k d ",
"d d d d k k k z z M M M N V N V V N V V V V V V V V V V M V N N M z z k k k k d "
};
