/* XPM */
static char *bt____nwxh_mfi_fuqvb_doq_ecppcyy_______out[] = {
/* columns rows colors chars-per-pixel */
"40 40 138 2",
"   c #080F15",
".  c #0B141D",
"X  c #0D1520",
"o  c #0B1820",
"O  c #0F1E2B",
"+  c #111F2B",
"@  c #11212D",
"#  c #152534",
"$  c #1C2A35",
"%  c #1B2A3A",
"&  c #1A2F42",
"*  c #1E3446",
"=  c #1E374D",
"-  c #1E384E",
";  c #1E3B56",
":  c #21374C",
">  c #21394C",
",  c #223C55",
"<  c #293F54",
"1  c #243E5B",
"2  c #2D4351",
"3  c #23405B",
"4  c #2A455A",
"5  c #3F515F",
"6  c #294763",
"7  c #254866",
"8  c #2B4A67",
"9  c #274A6E",
"0  c #2B4C6D",
"q  c #314B62",
"w  c #385263",
"e  c #38596C",
"r  c #274D72",
"t  c #294D73",
"y  c #2B5175",
"u  c #2D547B",
"i  c #2F5A7D",
"p  c #325575",
"a  c #32567E",
"s  c #335A7C",
"d  c #4F6273",
"f  c #576C7D",
"g  c #2E5781",
"h  c #2F5983",
"j  c #315C86",
"k  c #325E8A",
"l  c #366184",
"z  c #3B6281",
"x  c #33618D",
"c  c #356493",
"v  c #396695",
"b  c #356996",
"n  c #3A6995",
"m  c #366799",
"M  c #396798",
"N  c #376A9A",
"B  c #3A6C9C",
"V  c #3C729F",
"C  c #3B6EA1",
"Z  c #3B6FA8",
"A  c #3E71A4",
"S  c #3E75A9",
"D  c #3D79AB",
"F  c #4D6780",
"G  c #4B6983",
"H  c #446B8A",
"J  c #516F87",
"K  c #587386",
"L  c #5B798E",
"P  c #537692",
"I  c #5E7C94",
"U  c #5B7F9F",
"Y  c #627D92",
"T  c #4174A5",
"R  c #4175AA",
"E  c #437AAD",
"W  c #497EAF",
"Q  c #4377B0",
"!  c #447DB4",
"~  c #4A7FB1",
"^  c #477FB9",
"/  c #628096",
"(  c #5F82A0",
")  c #4581B6",
"_  c #4A83B5",
"`  c #4B88B7",
"'  c #4682BA",
"]  c #4985BC",
"[  c #4C89BD",
"{  c #518CBF",
"}  c #678CA9",
"|  c #688DAA",
" . c #6B93AD",
".. c #4783C0",
"X. c #4A87C0",
"o. c #4D8BC3",
"O. c #4E8EC8",
"+. c #518EC4",
"@. c #528FC8",
"#. c #4F90C6",
"$. c #4F90C9",
"%. c #5391C5",
"&. c #5394CB",
"*. c #5896CB",
"=. c #5599CE",
"-. c #5B99CE",
";. c #5496D1",
":. c #569AD3",
">. c #5A9DD4",
",. c #579DD8",
"<. c #5A9FD9",
"1. c #5DA0D5",
"2. c #5CA3DC",
"3. c #61A2D7",
"4. c #62A5DC",
"5. c #67A9DE",
"6. c #69AADD",
"7. c #5EA5E0",
"8. c #60A6E1",
"9. c #64ABE3",
"0. c #6AADE3",
"q. c #65ADE8",
"w. c #67B0E6",
"e. c #6CB1E5",
"r. c #6DB2E9",
"t. c #73B3E6",
"y. c #73B5EA",
"u. c #76B9EC",
"i. c #7CBBED",
"p. c #7CBDF1",
"a. c #83BAE7",
"s. c #81BEEE",
"d. c #89BEE8",
"f. c #81BFF0",
"g. c #84C1EE",
"h. c #88C1EE",
"j. c #85C2F1",
"k. c #8AC4F1",
/* pixels */
"k x n V T T W _ ` { { { #.%.%.{ *.%.*.*.=.*.-.*.*.*.%.%.%.%.{ [ [ _ E E T n n l ",
"x n T T _ _ ` { { *.*.-.-.-.1.-.1.1.3.1.1.1.3.1.1.-.1.-.-.-.-.*.%.%.` _ _ T V n ",
"B T T ` { { %.-.-.1.3.3.4.4.5.4.6.6.6.6.6.0.0.0.0.0.5.5.4.3.4.1.1.*.*.{ ` _ T H ",
"T W ` { *.-.3.4.5.6.w.w.w.t.t.t.t.t.u.t.i.t.t.t.t.t.e.t.e.e.e.6.6.3.3.-.{ { _ T ",
"W _ +.*.1.4.5.0.w.e.y.t.t.u.u.i.i.i.i.( J i.g.i.i.i.u.i.i.t.t.t.e.e.5.3.-.{ ` _ ",
"_ { *.>.3.5.0.t.y.u.u.u.i.i.g.g.g.g.} f L L h.h.k.k.g.i.i.i.u.u.t.e.e.4.3.*.{ _ ",
"` %.>.3.8.0.r.r.y.u.u.p.g.g.g.j.h. .f h.k./ / k.k.k.k.j.f.p.i.i.u.t.e.w.5.-.%.{ ",
"{ *.>.4.9.r.r.y.u.u.p.p.s.s.g.g.| f d.h.k.k./ / k.s.k.g.f.p.p.u.u.t.e.w.1.1.*.{ ",
"{ *.1.4.q.0.w.r.r.u.u.u.p.p.p.( d a.g.j.k.h.g.K L s.j.f.i.p.u.y.y.r.0.9.4.1.=.{ ",
"{ *.1.2.9.0.q.r.r.r.r.y.u.u.P 5 t.i.i.i.i.i.i.i.d G i.u.y.y.r.y.r.q.0.9.2.:.=.{ ",
"o.=.>.2.2.0.9.q.w.q.r.e.y.H 2 6.e.y.y.y.y.y.y.y.r.w e y.e.r.r.r.w.0.9.7.2.1.=.{ ",
"%.=.1.2.8.8.8.9.7.q.q.0.s $ 4.w.e.e.e.e.e.e.r.e.w.w.4 q q.9.q.9.q.9.7.1.1.:.%.[ ",
"%.&.>.1.2.7.7.8.7.9.9.p % 1.w.7.9.q.9.9.w.7.q.w.q.0.2.; < 7.9.9.9.7.2.2.1.:.=.{ ",
"%.&.:.,.2.2.2.7.7.7.s @ =.4.2.7.2.7.9.2.7.7.2.2.2.2.9.7.> 4 7.7.7.2.2.2.>.=.%.[ ",
"#.&.=.1.,.2.2.2.7.y # -.2.2.2.2.2.2.2.7.2.2.7.2.7.2.2.2.2.* - 2.2.2.2.>.:.=.&.#.",
"o.&.=.:.,.2.<.<.s + %.2.2.2.2.2.2.2.2.2.2.2.2.2.2.2.7.1.2.1.* 3 <.2.,.>.:.=.%.[ ",
"o.&.=.:.:.>.1.8 # &.<.<.<.,.<.<.<.<.<.<.<.<.<.<.<.>.<.<.<.2.1.& > >.<.:.;.&.#.[ ",
"[ %.&.=.:.:.p # { :.<.>.>.<.<.<.,.,.,.>.<.<.<.,.>.<.,.,.,.>.,.:.- , :.:.:.&.#.[ ",
"[ @.&.:.:.p + &.:.,.:.:.:.,.:.,.:.:.:.:.:.:.:.:.,.:.:.:.:.:.:.:.:.% : =.&.&.%.] ",
"] +.$.&.8 # +.:.:.:.:.;.:.:.:.:.:.;.:.:.:.;.:.:.:.:.:.:.:.:.:.:.:.&.> 3 &.%.o.[ ",
"[ +.@.%.# 3 =.&.&.=.;.:.;.&.;.:.;.;.;.;.;.;.;.;.&.;.;.=.=.;.:.;.&.:.l . $.%.[ [ ",
"] [ o.o.o.# 3 &.&.&.$.&.;.&.&.;.&.&.;.&.;.$.$.;.;.&.&.&.$.;.;.$.=.s . _ &.o.o.] ",
"' ] o.%.$.o.# 6 &.$.&.$.$.$.&.&.&.&.&.&.$.&.&.&.$.;.$.&.$.&.&.&.j . E %.o.o.] [ ",
"_ ] X.o.o.%.] @ 3 &.O.$.O.O.@.$.O.$.O.O.O.$.O.O.$.$.&.$.$.o.O.i . E %.@.o.] [ _ ",
") ' ] o.o.#.#.' # 3 O.o.+.o.@.o.O.O.O.o.o.O.o.o.o.O.o.O.O.o.s . D +.o.[ o.] ' ' ",
") ) ' [ ] o.o.#.] + 3 O.o.O.o.o.o.o.o.o.O.o.O.o.O.o.O.o.o.u . E o.o.o.o.] [ ' ) ",
"E ) ) ' ] ] ] o.o.) # 3 ] o.o.o.X.X.o.o.X.o.X.o.] o.] o.p . S ] o.o.o.] [ ' ) ! ",
"T E ) _ ] ] ] [ o.] ) O 3 ] ] ] o.X.' o.] ..o.X.] X.] i . S X.] ] ] ] ] ) ' ! E ",
"T R E ! ) ' ] ' ' ..' ) # ; ..' ] ] ' ] ' ] ' X.X.] y . A ' ] ] ] ] ] ' ) ! ! E ",
"A S E Q ) ) ' ' ..' ' ' E @ 1 ^ ' ' ' ' ^ ' ] ' ' t . A ) ' ' ' ' ] ^ ! ! E R T ",
"B A T R E ! ) _ ' ' ) ^ ) D # 1 ' ' ' ^ ' ' ) ' y . C ' ) ^ ' ' ! ! ! ! E R T A ",
"n B C T R E Q ! ^ D ) ^ ) ' D @ ; D ^ ! ^ ! ) 0 X B ^ ! ! ) ! ! ! ! ! E T T B B ",
"x b B C T R R R Q ! ! Q ! ! ! D @ ; ! ! ! ! t   M ! ! ! ! ! ! ! Q E S A A C N b ",
"k x v N M T R T S Q Q E Q ! ! ! A O ; D E 9 . C E E Q E Q D Q R S S A C N v c x ",
"h j x x v M B C A Z Z R R R R R R A O 1 9 . c A Q D R S S A A A A A B M v c k j ",
"u g h j k c v M B C B B C Z Z A A A N O . c Z T Z Z A A C Z Z C M M v c x h h u ",
"y y u g h k k c c b m m M N B C N C C C N N C C C B C B B N m b b c k j h g u u ",
"r t t u u g h j k x c b c v v b m m v m N m m N m M m v v v x c x x j a u u t t ",
"r 9 t t t u u g h j j j k k k c c x c c c c c x c c k c x x k k h h u u t t t t ",
"9 9 t 9 t t y u u g h h h j j h k k j k k k j k k k k k j k h h g u u t t t t 9 "
};
