/* XPM */
static char *bt____dke_ca__t_nhdrvgv_adx_ht_t_______out[] = {
/* columns rows colors chars-per-pixel */
"40 40 194 2",
"   c #060A0F",
".  c #091217",
"X  c #0F1D2A",
"o  c #101F26",
"O  c #121E2A",
"+  c #13212C",
"@  c #142434",
"#  c #162836",
"$  c #152638",
"%  c #162A3B",
"&  c #1C2E3D",
"*  c #1B2E42",
"=  c #1C3244",
"-  c #1C354A",
";  c #1F3D55",
":  c #223545",
">  c #243947",
",  c #20364A",
"<  c #233A4B",
"1  c #293C4D",
"2  c #233C53",
"3  c #233F5A",
"4  c #384148",
"5  c #2E4555",
"6  c #25435B",
"7  c #28435E",
"8  c #344A58",
"9  c #3C4E5C",
"0  c #3E505E",
"q  c #264562",
"w  c #294761",
"e  c #2A4A64",
"r  c #274A6E",
"t  c #2B4C6B",
"y  c #344D63",
"u  c #2E516D",
"i  c #3C5263",
"p  c #32526D",
"a  c #3D576C",
"s  c #3D596B",
"d  c #274D71",
"f  c #294D73",
"g  c #2B5175",
"h  c #2D547B",
"j  c #315574",
"k  c #335976",
"l  c #3C5C75",
"z  c #30557C",
"x  c #365D7C",
"c  c #3D5C79",
"v  c #42525D",
"b  c #425463",
"n  c #495762",
"m  c #465B6C",
"M  c #4D5D68",
"N  c #445E73",
"B  c #4C6275",
"V  c #44637B",
"C  c #4D657A",
"Z  c #546778",
"A  c #576E7C",
"S  c #2E5781",
"D  c #2F5983",
"F  c #2F5E88",
"G  c #305782",
"H  c #315C85",
"J  c #325E8A",
"K  c #356185",
"L  c #3C6387",
"P  c #34618D",
"I  c #39658D",
"U  c #356493",
"Y  c #3A6694",
"T  c #356897",
"R  c #3B6A95",
"E  c #376798",
"W  c #39679A",
"Q  c #366A99",
"!  c #3A6B9C",
"~  c #3D719D",
"^  c #366DA3",
"/  c #3C6EA2",
"(  c #3E72A5",
")  c #3E73A9",
"_  c #446783",
"`  c #4D6780",
"'  c #446880",
"]  c #4C6B83",
"[  c #446F8F",
"{  c #4E6E89",
"}  c #596E81",
"|  c #527186",
" . c #5D7484",
".. c #52758B",
"X. c #5B768D",
"o. c #56798D",
"O. c #5D798F",
"+. c #436E93",
"@. c #42729D",
"#. c #4A7699",
"$. c #47799E",
"%. c #4A7C9D",
"&. c #527591",
"*. c #5D7B93",
"=. c #557E9D",
"-. c #587D9A",
";. c #617D93",
":. c #4174A4",
">. c #457AA6",
",. c #4175AB",
"<. c #437BAD",
"1. c #487CAD",
"2. c #4377B1",
"3. c #447DB4",
"4. c #4B7EB3",
"5. c #467DB8",
"6. c #658197",
"7. c #668298",
"8. c #4B81AD",
"9. c #5E84A2",
"0. c #5083AE",
"q. c #4582B5",
"w. c #4A84B4",
"e. c #4B88B7",
"r. c #4682BA",
"t. c #4985BC",
"y. c #4C89BE",
"u. c #5D8EB6",
"i. c #518BBD",
"p. c #5893BD",
"a. c #688BA7",
"s. c #648BAA",
"d. c #6F93B3",
"f. c #6894BB",
"g. c #4A87C1",
"h. c #4788C0",
"j. c #4D8BC3",
"k. c #4E8DC9",
"l. c #518EC4",
"z. c #518EC9",
"x. c #4F90C5",
"c. c #4F91C9",
"v. c #5392C5",
"b. c #5C92C0",
"n. c #5394CC",
"m. c #5996CB",
"M. c #5699CE",
"N. c #5A99CD",
"B. c #5496D1",
"V. c #5896D3",
"C. c #569AD4",
"Z. c #5A9CD4",
"A. c #5A9ED9",
"S. c #629BC6",
"D. c #689DC5",
"F. c #669FCA",
"G. c #699FCA",
"H. c #609FD4",
"J. c #5EA1D6",
"K. c #5CA2DB",
"L. c #6EA3CD",
"P. c #76A2C3",
"I. c #72A4CC",
"U. c #61A1D5",
"Y. c #63A5DB",
"T. c #69A7DA",
"R. c #65A9DF",
"E. c #6AAADE",
"W. c #76AAD3",
"Q. c #78A9D1",
"!. c #75B0DC",
"~. c #7FB3DB",
"^. c #5EA6E1",
"/. c #5CA8E2",
"(. c #62A6E1",
"). c #64AAE3",
"_. c #6BADE3",
"`. c #67AEE8",
"'. c #6AAFE9",
"]. c #67B0E5",
"[. c #6DB1E5",
"{. c #6DB4EA",
"}. c #73B4E6",
"|. c #7AB4E2",
" X c #73B5EA",
".X c #75B9EB",
"XX c #7CBCEE",
"oX c #76B9F0",
"OX c #79BCF0",
"+X c #85B9E0",
"@X c #82BFEF",
"#X c #84C1EF",
"$X c #85C2F2",
"%X c #8AC3F2",
/* pixels */
"J P R ! @.<.1.w.e.i.e.v.l.l.v.v.v.m.m.v.M.m.M.m.n.v.v.v.p.l.e.j.y.w.1.<.@.! U I ",
"I R ~ >.8.w.i.l.v.v.N.N.N.N.Z.Z.H.H.J.U.K.J.U.J.J.U.Z.Z.Z.N.m.m.v.l.y.8.>.>.~ Y ",
"R ~ 1.w.l.l.m.V.Z.U.J.J.T.R.T.R.E.R.E.E.E._.E.).T.E.E.E.Y.Y.T.J.Z.N.n.x.e.1.<.! ",
":.<.t.l.m.N.Z.Y.R.R.[.E.[._.}.}.}.}. X}..X|. X|.}..X X[.}.E._.R.R.Y.U.m.v.i.1.>.",
"1.w.l.m.U.T.Y._.{.[.}.L.{ V i 4 9 v v v v m { | ..C V B D..X}. X_._.R.Y.N.v.e.8.",
"w.i.m.Z.U.)._.{.{.G.V s b v 0 Z X.*.*.O.;.M n ;.Z M M 0 b ] D..X X[._.T.U.N.v.8.",
"e.v.N.Y.).`. X Xu.s -.` 9.o.| X.X.A P.%X;.a.7.O.d.$X$X$X#X9.m V }. X_.`.Y.N.v.e.",
"i.n.Z.Y._.].}.m.y  XV L.*.s.@X$XI.;.+X .+XP.7.%X%X$X$X$X@X#XOX{ V  X[.).R.J.M.i.",
"l.m.J.Y.].].U.y S.' 9.' &.!.W.I.B Q.A Q.X.;.@X#X$X#X@XXXXXXXoX XV _ ].).(.J.n.i.",
"v.n.Z.R./.].5 8.[ l {.N s i s B G.*.f.I.m |.@X@XXXOXoXXX.X X X X{.c 1 > > # p :.",
"j.M.Z.R.K.0.; ].> R.#.[ p.}.{.T.=.s  X8 u..X X X{.}. X[.{.].].'.].`.m.m.k & w.@.",
"v.n.A.Z.J.6 8.x k >.- p & ].1 1 < p.$.5 y l _.].].`.'.'.`.).`.`.R./.).x 2 i.y.i.",
"j.M.C.K.>.= K.& J.> v.).> J.> m.).).- m.).p > $.).).).).).(.(./.)./.x 6 K.B.i.x.",
"v.n.C.A.u j >.6 m.& (./.= M.t k (.+.2 /.(.(.y., 3 M.K./.(.(.K././.p 6 K.Z.M.n.y.",
"j.n.N.Z.= w.e L K e J.K.& n.e k K.6 x R./.K.^./.x & j K.K.K.K./.q 6 K.J.M.n.m.y.",
"l.n.B.N.# K.& n.; R K.K.- y.y g K.* 1.A.A.A.K.K.J.v.6 : w.K.K.q z K.C.C.J.n.c.y.",
"y.n.n.@.= K.+ @.+ c.K.A.6 g >.= K.# C.K.A.K.A.A.K.A.K.T & 3 ; k A.A.Z.A.B.c.v.j.",
"j.z.M.@.& B.6 - q A.Z.A.k o $ e ~ = Z.A.A.Z.A.Z.C.A.A.A.M.u I Z.A.Z.C.C.B.c.v.y.",
"y.l.n.g ; M.B.A.A.Z.M.C.C.Z.A.C.I - C.C.A.C.C.C.C.C.C.C.C.C.C.Z.C.C.M.C.B.n.x.y.",
"y.l.n.6 u B.V.C.C.C.M.Z.C.M.B.C.I - Z.B.V.C.C.B.C.C.C.C.C.C.C.C.B.C.n.n.n.v.j.y.",
"t.y.k.3 t B.B.n.B.C.B.c.V.B.B.B.I - B.B.B.B.B.B.B.B.n.C.B.M.B.M.B.B.n.n.v.v.j.t.",
"t.y.i.7 6 n.B.n.c.B.C.c.n.n.n.B.L - n.n.B.n.B.n.n.n.n.n.c.B.n.n.B.n.c.n.k.l.y.t.",
"r.y.j.I * n.n.n.c.n.c.n.B.k.n.z.K = B.n.k.n.n.c.c.B.c.n.c.c.c.B.n.c.n.x.j.j.y.t.",
"w.t.h.>.% k.z.c.k.x.k.c.z.k.n.k.w.% k.l.c.z.k.x.c.k.c.z.n.c.c.k.c.x.x.k.j.y.y.q.",
"3.r.y.h.@ w.k.k.k.k.k.k.z.k.k.z.k.# q.j.k.k.k.k.k.k.z.j.l.j.k.k.k.k.j.j.y.y.r.q.",
"3.w.q.y.* P j.y.l.j.g.j.h.j.j.l.j.& I k.j.j.j.j.j.j.j.j.j.j.j.j.j.j.j.y.y.t.r.q.",
"<.<.r.r.h - h.j.g.j.g.j.j.j.g.g.h.q 2 h.g.y.g.j.h.j.h.j.h.h.j.j.h.h.y.t.r.t.w.3.",
",.1.5.w.y.@ :.g.y.t.g.r.t.g.g.y.t.<.$ r.g.t.h.h.y.t.g.y.g.t.g.t.y.t.t.t.r.q.3.<.",
"( <.1.3.q.q ; t.r.g.r.g.t.t.r.h.r.g.- f r.t.t.t.r.t.h.t.t.t.r.g.r.r.r.t.r.3.<.<.",
"( :.@   . X @ r.r.r.r.r.r.r.r.r.t.r.W @ h h <.t.r.r.r.r.r.r.r.r.r.r.r.q.q.2.,.,.",
"! / U 3 @ O @ ; F 5.h.q.r.5.r.q.q.5.5.f & - o   ^ 5.q.q.r.3.5.q.r.5.3.3.<.,.:.( ",
"Y ! / ,.,.,.H 3 $ X * q E q.3.3.5.q.5.5.5.q $ h 5.q.3.q.5.3.5.5.3.3.<.<.,.( ~ W ",
"P T ! / :.,.,.<.2.( f * @ @ - h ) 5.5.F $ - ) 5.3.q.) r.3.3.3.3.2.) <.( / / W R ",
"P P T Q W :.( ) <.2.2.2.<.U q @ X $ * $ F 2.5.) ) 3.3.) 2.2.) <.) ) ( ( W T U P ",
"D J J P Y W ! / ! ( ( / ( ) ) ) ( h q ) ,.) ) ) ) ) ) ) ) ( ( / ( ( ! R T U J G ",
"h h D J J U Y W ! / / / / ( ( ) ( ( ( ( ( ( ) ) ) ) ) ) ( / / ^ W W U U J H H S ",
"g g h G G J J U U U E T W W ! ! ! ! / / ! ! ! ! ^ ~ ^ ! ! ! W T U U J J D S h f ",
"d f f h h S D D J J U U U U T Q U U W T Q W E E Q T T U T U U U P P H h h h h f ",
"r d d f f h S S D J F F P P P U U U P U U U P U U U P U U P J J D D h h f f f r ",
"r r r d f f f h h S D S D D D H J J H J J J J F J J F J F D D D D h g g f f d r "
};
