/* XPM */
static char *bt_____v_zyunlwqzrsnfbhg_xf_s_in_______out[] = {
/* columns rows colors chars-per-pixel */
"40 40 190 2",
"   c #0A0F16",
".  c #071218",
"X  c #0A141D",
"o  c #0D1721",
"O  c #0D1A22",
"+  c #0E1F2E",
"@  c #101A24",
"#  c #101E2A",
"$  c #0E202C",
"%  c #13222B",
"&  c #142535",
"*  c #162937",
"=  c #16273A",
"-  c #162A3B",
";  c #1B2D3D",
":  c #1C313F",
">  c #22303B",
",  c #1A2E42",
"<  c #173044",
"1  c #1B3244",
"2  c #1C354A",
"3  c #1F3B51",
"4  c #213445",
"5  c #21374A",
"6  c #233B4D",
"7  c #2C3F4E",
"8  c #223C53",
"9  c #223F5B",
"0  c #264056",
"q  c #294156",
"w  c #25435D",
"e  c #29455B",
"r  c #2E4A5D",
"t  c #3B4954",
"y  c #354F5E",
"u  c #274662",
"i  c #264963",
"p  c #2A4965",
"a  c #274B6E",
"s  c #2A4C6C",
"d  c #374D64",
"f  c #2E516D",
"g  c #375162",
"h  c #395166",
"j  c #294D73",
"k  c #2B5173",
"l  c #2C537B",
"z  c #2E5A7F",
"x  c #335676",
"c  c #305779",
"v  c #345B7C",
"b  c #404D55",
"n  c #465663",
"m  c #41576C",
"M  c #445B6D",
"N  c #485D6E",
"B  c #405A71",
"V  c #4F6475",
"C  c #476379",
"Z  c #4C667B",
"A  c #536370",
"S  c #50667B",
"D  c #536B7C",
"F  c #2D5681",
"G  c #2F5983",
"H  c #2E5D89",
"J  c #305782",
"K  c #315B86",
"L  c #325E8A",
"P  c #335F90",
"I  c #366284",
"U  c #33618D",
"Y  c #386288",
"T  c #3B688D",
"R  c #356493",
"E  c #396794",
"W  c #366A95",
"Q  c #3B6B95",
"!  c #37669B",
"~  c #386698",
"^  c #376999",
"/  c #3A6B9C",
"(  c #3E729E",
")  c #3B6DA2",
"_  c #3B6FA8",
"`  c #3D72A4",
"'  c #3E74A9",
"]  c #546E82",
"[  c #596E81",
"{  c #567183",
"}  c #5A7184",
"|  c #54768F",
" . c #5A748A",
".. c #416E96",
"X. c #497194",
"o. c #42749C",
"O. c #577994",
"+. c #5B7A93",
"@. c #406FA7",
"#. c #4175A5",
"$. c #4579A4",
"%. c #4A7DA5",
"&. c #4174AA",
"*. c #437AAC",
"=. c #497EAC",
"-. c #527DA0",
";. c #447DB4",
":. c #497EB4",
">. c #457FB9",
",. c #618095",
"<. c #66869F",
"1. c #4680AE",
"2. c #4A81AE",
"3. c #5080A6",
"4. c #5A83A3",
"5. c #5D8BAE",
"6. c #4681B6",
"7. c #4B83B5",
"8. c #4D88B6",
"9. c #4682BA",
"0. c #4985BC",
"q. c #4C89BE",
"w. c #598AB2",
"e. c #528CBE",
"r. c #5B92BB",
"t. c #6888A1",
"y. c #628EAC",
"u. c #628EB3",
"i. c #6A95B5",
"p. c #6493BB",
"a. c #4A87C0",
"s. c #4D8BC3",
"d. c #4F8EC9",
"f. c #518EC3",
"g. c #518FC8",
"h. c #4F90C6",
"j. c #4F90C9",
"k. c #5392C5",
"l. c #5F98C3",
"z. c #5394CB",
"x. c #5996CC",
"c. c #5598CD",
"v. c #5A99CD",
"b. c #5496D0",
"n. c #5996D5",
"m. c #569AD3",
"M. c #5A9DD4",
"N. c #5A9ED9",
"B. c #6599C2",
"V. c #6A9EC6",
"C. c #639ECC",
"Z. c #619DD2",
"A. c #5DA1D6",
"S. c #57A2D9",
"D. c #5CA3DC",
"F. c #7BA9CD",
"G. c #61A1D6",
"H. c #6BA6D2",
"J. c #64A5DB",
"K. c #66AADE",
"L. c #6AABDD",
"P. c #73A9D2",
"I. c #70AAD8",
"U. c #7AAFDB",
"Y. c #7DB1D8",
"T. c #5FA6E1",
"R. c #5FAAE1",
"E. c #61A6E1",
"W. c #64AAE3",
"Q. c #6AADE3",
"!. c #69AFEA",
"~. c #70AFE2",
"^. c #66B1E7",
"/. c #6CB1E6",
"(. c #6DB2EA",
"). c #73B3E5",
"_. c #72B5EA",
"`. c #79B6E9",
"'. c #75B8EC",
"]. c #7CBCED",
"[. c #7BBDF0",
"{. c #82B7E1",
"}. c #88BDE7",
"|. c #83BDED",
" X c #88BEEC",
".X c #81BFF1",
"XX c #84C1EE",
"oX c #89C3EF",
"OX c #86C2F1",
"+X c #8BC5F3",
/* pixels */
"K U Q Q ` $.:.7.8.8.q.e.k.k.k.k.k.c.k.x.v.x.v.x.k.x.k.k.e.k.e.q.8.7.*.$.#.Q E L ",
"E Q ` &.1.7.e.f.k.x.c.v.v.v.A.v.G.Z.G.G.G.G.A.G.A.A.G.v.A.v.v.k.k.f.0.0.=.$.o.W ",
"Q ` $.8.e.f.k.v.M.G.G.G.J.J.J.K.K.Q.W.L.L.^.Q.^.L.L.W.J.K.G.J.G.M.v.x.f.7.=.$./ ",
"` =.8.f.x.M.M.J.K.L.L.^.~./.).).).).)._.`.).).).)._.).).).~.Q.K.L.G.G.M.k.e.:.#.",
"=.7.f.x.M.J.K.Q.(.(.)._.'.I.H.P.].].].].|.|.].].'.|.].`.'._._._./.Q.K.Z.Z.k.8.2.",
"7.q.x.M.J.L.Q._.(.'.'.B.Z S n b V [ D { { { [ { [ ] D N t ] V._._.(.Q.K.A.v.e.8.",
"e.f.v.J.W.Q.!._._.'.5.S y.O.+.+.[ } A F.}.}. X}.XX{. .Z Z Z M m H._.(.L.J.v.k.8.",
"q.x.M.J.W.Q.!._.'.5.C `.| y.OXXXOX,.<.+X+X+XoX+XY.} i.OXOX|.[.B.h -.C.v.K.M.c.e.",
"7.x.v.J.^.^.^._.r.h _.Z 4.[.].XX+.t.XXOXOXXXoXY. .P.OX.X].].'.'.C.d 7 6 6 % e e.",
"f.x.A.J.W.W.Q.^.r w.l.g '.'.'.p.Z '.].].XXXX].D u.].'.'._.'._.(./.(.Q.K.r ; ..k.",
"k.c.M.D.T.W.K.x.q ^.r 3.(.(.(.g p._.).'._._.B.x _.(.(._.(.(.^.(.Q.W.2.5 f M.x.q.",
"f.c.M.S.T.K.m.q 2.o.e W.Q.Q.3.e !.!././.^.(.> X.Q.Q.^.Q.Q.Q.Q.W.W.v 5 %.A.m.z.q.",
"k.z.M.A.D.m.z.: W.6 o.W.R.W.8 %.W.W.W.W.W.%.1 0 6 o.T.W.W.T.W.s.8 e A.D.A.m.x.s.",
"f.c.m.M.D.D.v e D.: c.W.T.A.; T.D.W.E.D.D.r I D...4 3 f.D.T.T 1 ..E.S.N.m.m.k.e.",
"s.c.c.A.S.D.2 $.1.5 D.D.T.( 8 A.T.D.D.D.D.1 k.D.D.T.T ; w 0 6 c.J.S.D.S.m.c.j.q.",
"s.z.n.c.S.s.; D.s f D.A.T.3 w #.$.%.z.D.2.1 D.D.D.D.D.D.x I D.D.S.N.S.N.m.c.z.s.",
"s.z.b.m.m.$.1 N.5 T N.N.N.Q ; 2 1 1 & S.x u N.N.N.A.N.N.D.N.N.N.N.N.M.N.m.j.k.a.",
"s.f.b.b.m.=.; N., *.N.N.M.N.N.M.N.m.; m.w c M.N.m.N.M.N.N.m.m.N.M.m.m.m.m.j.k.q.",
"q.f.z.b.m.v 8 m.s m.n.m.M.m.N.m.m.Y 8 m.8 v m.m.m.m.m.m.m.m.m.m.m.m.c.m.m.k.j.q.",
"q.k.z.z.c.p i m.2 f.c.c.m.m.m.m.m.Y 3 m.; ;.m.m.m.m.m.m.m.m.m.m.m.m.z.m.z.j.s.q.",
"0.q.f.z.j.k p c.; = * * 1 1 1 1 1 # 0 z.; 6.z.m.b.m.b.b.b.b.b.b.b.b.z.z.h.h.s.q.",
"0.s.q.j.j.p p c.z.z.z.z...W Q Q Q / d.b.; *.z.c.z.j.z.z.z.z.z.z.z.z.j.z.j.h.q.q.",
"0.q.s.s.k.i u j.z.j.z.z.j.z.j.j.z.z.z.z.- =.j.z.j.z.z.z.j.z.z.j.z.k.j.j.h.q.q.0.",
"6.q.a.s.s.E 1 j.d.d.d.d.j.z.j.j.j.j.j.g.- ' j.j.j.j.j.j.j.j.j.j.j.j.j.s.s.s.q.6.",
"1.9.0.a.s.Q - d.d.s.g.d.s.g.s.j.d.d.s.d.3 f d.d.s.d.s.g.s.g.d.s.j.j.s.s.q.0.9.6.",
";.6.8.q.a.6.& s.s.s.a.s.s.s.s.s.s.s.s.s.3 a s.s.s.s.s.s.s.s.s.s.a.s.s.q.q.0.6.;.",
"' ;.7.9.0.a.- Q s.a.s.a.a.s.a.a.s.q.a.a.z 2 a.a.s.a.s.a.a.s.s.s.s.a.q.0.0.0.6.6.",
"*.;.;.9.a.8.i 8 a.a.0.a.s.0.a.a.a.0.q.0.9.& a.a.0.a.0.q.a.0.a.a.a.0.0.0.9.6.6.' ",
"' $.*.;.9.6.W * 9.0.0.0.9.0.0.0.0.0.0.0.0.& W a.9.0.0.0.0.0.0.0.9.0.0.0.6.;.*.*.",
"` ' *.*.;.>.>.; K 0.0.>.>.0.0.0.>.9.>.0.0.w 3 a.9.9.9.9.9.9.>.0.9.9.9.;.;.;.*.&.",
"/ ` &.*.*.;.;.#., 9.9.9.>.>.>.;.9.9.>.>.a.*.& ` 9.9.9.>.9.>.>.>.;.>.;.;.*.&.&.` ",
"W ^ ) ` , X   # . s ;.9.;.;.>.>.;.;.>.;.' 9.a < 9.' 9.9.' ;.>.;.;.;.;.*.&.` / / ",
"R ~ Q ) J 2 & O   O = 8 j ^ ;.;.;.;.;.;.;.;.;., = = - O 3 >.;.;.;.*.' ` ` / ^ E ",
"L U ~ ^ ) ) #.' ' #.a 8 , + # & 2 9 K _ ;.*./ j - O X o a ;.' &.' ` ` ) ^ ^ ~ U ",
"z G U R E ~ / @.` ` _ #.#.&.) L 9 1 & % + + # = 9 U &.&.' ` ' ' @.` / ^ ~ U L J ",
"l F F G K R E ~ ^ ) ) ` ) ` ) @.` ` ` _ H L ' _ ` _ ` _ ` ) ) / W ^ E R L L J F ",
"k l F J G K P P ~ R ~ ~ ^ / / ) / / ) / / ) ^ / ) / ) ^ ^ ) ~ R E R L K J G l l ",
"j j j l F F J K H U U R R R R R ~ ~ ! ! ~ ^ ^ ^ E ~ R E W R R R U L J J l l j j ",
"a a s j j l l F G G H U L L U U R R R P R U R R R R U R P R H L K F z l l j j a ",
"a a a a j j j l l z F G G K K L K L L L L H K L L L L L H G G G z l l j j j a a "
};
