/* XPM */
static char *bt____bpbtb_hzy_r__ri_g_p_duxfs________out[] = {
/* columns rows colors chars-per-pixel */
"40 40 204 2",
"   c #03050A",
".  c #060D13",
"X  c #080F15",
"o  c #0B1014",
"O  c #0B151D",
"+  c #0E1621",
"@  c #0F1B25",
"#  c #0F1D2A",
"$  c #101A24",
"%  c #131F2B",
"&  c #0F202A",
"*  c #13212D",
"=  c #152534",
"-  c #162937",
";  c #1A2833",
":  c #16273B",
">  c #172B3E",
",  c #1A2C3C",
"<  c #1F313D",
"1  c #172C41",
"2  c #1A2F43",
"3  c #1C3245",
"4  c #1D344B",
"5  c #1E384E",
"6  c #1E3B52",
"7  c #243644",
"8  c #293740",
"9  c #21364B",
"0  c #213A4E",
"q  c #283A4A",
"w  c #223D53",
"e  c #233E59",
"r  c #264156",
"t  c #2A4151",
"y  c #24425B",
"u  c #29455C",
"i  c #2D4A5E",
"p  c #334454",
"a  c #254562",
"s  c #294762",
"d  c #274964",
"f  c #2A4A64",
"g  c #274A6F",
"h  c #2B4D6C",
"j  c #324D64",
"k  c #2E516D",
"l  c #355065",
"z  c #3B5165",
"x  c #30536F",
"c  c #274D71",
"v  c #294D73",
"b  c #2D5374",
"n  c #2D547B",
"m  c #315473",
"M  c #375974",
"N  c #3A5C77",
"B  c #31557C",
"V  c #325B7C",
"C  c #38617F",
"Z  c #405A75",
"A  c #4A5F72",
"S  c #476076",
"D  c #44637F",
"F  c #4C687D",
"G  c #556C7E",
"H  c #2E5781",
"J  c #2F5A83",
"K  c #2F5F8D",
"L  c #325C85",
"P  c #325E8A",
"I  c #366285",
"U  c #3A6486",
"Y  c #34628D",
"T  c #38658B",
"R  c #3E698D",
"E  c #356493",
"W  c #396593",
"Q  c #356897",
"!  c #3B6B94",
"~  c #376798",
"^  c #3A6798",
"/  c #366999",
"(  c #3A6C9C",
")  c #3E719C",
"_  c #3B6DA2",
"`  c #3D71A4",
"'  c #3F75AA",
"]  c #3F78AD",
"[  c #436682",
"{  c #4D6C83",
"}  c #426C8B",
"|  c #506C84",
" . c #586F81",
".. c #4C718E",
"X. c #517085",
"o. c #5D7284",
"O. c #53728B",
"+. c #5A768C",
"@. c #5C798E",
"#. c #416E93",
"$. c #477295",
"%. c #487497",
"&. c #41739B",
"*. c #547895",
"=. c #5D7B93",
"-. c #507798",
";. c #527998",
":. c #60768B",
">. c #627D92",
",. c #4175A5",
"<. c #4579A3",
"1. c #4A7AA1",
"2. c #4175AB",
"3. c #437AAC",
"4. c #497EAC",
"5. c #447DB3",
"6. c #497FB4",
"7. c #457FB8",
"8. c #5E829D",
"9. c #608097",
"0. c #62839C",
"q. c #4A81AD",
"w. c #5580A3",
"e. c #5986A7",
"r. c #5181A9",
"t. c #4681B5",
"y. c #4A84B4",
"u. c #4C89B6",
"i. c #4682BA",
"p. c #4985BC",
"a. c #4688BC",
"s. c #4D89BD",
"d. c #518AB7",
"f. c #518DBE",
"g. c #5D93BC",
"h. c #6386A3",
"j. c #6789A5",
"k. c #628EAE",
"l. c #6391B5",
"z. c #6A93B3",
"x. c #6C9BBE",
"c. c #7097B6",
"v. c #759AB7",
"b. c #4A87C1",
"n. c #4788C2",
"m. c #4D8BC3",
"M. c #4E8DC9",
"N. c #518EC3",
"B. c #518EC8",
"V. c #4D90C5",
"C. c #4E91CA",
"Z. c #5391C5",
"A. c #5B95C2",
"S. c #5394CB",
"D. c #5896CC",
"F. c #5598CD",
"G. c #5B99CE",
"H. c #5496D1",
"J. c #5997D0",
"K. c #559AD3",
"L. c #5B9DD3",
"P. c #579DD8",
"I. c #5A9EDA",
"U. c #6398C2",
"Y. c #5DA1D6",
"T. c #5CA2DC",
"R. c #5DA8DF",
"E. c #75A5CC",
"W. c #78A6C8",
"Q. c #7CAACE",
"!. c #62A2D7",
"~. c #6CA5D3",
"^. c #63A5DB",
"/. c #66A9DE",
"(. c #68AADF",
"). c #71A7D6",
"_. c #74A8D0",
"`. c #7BADD5",
"'. c #70AEDF",
"]. c #77B1DF",
"[. c #7EB3DD",
"{. c #5FA5E0",
"}. c #5DA8E2",
"|. c #64A6E1",
" X c #64ABE3",
".X c #6AADE3",
"XX c #6AAFE8",
"oX c #70AFE3",
"OX c #67B0E7",
"+X c #6DB1E6",
"@X c #6EB3EA",
"#X c #72B3E6",
"$X c #79B5E3",
"%X c #7FB9E6",
"&X c #74B5EA",
"*X c #78B6E9",
"=X c #76B9ED",
"-X c #7CBBEC",
";X c #7FBDF0",
":X c #83BAE4",
">X c #82BEEC",
",X c #81BEF1",
"<X c #83C0EF",
"1X c #83C1F2",
/* pixels */
"P Y ! ( ,.,.4.y.u.u.s.m.Z.Z.Z.Z.D.A.D.D.D.D.D.D.S.S.S.Z.f.Z.f.d.u.y.4.3.` ! R P ",
"Y ! ) 3.q.y.s.N.Z.A.G.G.G.G.G.!.Y.L.Y.Y.!.Y.Y.Y.!.Y.L.L.L.G.D.D.S.f.u.y.4.<.( ! ",
"( ) 4.y.s.N.D.G.L.Y.Y.^.^.^.^.(.(.(./.(..X.X(..X/.(.(./.^.^.^.!.Y.G.D.Z.u.6.<.( ",
",.4.y.m.D.L.L.^./.(..X.X+X+X#X#X#X#X#X&X$X&X#X&X$X#X#X+XoX.X.X/.^.^.Y.G.D.p.y.,.",
"3.y.N.D.L.!..X.XOX@X#X&X&X&X*X-X-X>X-X;X-X-X>X>X-X-X-X*X*X&X&X#X+X.X/.!.G.Z.s.q.",
"y.f.D.L.^.(..X@X@X=X=X-X-X-X<X>X:X`.Q.`.`.:X:X>X>X<X-X-X>X-X=X=X&X+X'.^.!.G.f.q.",
"d.Z.J.^.|. XXX&X=X=X-X;X<X<XE.h.o.o.=.=.>.G G :.j.c._.%X,X;X-X=X&X@X+X(.^.L.Z.s.",
"s.D.L./. XXX@X&X=X=X=X$Xk.@.=.0.z.W.Q.v.@.o.:.>.0.9.+.+.0.l.$X=X&X&X+XOX^.L.D.f.",
"N.D.L.^.OXOXOX@X@X&X~.e.[ X.8._.1X:X`.x.0.0.=.0.j.z.h.;.| A ;.g.!.+X+XOXT.Y.D.f.",
"N.F.I./. X XXX+XXXA.[ z 8.#X=X&Xx.X.S O.k.8.X.F =.).-X=X~.$.j j ..!.(./.!.P.D.f.",
"Z.D.L.T.T. X X X} < , N w..X(.;.p 8 ;.'.oX'..XU.[ z N l.@X(.~.#.t f u.^.T.K.D.V.",
"N.F.L.T.R.|.Y.&.* * t u q A.R.} q 7 $.XX.XXX+XXXA.r.M i %. X.XL.<.j u <.Y.L.S.s.",
"N.F.K.T.T.T.q.3 , } ! q w Z.|.<.t m U r. X X X X X Xd.x u $.I.|.}.u.m a R G.Z.V.",
"m.D.K.Y.T.F.k ; 4.|.<.y q.Y.}.s.3 C s x {.{.^.{.R.R.}.L.R w &.K.T.T.L.f < 3.C.f.",
"m.S.K.P.P.f * V L.T.C 5 Y.T.T.u.0 f = 0 T.T.{.T.T.|.T.T.L.R = b T.T.Y.u.k 5 y.m.",
"f.S.F.K.<.$ < V.T.y.y u T.T.T.V.k = w q.T.P.T.T.T.T.T.T.u.u - 4 I Y.Y.L.` 3 m 4.",
"N.Z.F.N.y . h I.Y.L 0 T L.I.P.K.&.$ , U U ! &.<.y.S.V.&.f m ! C r ) S.L.m.V 3 T ",
"m.S.Z.( - $ I P.P.f r t.I.P.I.P.Z.= & 5 3 4 3 r f I C r f V.Y.V.m 3 3.F.K.q., b ",
"s.m.4.y 3 , I K.K.r s D.J.P.P.K.K.w k u.y.! L k w 2 > b N.K.K.K.U # ( H.F.s.3 h ",
"n.N.! 1 V t f V , + B H.J.L.K.K.H.k y ! K.Z.f.p.q.q.3.s.K.K.! w w m <.F.S.Z.3 d ",
"s.p.V > 3.w @ > X O I S.K.H.H.H.F.! 5 h H.H.H.H.H.H.F.H.D.C.5   * u d h b b + d ",
"p.,.s 0 u.b @ - h 3 L S.C.S.S.H.F.p.y y H.S.S.H.H.B.D.S.S.s.f 5 d e w 5 3 3 > I ",
"6.I 5 s m.y.h w i.w h C.S.S.S.S.B.B.h 4 p.B.Z.B.b.i.m.F.C.C.S.S.S.S.C.N.t.t.p.s.",
"y.L 5 a m.V e ! u.w h C.M.N.M.C.S.B.L 4 V ( V 2 * h t.C.C.S.B.M.m.S.V.m.m.s.s.p.",
"5.b 5 L t.w r b.t.9 h m.M.M.m.m.m.m.' r @ 6 4 @ * R p.N.m.N.M.m.m.m.m.m.m.s.i.t.",
"4.a 1 V L w V m.3., h m.m.m.m.M.m.V.m.E 4 e 4 5 L m.M.n.M.M.M.m.m.M.m.m.s.p.t.t.",
"2.y O 3 6 u W 5.! - d m.n.s.M.m.m.M.m.s.s.( y b m.n.m.m.n.m.p.m.m.p.s.s.a.i.y.5.",
"2.a X $ 1 w , * 1 + g p.n.b.b.p.p.b.s.i.L 4 B t.p.p.s.p.p.p.p.b.n.p.a.p.i.t.5.2.",
"' L -   * g y O % v 5.p.p.i.p.p.p.b.5.n 4 b 2.p.p.p.p.p.p.b.i.p.i.p.p.i.t.5.5.2.",
"( ` b 2 y _ ) g 6 n Y Y ` i.b.i.p.2.n 5 g t.i.i.i.i.i.i.p.i.i.i.i.p.i.7.5.5.2.,.",
"( ` ' 2.3.5.5.6.L 3 % 1 a ! 2.2.2.n 3 d i.i.i.7.7.7.i.7.7.i.7.i.5.5.5.5.3.2.2.,.",
"! ( _ ,.,.2.5.5.3.] Y e : * 1 6 y > b 5.] 7.7.7.7.7.7.5.7.5.5.7.5.5.5.2.2.,.( ( ",
"Y Q / _ _ ,.2.2.5.5.5.! P J a 3 2 n ` 5.5.7.] 7.7.5.7.] 5.5.5.5.5.2.2.` _ _ / W ",
"P Y Q / _ _ ` 2.2.2.2.5.2.5._ J n 2.7.] 5.] 5.2.5.] ] ] 5.2.2.2.' ` ` ` ( ~ E Y ",
"J L P E W ^ ( _ ` ` ` ` ,.2.] ' ,.] ' ] ' ' ' ] 2.] 2.2.2.` ' _ ,._ ( / ~ E P H ",
"n B J L P E ^ ^ ( _ _ _ ` ` _ ` ' ` _ ` ` ` ` ` ` ` ` ' _ _ _ _ / / W E P L L n ",
"v n n B H P P E E Q ~ ~ / ^ _ ^ ( _ _ ( ( _ _ ( _ _ _ ( Q _ ~ ~ Q E E H H H B n ",
"v v v n n H J J P P E E E ^ ~ Q E ~ ~ ~ ~ ^ Q / ~ ~ ~ ~ E E E E Y L H B H n v v ",
"g g v v v v H H J L J K K E P E E E K E E Y K E E E K E K E P P L H n n v v v g ",
"g g g v v v v n n H J J J J J L J P P P P P P P K L P P K J H J J n n v v v v g "
};
