/* XPM */
static char *bt_____codfbrlhlx_ypc__qht_bf_q________out[] = {
/* columns rows colors chars-per-pixel */
"40 40 224 2",
"   c #03070A",
".  c #050D11",
"X  c #090E14",
"o  c #071015",
"O  c #07111A",
"+  c #0B131C",
"@  c #17181D",
"#  c #0D1520",
"$  c #0D1B26",
"%  c #0F1B29",
"&  c #121E2B",
"*  c #172027",
"=  c #11202D",
"-  c #19222B",
";  c #132332",
":  c #182633",
">  c #152639",
",  c #18273A",
"<  c #152A3B",
"1  c #1B2A3C",
"2  c #232D35",
"3  c #22333D",
"4  c #2A353B",
"5  c #192E44",
"6  c #1A3246",
"7  c #1C344B",
"8  c #1E3750",
"9  c #1E3A53",
"0  c #20364A",
"q  c #263B4F",
"w  c #2A3C4B",
"e  c #223752",
"r  c #223C53",
"t  c #283F51",
"y  c #223D5A",
"u  c #254156",
"i  c #24425C",
"p  c #2C465C",
"a  c #394750",
"s  c #254461",
"d  c #284763",
"f  c #264A64",
"g  c #2A4A64",
"h  c #28466A",
"j  c #274A6E",
"k  c #2A4C6C",
"l  c #314D65",
"z  c #384D60",
"x  c #2E526D",
"c  c #305067",
"v  c #3A5163",
"b  c #34536D",
"n  c #3A566C",
"m  c #36596F",
"M  c #3E5A6F",
"N  c #2A4D73",
"B  c #2C5174",
"V  c #2C547B",
"C  c #2E597C",
"Z  c #345572",
"A  c #3A5570",
"S  c #365976",
"D  c #3C5D76",
"F  c #30557F",
"G  c #335A7B",
"H  c #395E7C",
"J  c #465866",
"K  c #425B6F",
"L  c #485B6C",
"P  c #445F74",
"I  c #41637E",
"U  c #4D6A7F",
"Y  c #50667D",
"T  c #2E5781",
"R  c #2F5A83",
"E  c #2F5E8A",
"W  c #305681",
"Q  c #325C85",
"!  c #325E8A",
"~  c #315F93",
"^  c #366186",
"/  c #3A6385",
"(  c #34628C",
")  c #3A668C",
"_  c #3C688F",
"`  c #356493",
"'  c #3A6693",
"]  c #366994",
"[  c #3B6B94",
"{  c #366798",
"}  c #376B9A",
"|  c #3B6C9B",
" . c #3C709D",
".. c #3C6DA2",
"X. c #3D71A3",
"o. c #3E74A9",
"O. c #3F79AB",
"+. c #426582",
"@. c #446986",
"#. c #4D6D86",
"$. c #406788",
"%. c #436D8D",
"&. c #4C6E8B",
"*. c #546E85",
"=. c #5C6F80",
"-. c #4D728C",
";. c #547186",
":. c #5B7186",
">. c #55738B",
",. c #58798C",
"<. c #4C7593",
"1. c #43759D",
"2. c #4D7B9F",
"3. c #547594",
"4. c #5B7691",
"5. c #567893",
"6. c #5E7A92",
"7. c #507798",
"8. c #517A9C",
"9. c #617D92",
"0. c #4175A5",
"q. c #4278A6",
"w. c #4275AB",
"e. c #437BAC",
"r. c #497EAC",
"t. c #447DB3",
"y. c #4B7EB3",
"u. c #447FB9",
"i. c #5F829C",
"p. c #628299",
"a. c #4782AE",
"s. c #4C81AB",
"d. c #5683A2",
"f. c #5A84A3",
"g. c #5685AC",
"h. c #5A87AA",
"j. c #5B8AAC",
"k. c #4581B5",
"l. c #4A83B4",
"z. c #4F89B7",
"x. c #4682B9",
"c. c #4985BC",
"v. c #4C89BD",
"b. c #5087B0",
"n. c #5C87B1",
"m. c #5C8DB5",
"M. c #528CBE",
"N. c #5290BF",
"B. c #5893BF",
"V. c #6386A2",
"C. c #6489A6",
"Z. c #648BAB",
"A. c #6C8DAA",
"S. c #648FB2",
"D. c #6492B4",
"F. c #6B94B3",
"G. c #6293BA",
"H. c #6996BB",
"J. c #6C9ABB",
"K. c #759CBB",
"L. c #4A86C1",
"P. c #4788C0",
"I. c #4D8CC3",
"U. c #4D8EC9",
"Y. c #518EC3",
"T. c #518FC9",
"R. c #4E91C7",
"E. c #4F91C9",
"W. c #5392C5",
"Q. c #5B93C4",
"!. c #5598C5",
"~. c #5F99C1",
"^. c #5394CC",
"/. c #5896CC",
"(. c #5598CE",
"). c #5B9ACE",
"_. c #5496D1",
"`. c #569AD3",
"'. c #5A9CD4",
"]. c #579DD9",
"[. c #599ED9",
"{. c #6B9DC4",
"}. c #6E9FC8",
"|. c #619FD8",
" X c #57A0D5",
".X c #5DA0D6",
"XX c #5CA2DC",
"oX c #5FA8DF",
"OX c #66A1CD",
"+X c #6EA3CB",
"@X c #77A2C2",
"#X c #75A6CE",
"$X c #62A3D6",
"%X c #6BA4D2",
"&X c #69A8D3",
"*X c #62A5DC",
"=X c #67AADF",
"-X c #6BAADD",
";X c #71A6D2",
":X c #75ACD5",
">X c #79A9D1",
",X c #74AEDE",
"<X c #7DB3DD",
"1X c #5FA5E1",
"2X c #61A7E2",
"3X c #64AAE3",
"4X c #6AADE3",
"5X c #67ADE8",
"6X c #69AFE9",
"7X c #70AFE4",
"8X c #6CB1E6",
"9X c #6DB3E9",
"0X c #73B4E5",
"qX c #72B5EA",
"wX c #7BB7EB",
"eX c #76B9ED",
"rX c #7ABBED",
"tX c #7BBDF1",
"yX c #83B3DD",
"uX c #80B9E6",
"iX c #82BEEB",
"pX c #86C1EF",
"aX c #85C2F2",
"sX c #89C4F2",
/* pixels */
"! ( [ | 0.q.y.l.l.z.v.Y.W.Y.Q.R.!.W.W.!.!.Q.^.^.!.Q.!.W.Y.Y.M.v.z.k.r.e.X.| ' ^ ",
"( [  .q.a.l.z.Y.Q.!.(.).'.).^.s.%.b q r p c / B.$X'.'.[.'.)././.W.Y.v.l.e.q.| [ ",
"| 0.q.l.M.Y.^./.'..X.X&X$X$Xm @ 2 w 3 2 w @.D w &.$X-X-X*X$X$X|.'././.Y.z.e.q.| ",
"0.e.z.Y.^.'.|.*X=X=X4X4X-X-Xj.j.%X%X&XOXB.3.f.5.4 <.qX4X0X7X4X-X-X*X.X).B.M.y.q.",
"e.l.Y./.'.*X3X4X8X9X9XqX+X#.wX0XD.D.F.H.H.Y F.pX{.#.;.H.%X0X0XqX0X8X=X$X'.W.v.s.",
"l.M./.'.$X-X4X7X9XeXeXeX{.a ;.,.p.V.V.V.C.F.yXsXiXiX#X4.;.U >.OX0X8X5X*X$X).M.l.",
"v.W.).$X2X4XqXqX9XrXrXiXZ.;.<XpXaXsXsXsXyXyXY A.yXaXaXiXf.Z.j.-.m.0X8X4X$X|.W.z.",
"M.Q.'.*X4X6X6XqXeXeXtXrX{.f.aXpXsXsXiXK.Y A.9.F.9.C.uXZ.L f.>.&.M n.4X3X$X'.!.v.",
"Y./.'.2X3X8X8X9X9XeXeXtX,XU &XpXaX>Xp.6.p.J.J.iXyXJ D.S.>.tX%X2.w p Q.4X$X X/.N.",
"Y./.[.$X3X3X5X6X9X9X9X9XqXj.K H.+X3.:X6.}.>.wXrX{.P 5.qXf.-.0X9X-.* w *X*X X/.Y.",
"W./.'.XX*X3X3X3X5X5X8X8X9X9X~.@.v p h.2.3.7.eX0X+.h.I 0X0X$.2.6X6X) + ).XX'./.M.",
"I./.'.XXXXoXoX1X3X3X5X5X5X3X5X6Xb.I - n v |.5Xg.S ).b 4X5X$Xp ^.3X=X0 N.[.).^.v.",
"W.^.'.'.XX1X1X1X3X1X1X3X3X1X3X1X=XXXZ l S =X.Xm M.<.6 1X3X3X0.x 1XoXa.(. X`.W.v.",
"W.^.'.[.XXXXXX1X1X1XXXoX1X1XXXoXoX1./ H a.oXa.X p 1 u 1X1X1X'.p 1.) (.[.'.(.^.I.",
"Y.^.). X].XXXXXX1XXXXXXX1X1XXX1X'.B G x (.1X[ u : o D  XXXXXXX[ X q ^.XX].(.W.R.",
"I.^.(.`.'.XX].XX1XXXXXXXXXXXXXXXl.g / _ XX/.u z.B f u i 0.a.S r G _.XX'.`./.W.I.",
"U.E./.`.`.].[.'.XX'.[.'.XX.X].XXZ C x z.XX1.x x.i '.`._ k p C r.[.'.].].(./.^.v.",
"v.W./.`.`.[.].[.].].].[.].].`.R.u _ x ].].d s.G ) ].[.'.[.'.].].[.`.].`._.^.W.v.",
"v.W.T._.(.`.`.].`.'.`.'.`.`.].G C f e.'.s.i Y.u a.'.`.`.`.`.`.].`.`.`.(.^.^.R.z.",
"c.Y.E._./._._.`.`._.'.(.`.`.^.u _ i `.(.d [ [ B `.`.`.`.`.'.(.(.`.(.(.`.^.E.I.c.",
"c.I.W.W.^./._._._.`._._./._./ B d ] _.c.r L.i X.`._._.`./._._._._.^.^.^.W.R.v.v.",
"c.I.I.W.E.^.E._.^.E.^._.^.U.i ' r W./.B G 0.i /._.E._.^.^._.E._._._.^.E.R.R.I.c.",
"x.P.I.U.W.W.I.^ g r d ( W. .h g ^ ^.k.r e.d ( E.E.E.E.E.E.^.E.^.W.E.W.Y.U.I.v.c.",
"x.z.c.I.Y.e.y i ^ 0./ 9 i 0 / i k.R.^ f e.r I.W.E.E.U.T.^.U.E.U.U.T.T.I.U.v.c.x.",
"k.x.c.I. .> & a.Y.U.I.c.; 1 k B U.c.i | N V Y.I.U.U.I.U.U.U.I.U.U.U.I.I.I.v.x.x.",
"e.k.c.c.| ^ G i U.I.I.x.+ B g } I. .r x.r t.U.Y.I.I.I.I.I.I.Y.I.L.I.v.v.v.c.k.k.",
"e.t.k.B ^ v.c.7 X.v.I.x.> R k c.c.N Q G d v.L.I.I.I.L.I.I.L.I.v.L.I.I.v.x.c.k.t.",
"w.t.e.r 7 x.v.^ r x.I.( r G ^ v.t.7 x.1 + f } L.c.v.L.c.c.P.L.c.I.c.c.c.x.k.t.e.",
"o.w.e.( O ' x.c.s F c.9 Q i t.c.B k ) h B $ 7 s O.c.c.c.c.x.L.c.c.c.c.x.x.t.t.e.",
" .o.w.e.r # ' x.w.i N i N k x.u.7 | k G Q s t.k , ' x.x.x.x.x.x.u.x.u.t.t.e.w.w.",
"..X.w.w.} = O C t.u.; G 0 X.x.W 9 X.< 6 s t.x.u.B 8 x.x.u.x.x.u.t.u.t.t.t.w.0...",
"] [ | 0.w.^ % + 9 y $ N i u.u.i ] k = R u.t.t.u.e.8 o.t.u.t.t.t.t.t.t.e.0.X.| | ",
"' ` } | o...Z $ > s ! 8 } t.' y ..8 X.t.t.u.t.O.! ; } t.t.t.t.t.t.O.w.o.....} { ",
"E ` ] } ..o.X.( ; X > ; ( w.i V ! % i 9 r 9 6 5 ; . o.t.t.O.o.w.o.X.....} { ' ( ",
"Q Q ! ` ' } ....| 8 h F 6 5 6 X.8 7 V N N N Q w.R 5 0.w.o.o.w.X...0.} } { ` ! R ",
"V V W E ! ` ` ' } ......0.<   y & e N N V ` { V ( ....o.......| | { ` ' ! E R T ",
"B B V T T E ! ` ` { { } { ! s O   O ; y 9 > + $ N ....} } } { { ` ` ! ! Q T V B ",
"N N V B V T R R E ( ` ( ~ ` ` Q % ; > 5 > & y R { } ] ' ` ] ` ` ( ! Q F T N N N ",
"N j N N N V V T R E Q ! ( ! ! ~ ~ ! Q k V ! ` ` ` ( ` ( ~ ` ! E ! T V V N N N N ",
"h j j j N N N V V V T W Q Q Q ! Q ! E ! ~ ! ! ! ! E ! E ! R R R T V V N N N N h "
};
