/* XPM */
static char *bt____lkzxnnstpreoit_quao_numygy_______out[] = {
/* columns rows colors chars-per-pixel */
"40 40 151 2",
"   c #060B0F",
".  c #090D0E",
"X  c #0E0F11",
"o  c #0B1111",
"O  c #0E171E",
"+  c #101A1D",
"@  c #131B23",
"#  c #111D2B",
"$  c #10212B",
"%  c #1B242D",
"&  c #152534",
"*  c #192734",
"=  c #162937",
"-  c #182835",
";  c #162A3A",
":  c #1A2C3B",
">  c #1A303E",
",  c #21323D",
"<  c #162C41",
"1  c #192D42",
"2  c #1C3244",
"3  c #1C354B",
"4  c #1E394D",
"5  c #233342",
"6  c #283C47",
"7  c #20364B",
"8  c #223A4D",
"9  c #283949",
"0  c #203550",
"q  c #233D53",
"w  c #213E5A",
"e  c #254055",
"r  c #2E4557",
"t  c #23425C",
"y  c #2D475E",
"u  c #2E4859",
"i  c #324856",
"p  c #30445C",
"a  c #364D5F",
"s  c #264361",
"d  c #2C4B63",
"f  c #274A6E",
"g  c #2A4B6C",
"h  c #375265",
"j  c #31536F",
"k  c #3B5569",
"l  c #274D72",
"z  c #294D73",
"x  c #2A5175",
"c  c #2D537B",
"v  c #325673",
"b  c #345976",
"n  c #3E5E73",
"m  c #30557F",
"M  c #335C7E",
"N  c #2E5681",
"B  c #2F5983",
"V  c #315C85",
"C  c #325E8A",
"Z  c #376386",
"A  c #34618D",
"S  c #3A668B",
"D  c #356493",
"F  c #396694",
"G  c #356897",
"H  c #3A6994",
"J  c #376799",
"K  c #396798",
"L  c #376A99",
"P  c #3A6C9C",
"I  c #3C719D",
"U  c #3C6EA1",
"Y  c #3D71A4",
"T  c #3F76A9",
"R  c #3E78AA",
"E  c #3F7DB0",
"W  c #486C86",
"Q  c #416A8A",
"!  c #4D718B",
"~  c #426F98",
"^  c #407297",
"/  c #44749D",
"(  c #49759A",
")  c #44789F",
"_  c #4274A4",
"`  c #4578A4",
"'  c #4A7CA1",
"]  c #4175AA",
"[  c #437AAC",
"{  c #4A7FAD",
"}  c #4377B0",
"|  c #437DB3",
" . c #497FB3",
".. c #467FBA",
"X. c #487FB8",
"o. c #4D83AD",
"O. c #5883A6",
"+. c #4581B5",
"@. c #4A83B4",
"#. c #4D88B6",
"$. c #4682BA",
"%. c #4986BD",
"&. c #4C89BE",
"*. c #5E8AB1",
"=. c #518CBE",
"-. c #6195BD",
";. c #4A87C0",
":. c #4D8BC3",
">. c #4D8FC9",
",. c #518EC3",
"<. c #518EC9",
"1. c #4F90C9",
"2. c #5392C6",
"3. c #5E99C5",
"4. c #5394CC",
"5. c #5896CB",
"6. c #5498CE",
"7. c #5B9ACE",
"8. c #5496D0",
"9. c #569AD3",
"0. c #5A9DD4",
"q. c #579CD8",
"w. c #5A9ED9",
"e. c #57A0D7",
"r. c #5EA1D5",
"t. c #5CA2DC",
"y. c #62A3D7",
"u. c #6BA8D5",
"i. c #62A5DB",
"p. c #66A9DE",
"a. c #68A9DF",
"s. c #5EA5E0",
"d. c #5FAAE3",
"f. c #60A6E1",
"g. c #64ABE4",
"h. c #6AADE3",
"j. c #67ADE8",
"k. c #68AEEA",
"l. c #6DB1E5",
"z. c #6CB2E9",
"x. c #72B3E7",
"c. c #73B5EA",
"v. c #76B9ED",
"b. c #7CBCED",
"n. c #7DBDF1",
"m. c #81BFEE",
"M. c #81BEF0",
"N. c #84C1EF",
"B. c #88C3EF",
"V. c #84C2F1",
"C. c #8AC4F1",
/* pixels */
"C A H P _ ] { #.#.&.=.=.2.2.2.2.2.2.2.7.7.5.5.5.4.5.2.2.2.2.&.=.#.@.{ ] Y I S A ",
"A H I _ { @.&.,.2.3.6.5.7.7.7.r.r.r.r.r.y.y.r.r.r.r.r.r.7.7.5.5.2.=.%.@.{ ` I H ",
"P _ ` #.&.,.2.7.7.r.r.y.t.i.p.u.a.a.a.a.a.a.a.h.p.p.u.p.i.i.y.r.r.7.5.2.#.o._ P ",
"_ { #.,.5.0.0.i.i.p.l.l.l.l.x.x.x.x.x.c.x.v.x.c.c.c.x.z.x.h.h.a.a.i.0.3.2.&.@._ ",
"{ @.,.7.y.y.p.h.z.z.z.c.x.v.v.v.b.b.b.b.m.b.m.m.b.v.b.v.b.x.x.x.l.h.p.y.7.2.&.o.",
"@.=.4.0.y.h.h.z.c.c.v.v.b.b.N.m.B.B.B.C.C.C.C.C.V.B.B.M.b.b.v.v.x.x.h.p.r.7.=.o.",
"#.2.7.r.a.j.k.c.c.v.v.n.N.N.N.V.C.C.C.C.C.C.C.C.C.C.V.V.V.n.b.v.v.z.l.h.i.r.=.=.",
"#.5.0.p.g.j.z.c.v.n.v.b.N.b.V.N.B.V.C.C.C.C.C.C.C.B.V.N.M.M.n.v.v.z.l.l.t.7.5.=.",
",.4.0.i.g.j.z.z.c.v.v.v.b.b.n.N.V.V.V.V.B.C.B.V.m.M.m.m.b.v.v.v.c.z.l.g.r.r.5.=.",
",.7.0.i.g.g.j.z.k.z.z.c.v.v.v.b.b.n.b.b.b.m.b.b.b.b.b.-.O.W n i , % + @ o @ S 2.",
",.6.0.i.i.g.g.j.g.k.z.z.z.l.c.z.c.c.x.c.c.u.*.! k a i k k i , 5 9 : @ V 2.#.=.,.",
",.6.0.t.s.f.f.g.j.g.g.j.g.l.g.z.z.h.3.Q 9 6 p v ' 7.h.( y b o.g.( q f.i.e.0.2.&.",
",.6.9.0.t.s.f.f.d.s.d.d.g.r.@.b q & * . o ,.h.g.g.0.d @ - x #.^ q t.t.t.e.9.4.:.",
",.4.9.0.t.t.s.t.s.s.t.s./ > > d / o.e 8 ) d.t.i.2.8 Z d.o.b 2 : 6.s.t.w.0.5.4.=.",
":.4.9.0.w.t.t.t.d.e.s.s.q.r.s.t.{ 3 S t.t.t.t.` > ` s.t.s.t.i.t.i.t.t.e.9.6.1.=.",
",.4.6.9.w.t.w.t.t.t.t.t.r.t.s.I 3 o.r.t.t.t.` 8 2.t.t.w.s.w.t.t.w.t.e.0.9.6.2.&.",
":.4.2.0.q.q.w.q.t.w.w.w.t.0.I 3 2.t.w.t.e.2.2 %.w.0.w.0.w.w.w.w.w.w.q.q.6.4.2.:.",
",.<.6.6.8.0.0.0.9.w.0.w.w.P 8 2.w.0.q.q.2.7 / 0.w.0.q.q.e.w.0.e.0.0.9.9.8.4.>.&.",
"&.,.4.8.9.8.9.q.q.9.0.9.&.: ,.9.9.q.0.9.q V 9.9.0.q.9.0.q.9.q.q.9.9.9.9.6.4.:.&.",
"%.,.<.8.6.8.9.9.9.9.9.&.3 / 9.9.9.9.8.S 3 9.9.8.9.9.9.9.8.0.9.8.8.9.6.4.4.1.,.&.",
";.&.,.4.4.8.6.6.8.8.8.4 x 6.6.8.6.4.2.2 1.4.6.6.+.Z 8 %.6.8.8.4.4.8.4.4.2.2.;.&.",
"%.&.:.>.<.6.4.4.8.4.H 2 4.8.6.4.1.8.2 & g g 2 < $   = ;.4.8.8.4.4.4.1.4.1.>.;.&.",
"+.;.:.:.2.>.1.4.1.2.; [ 1.4.1.4.1.4.c t t d V 2 : ` 4.1.4.4.>.4.4.4.4.2.>.&.:.#.",
"@.#.&.:.>.>.@.M 2 # g 1.>.1.1.1.1.1.2.1.4.V = g 1.1.1.<.<.>.1.>.>.2.>.:.:.:.&.+.",
" .< 2 < & & & ; x [ :.>.:.,.>.:.,.>.:.[ < 2 | >.>.,.:.<.:.<.<.:.1.:.:.:.:.&.$.+.",
"| 2 O v ;.+.;.:.;.:.:.:.;.>.:.:.:.:.H 2 Z :.:.:.:.:.:.:.:.:.:.:.:.;.:.;.;.#.+.+.",
"] X.C : V &.:.;.;.&.;.:.:.;.:.;.;.V ; P &.&.;.;.:.:.&.:.;.:.:.;.:.&.;.&.%.$.+.| ",
"R [  .I < e ;.;.%.:.%.%.;.;.&.&.s 2 $.;.%.%.;.;.%.;.%.%.;.;.;.;.;.;.%.%.$.+.+.[ ",
"Y R { +.+.q : R %.%.$.$.%.%.$.w 4 +.;.;.$.;.$.;.$.%.%.%.%.%.%.;.$.%.%.$.X. .| [ ",
"I ] ] | X.X.c & V $.$.;.$.$.w t $.$.$.X.;.$.$.$.$.$.$.$.X.......$.+.+.| | | ] ] ",
"P Y R ] ] X...I ; 0 ..+.$.q w $...$.X.$.$...;.| $.$.$.$.$.$.....X.X.+.| [ ] _ U ",
"F P U Y _ ] | | | w & C c 1 | | $.+.| | | ..E $.| E | | | | | | | | | [ Y Y U P ",
"A G P U _ ] ] ] | | A ; 1 ] | | ..} | | | | ....} } ..E ..E E } E } T Y U U K F ",
"C D G L P _ U ] R ] } ] | E | | } E E | E } E } } E } E T E T E T T U U P K D C ",
"B V C A F K P U U U U ] U ] ] T T T T T T } T T T T T } T T Y Y _ Y U J K D C N ",
"c N V V C D F F U U U U U U Y Y Y Y Y U Y Y Y Y Y U Y Y U U U U J J D D C C B N ",
"x x c N V C C D D G J J P P U U U J U U U U L U U U U U J U J J D D C C N N N x ",
"z z z c c N N C C C D D D D D D G G G G G J G G J J D D D D D C C C V N c c z z ",
"f z z z z c N N B B C C C C C D C D D D C D D D D D D D C C D C C N N c x z z g ",
"f f f f z z z c N N B B B B C B C C C C C C B C C C C C C B N C N N x z z z z g "
};
