/* XPM */
static char *bt_____abqf__o_h_hbtqi_ww_s__bwi_______out[] = {
/* columns rows colors chars-per-pixel */
"40 40 129 2",
"   c #030708",
".  c #090E14",
"X  c #081214",
"o  c #0B141C",
"O  c #0D181E",
"+  c #121D27",
"@  c #101E2A",
"#  c #14212C",
"$  c #142432",
"%  c #172935",
"&  c #162B3C",
"*  c #1A2D3C",
"=  c #1D303E",
"-  c #192E41",
";  c #1C3244",
":  c #1D354B",
">  c #1E394E",
",  c #1D3A51",
"<  c #213A4E",
"1  c #223C53",
"2  c #243F5B",
"3  c #264156",
"4  c #25435B",
"5  c #2A455B",
"6  c #29485D",
"7  c #264461",
"8  c #284661",
"9  c #274965",
"0  c #2A4A64",
"q  c #274A6E",
"w  c #2A4B6C",
"e  c #2C516D",
"r  c #31506D",
"t  c #274D72",
"y  c #294D73",
"u  c #2C5274",
"i  c #2D547B",
"p  c #2F5A7D",
"a  c #315574",
"s  c #375B75",
"d  c #31567C",
"f  c #345B7C",
"g  c #2E5781",
"h  c #2F5983",
"j  c #325C85",
"k  c #385E82",
"l  c #325E8A",
"z  c #366184",
"x  c #386487",
"c  c #34628D",
"v  c #3A668C",
"b  c #3C6A8E",
"n  c #356493",
"m  c #396692",
"M  c #356897",
"N  c #3B6A94",
"B  c #376798",
"V  c #396798",
"C  c #376A99",
"Z  c #3A6C9C",
"A  c #3E729C",
"S  c #3C6EA2",
"D  c #3D71A4",
"F  c #3F74A9",
"G  c #41729D",
"H  c #4275A4",
"J  c #4479A5",
"K  c #4879A2",
"L  c #4175AA",
"P  c #437AAC",
"I  c #497DAD",
"U  c #447DB4",
"Y  c #4A7FB2",
"T  c #457FBA",
"R  c #487FB8",
"E  c #4D81A9",
"W  c #5085AD",
"Q  c #4681B6",
"!  c #4A83B4",
"~  c #4B88B7",
"^  c #4682BA",
"/  c #4985BC",
"(  c #4C89BD",
")  c #5388B2",
"_  c #518CBE",
"`  c #4785C0",
"'  c #4A87C1",
"]  c #4C8BC3",
"[  c #4E8EC8",
"{  c #518EC3",
"}  c #518FC8",
"|  c #4F91C5",
" . c #4F91CA",
".. c #5392C5",
"X. c #5C96C6",
"o. c #5394CB",
"O. c #5896CB",
"+. c #5598CE",
"@. c #5B99CE",
"#. c #5495D1",
"$. c #559AD3",
"%. c #5B9DD3",
"&. c #579DD8",
"*. c #5A9EDA",
"=. c #5EA1D5",
"-. c #5CA2DB",
";. c #62A3D7",
":. c #63A5DB",
">. c #66A9DE",
",. c #68A9DF",
"<. c #5DA6E1",
"1. c #61A7E2",
"2. c #64ABE3",
"3. c #6AADE3",
"4. c #66ACE8",
"5. c #6AAFE8",
"6. c #67B0E5",
"7. c #6CB1E6",
"8. c #6DB2EA",
"9. c #72B3E7",
"0. c #73B5EA",
"q. c #76B9EC",
"w. c #7CBCED",
"e. c #7DBDF1",
"r. c #81BEEE",
"t. c #82BFF1",
"y. c #85C1EF",
"u. c #84C2F1",
"i. c #8AC4F1",
/* pixels */
"l c N Z H H Y ! ~ ~ _ _ ............o.X.X.O.O.O.O.O......._ _ _ / ! I J D N v c ",
"c N A J Y ! ( { ..O.O.@.+.@.@.=.;.=.=.=.=.;.=.=.=.@.=.=.@.@.O.O...{ ( ! E J Z N ",
"Z A I ! ( { o.@.@.=.;.;.:.:.>.>.,.>.>.,.,.3.3.,.,.,.>.>.:.;.;.=.=.@.X._ ~ Y J Z ",
"H I ! | O.%.=.;.>.>.3.6.7.7.9.9.9.9.0.0.9.q.9.0.0.0.0.7.9.3.7.2.>.:.;.@.O./ ! H ",
"I ! { O.%.;.2.3.7.8.0.9.0.q.q.w.w.r.w.r.w.r.w.r.r.w.w.q.q.0.0.9.7.3.:.;.@...( E ",
"! _ O.%.;.3.3.9.8.q.q.q.w.w.w.y.y.y.y.i.i.i.i.i.y.u.r.t.r.w.q.q.9.9.7.:.;.O._ ~ ",
"~ ..%.;.2.3.5.0.0.q.q.w.y.r.y.u.i.i.i.i.i.i.i.i.i.i.u.u.y.e.w.q.q.8.8.,.:.=...~ ",
"( O.%.;.2.5.8.0.q.q.e.w.r.y.u.u.y.i.i.i.i.i.i.i.i.i.u.y.t.r.w.q.q.9.7.6.:.@.+._ ",
"{ O.%.>.2.7.7.8.8.q.q.q.w.w.r.e.t.u.y.i.i.y.i.y.r.t.y.r.w.q.q.q.q.8.4.2.-.=.O._ ",
"{ O.*.;.2.4.6.7.8.8.0.8.q.q.q.w.q.w.w.w.w.w.w.r.w.w.q.q.0.q.9.8.7.7.6.2.;.%.O.( ",
"..+.%.-.-.4.2.4.4.6.5.7.7.8.8.8.0.0.q.0.0.q.0.0.0.0.0.9.8.7.7.7.8.2.2.<.-.$.O...",
"| O.%.=.<.2.<.4.4.4.4.4.4.4.3.6.3.3.7.3.3.6.3.6.X.E ) I %.2.6.4.<.>.2.:.-.%.o.( ",
"| O.$.-.-.<.1.-.<.<.2.6.-.6.2.2.2.2.2.2.E b r 5 5 s s = * < 3 6 r G -.-.=.$.o._ ",
"..o.$.%.-.-.<.<.<.<.-.-.=.G 0 3 1 1 # + & 5 K .._ G x f 4 X 1 I f 5 < f ( +.o.] ",
"] o.$.%.*.*.-.=.-._ u 3 , 4 f ~ +.] < + 1 1 1 3 < 5 e u N ! ..%.@...J 4 = 0 J ] ",
"{  .+.%.%.<.#.N > ; 4 G | ..O.%.=.<.-.=.-.=.! ~ -.-.=.{ K a 6 1 < , 1 1 : # $ v ",
"{ o.o.%.} J ; O ; 6 w 4 + o + b *.*.-.*.-.*.*.*.=.-.o.; o 4 A ~ ~ %.%.$.o.G & X ",
"] o.o.I *   o $ w I $.k + : 4 Z *.*.$.Y ( %.$.*.&.$.%.| k 4 v | $.o./ A f 4 @ = ",
"( } ! # o k ! H 0 > 1 ; f { %.$.] x 9 < 1 k o.$.&.$.&.$.$.! 4 1 e 7 < , w f : A ",
"' ~ 9 4 j 0 a d 4 : k } %.+.! d > 6 z H N 7 3 J $.#.$.$.#.$.o.A f v G ] o.c 4 ! ",
"( N 1 / } A N v G o.o.#.~ y : r G [ #.#.#.#.H : w o.$.$.+.#.+.#.o.#.o.o.! < N ( ",
"^ u 0 }  .o.o.#.o.o.o.[ 1 , J o.o.o. .o.J f 7 % i o.o.o.O.#. . .#.o.o. .d 4 / / ",
"I 4 u { ..}  . .o.o.o. .N < : , ; : & - - , C /  .o. . . .o.o.o.o. . .P : A ( / ",
"D > p ] ] } o. .[ ( ^ N i 1 % @ # $ $ & ; > > 4 w H / ]  .}  . .[ ..[ a 7 ( ( / ",
"H : p ] ( ] ] ! x , * : 7 j U ] [ [ ] [  .F A p 4 : & 4 c F ~ [ [ [ F ; L ( ^ Q ",
"L 2 e / ( D u - , c ] ] ( [ ] ] ] ] ] ] [ ] ] | ] ] J t < - , v J / 3 p / / ^ U ",
"J i 4 U u ; 4 N ' ] ' ] ] ] ] ' ] ] ] ( ] ] / ] ( ' ' ] ' ! i : > 2 1 / ( ^ Q ! ",
"L N - : 4 Z / ' ( ' / / / / / ( / ' ` ] / ' ' / ( / / / / ' ] ^ c 7 J / ^ Q U P ",
"F L 9 2 U ^ ^ / ` ^ / ` ` ^ / / / ` ` / / / / ` / ' ^ ` / / / / ^ / / ^ R U U L ",
"D D L U Y ^ ^ / ^ / ^ ^ ^ ^ ^ ^ ^ ^ / T ^ ^ ^ ^ ^ ^ ^ ^ ^ ^ ^ ^ ^ Q T Q U U L L ",
"Z D D F J U U U ^ ^ U ^ ^ Q ^ T ^ ^ T T ^ ^ T ^ T Q ^ ` ^ / ^ ^ T T U U P P F S ",
"N V S L L P U U ^ F Q Q T U Q U U U Q U T U U Q U Q ^ F Q F T U P U U J L Z G C ",
"n M C S H L L L L T U U U U U U T F T ^ T U U U U U U F T F T ^ F T F F S S C V ",
"j n M C V S L S L L U L L U U F T F U F T F U U U F F T F F F F F F D D V B n c ",
"h j l c V G Z S S S D D F L F F F F F F F F F F F F L L F F S F S S Z C B n l h ",
"i i j l l c V V S S S S S S F F D D D S D D F D F F D F S S S S V V M n l h h g ",
"u u g g h l l n n B n B V S S B S S S S S S S S S S S S M S M M V n c j h g g u ",
"t y y i i g h h l l n n n n n n n n n n n B n B B n n n n n n l c c j i i i u y ",
"t q q y y i g g h h l l l c l n n n n n n l l n n n c n n l l l h h i i u y y q ",
"q q y q y y y i g h h h h h h l l l h l l l l l l l l l h l h l g i i y y y q q "
};
