/* XPM */
static char *bt____l__wt__bc_evp_rza_kdtw_dh________out[] = {
/* columns rows colors chars-per-pixel */
"40 40 185 2",
"   c #03070A",
".  c #05090D",
"X  c #060E11",
"o  c #090E14",
"O  c #0B1216",
"+  c #0B141D",
"@  c #0C1524",
"#  c #0D1A24",
"$  c #0F1E2B",
"%  c #101721",
"&  c #111D26",
"*  c #121E2A",
"=  c #0E202C",
"-  c #172027",
";  c #12212E",
":  c #132433",
">  c #162836",
",  c #172A3B",
"<  c #192B3C",
"1  c #162C41",
"2  c #1A2E42",
"3  c #1C3245",
"4  c #1D354C",
"5  c #1E394D",
"6  c #1E3A52",
"7  c #1F3C5A",
"8  c #233645",
"9  c #21364B",
"0  c #23394E",
"q  c #2D3D4A",
"w  c #223B52",
"e  c #293F54",
"r  c #213C5A",
"t  c #234052",
"y  c #2C4154",
"u  c #25425D",
"i  c #2B465C",
"p  c #334D5E",
"a  c #3A4D5C",
"s  c #254461",
"d  c #294762",
"f  c #2A4B66",
"g  c #274A6E",
"h  c #2A4C6B",
"j  c #2D526D",
"k  c #274D71",
"l  c #294D73",
"z  c #2B5176",
"x  c #2D547B",
"c  c #2F5A7E",
"v  c #305474",
"b  c #365975",
"n  c #31557C",
"m  c #315879",
"M  c #3B5D7A",
"N  c #425564",
"B  c #4E5B64",
"V  c #425768",
"C  c #445A6C",
"Z  c #4D5F6B",
"A  c #515E67",
"S  c #54626F",
"D  c #466176",
"F  c #4D6476",
"G  c #4D667A",
"H  c #516573",
"J  c #536A7B",
"K  c #2E5781",
"L  c #2F5983",
"P  c #315B85",
"I  c #325E8A",
"U  c #345F92",
"Y  c #356185",
"T  c #3F6685",
"R  c #34628D",
"E  c #39658A",
"W  c #3D6A8F",
"Q  c #356494",
"!  c #396694",
"~  c #366996",
"^  c #3B6A95",
"/  c #356798",
"(  c #396799",
")  c #376A9B",
"_  c #3A6C9C",
"`  c #3D729E",
"'  c #3B6EA1",
"]  c #3773A5",
"[  c #3E72A4",
"{  c #3F75AA",
"}  c #426686",
"|  c #466883",
" . c #486A86",
".. c #536C81",
"X. c #4D7086",
"o. c #4D728F",
"O. c #547184",
"+. c #547388",
"@. c #437195",
"#. c #4D7191",
"$. c #43749D",
"%. c #527998",
"&. c #5F7F98",
"*. c #607789",
"=. c #607B8E",
"-. c #406FA3",
";. c #4174A5",
":. c #4778A0",
">. c #4A7BA3",
",. c #4175AA",
"<. c #437AAC",
"1. c #497EAD",
"2. c #4377B1",
"3. c #447DB4",
"4. c #497FB5",
"5. c #467FB8",
"6. c #5D809C",
"7. c #62829D",
"8. c #5582A9",
"9. c #4681B5",
"0. c #4A83B4",
"q. c #4682BA",
"w. c #4985BC",
"e. c #4C89BD",
"r. c #598DB5",
"t. c #518DBF",
"y. c #6789A4",
"u. c #6A8EAB",
"i. c #6990AD",
"p. c #6D90B0",
"a. c #6F9BBC",
"s. c #759CBD",
"d. c #4886C1",
"f. c #4788C2",
"g. c #4D8CC3",
"h. c #4D8DC9",
"j. c #518EC3",
"k. c #538FCB",
"l. c #4E91C5",
"z. c #4F91C9",
"x. c #5391C5",
"c. c #5394CC",
"v. c #5896CB",
"b. c #5698CD",
"n. c #5B99CD",
"m. c #5496D0",
"M. c #569AD3",
"N. c #5A9DD4",
"B. c #569DD8",
"V. c #5A9EDA",
"C. c #619FD8",
"Z. c #5EA1D5",
"A. c #5CA3DC",
"S. c #6DA7CF",
"D. c #77A5C9",
"F. c #61A1D4",
"G. c #62A5DC",
"H. c #66A9DE",
"J. c #69AADF",
"K. c #72A7D3",
"L. c #78ABD6",
"P. c #72AFDC",
"I. c #5EA5E0",
"U. c #5EA9E3",
"Y. c #61A6E1",
"T. c #64ABE4",
"R. c #6AADE3",
"E. c #6AAFE8",
"W. c #6CB1E5",
"Q. c #6DB2EA",
"!. c #73B4E6",
"~. c #7BB3E1",
"^. c #7EB9E6",
"/. c #73B5EA",
"(. c #7AB7EA",
"). c #75B9ED",
"_. c #7DBCED",
"`. c #77B8F0",
"'. c #7DBCF0",
"]. c #83BEED",
"[. c #83BEF0",
"{. c #84C2EF",
"}. c #88C0EF",
"|. c #87C4F1",
" X c #8AC2F1",
/* pixels */
"I R ^ _ ;.;.1.0.0.e.t.t.t.x.x.x.v.x.x.b.b.b.b.b.v.v.x.x.t.x.t.e.w.0.1.<.` ^ W R ",
"R ^ ` <.0.0.e.t.x.v.n.b.N.N.n.Z.Z.Z.F.F.F.Z.Z.Z.F.N.Z.N.Z.b.b.v.c.t.e.0.1.:._ ^ ",
"_ $.<.0.e.x.x.n.n.F.Z.G.Z.H.H.H.H.J.H.R.J.J.J.H.H.R.H.H.G.G.F.F.Z.n.v.x.e.0.:._ ",
";.<.0.x.v.n.Z.G.H.H.W.R.W.W.P.!.!.!.!.).!.(.(.!.(.!.!.W.~.W.R.J.J.F.C.n.x.e.0.;.",
"<.0.j.v.Z.F.R.R.W.Q.!./.(.).(.'._._.^._.{.'._.{._.'.(.(.).)././.W.R.H.F.n.x.0.8.",
"0.t.v.N.G.H.R.Q.Q./.).)._._.L.J H J S H 7.i.D.s.].{.{.'.^._.(.).).W.R.G.F.b.t.0.",
"t.x.N.C.Y.R.Q./.).`._.'._.7...J J O.J S S S S B A J u.].{.'._.).).W.W.R.G.Z.x.t.",
"t.x.N.G.R.E.E./.`.`._.P.N G ^.{.[. X Xp.+.=.7.s.u.J F O.~.'.'.`.)./.W.W.A.n.v.t.",
"j.v.N.G.T.Q.E.Q./.).).M D O.F G ....H y.{.{.&.s.~.|.{.K. .(._.).Q.Q.Q.T.G.Z.b.e.",
"t.n.N.G.Y.T.T.Q.W.Q.M o./.).)._.S.Z 7._.]._.^.N C C C D a q Q.Q.W.Q.T.T.A.N.b.t.",
"x.b.N.A.U.T.T.E.T.8.i W.Q.W.Q.!.#.} /.).!./.). .%.!.W.r.8.p T Q.W.T.Y.Y.A.N.c.j.",
"j.b.Z.A.I.I.T.T.Z.- < 8 i i b } y T.T.Q.R.W.W.n.e R.T.T.T.G.8 T.T.T.G.A.Z.N.x.e.",
"l.b.M.A.A.G.Y.A.T u T.Z.:.:.b = >.Y.T.T.T.T.T.T.i 3 $.` n.T.u @.U.Y.A.A.A.M.c.t.",
"g.c.B.N.A.A.I.A.3 0.A.A.A.U.Z.8 Y.Y.Y.Y.Y.Y.U.Y.@.- t t 3 < ; > I.A.A.A.N.b.c.e.",
"j.v.b.N.A.A.V.0.t A.A.A.A.A.d m A.G.A.A.A.I.A.A.>.6 A.A.A.A.l.> c.A.A.A.B.b.x.g.",
"g.c.c.B.M.A.V.5 + 5 j j ^ 0.< x.A.A.A.A.A.A.A.A.A., A.A.A.A.A.3 0.Z.B.N.M.c.c.e.",
"g.c.m.B.M.Z.A.< Y $.h f 0 ; 3 N.A.V.A.V.V.V.V.V.V.2 0.Z.B.Z.A.u E N.N.N.b.z.l.e.",
"g.g.b.m.B.m.V.> N.N.V.B.Z.h z V.B.B.B.N.B.V.V.N.V., & < 3 i d , f M.B.M.m.m.x.e.",
"g.j.c.m.m.M.w.< M.M.M.M.B.4 ^ M.N.M.M.M.M.M.M.M.B.3 ^ 0.:.j h # 4 M.m.b.v.c.g.e.",
"w.j.l.b.b.b.E 4 M.M.M.N.M., 0.M.M.m.M.M.M.M.M.M.M.3 ^ M.B.m.m.j j M.m.m.z.c.g.e.",
"e.g.j.c.m.m._ o > < 4 9 f > c.c.m.m.m.m.m.m.m.m.v.< e.m.m.b.m.s h b.l.c.z.l.l.w.",
"w.e.g.j.z.c.R 8 c.3.E P 4 $ c.c.c.c.m.c.m.z.z.m.z.= <.c.z.c.z.f f m.c.z.z.g.e.e.",
"w.w.g.j.x.c.Y 3 c.z.v.c.x.< c.z.c.c.z.c.z.c.c.c.g.# > > , 3 4 : h z.z.c.l.g.e.0.",
"4.w.f.h.g.j.R 4 g.c.l.h.9., z.c.h.z.h.z.z.h.h.z.c 0 z.l.q.W R + ^ x.j.j.g.f.w.5.",
"1.w.w.e.g.g.R & E _ w.g.g.< <.g.g.j.h.j.j.h.h.g.0 z h.l.g.h.f.< g.k.g.g.g.e.w.9.",
"3.5.w.w.w.g.w.+ 3 < > > < @ { g.h.g.g.j.h.g.g.g., e.g.g.g.g.x 5 g.g.g.w.e.w.q.3.",
"<.9.0.q.w.d.e.2 2.f.e.3._ ; R e.d.g.f.e.g.d.g.<.# r u E ^ 9.4 m e.f.w.f.w.w.3.<.",
";.<.5.9.w.w.e.u u d.e.d.e.x 4 e.w.w.d.e.f.w.w.6 4 d u , 1 : O <.e.f.w.w.q.w.3.<.",
"{ <.3.3.0.q.w.R : ' w.q.q.5., d.w.w.w.w.w.w.R , w.w.0.w.w.u 7 q.q.w.w.q.9.3.3.<.",
"[ { { <.3.9.0.w.$ # > : 2 1 + ' q.q.q.q.w.q., ^ q.q.q.w.3.: 3.q.q.q.3.9.5.2.;.;.",
"^ [ { ,.<.5.3.5.^ , 5.9.P c 4 3 q.q.q.5.q.x o 2 4 s K P 4 s 5.q.9.5.3.<.3.<.[ [ ",
"~ ^ ' ;.{ 2.{ 3.5.6 r 5.3.5.q.4 x 3.3.3.z 2 [ x s r 1 # : 3.3.3.3.3.2.<.{ [ ' ^ ",
"Q / ) ' ;.;.,.<.{ <.$ X : 3 4 2 @ 2.3.h 2 <.3.3.3.3.R 4 2.3.3.<.3.{ <.[ ' ' ^ / ",
"I R / ) _ -.{ { { 2.2.2 * 4 6 g > + # % : : , 1 7 , 2 ] { 2.{ 2.{ { [ ' _ ( Q U ",
"K P I R ^ ( _ ' ' ' { [ n , @ > +   . : k s u : . @ ;.,.{ { { ] [ ' _ ^ / Q I L ",
"c c K I I U ( ( _ ' ' ' ' [ ' ) ' K g 1 1 : # 7 ' [ ] ' ' ' ' _ _ ^ / Q I P L x ",
"l z x K L I U I Q / / / ( _ ' ( ' ) ' ) _ ' _ ' ' _ ' ^ ' _ ~ / Q Q I P L K x x ",
"l l l x x K K P I I Q Q Q U Q / / Q / / ( / / ) ( / / / Q Q Q Q R I P K K x z l ",
"k l g l l x K K K L P I I Q Q I U Q Q Q I Q Q Q Q Q Q U U U I I I K x x l l l g ",
"g g g l l l l x x c K c L L P I I P I I I P P I I I P I P L P K K x z l l l k g "
};
