/* XPM */
static char *bt____u_rpgxrza_l___burvz_k__hrw_______out[] = {
/* columns rows colors chars-per-pixel */
"40 40 162 2",
"   c #15263A",
".  c #162B3D",
"X  c #172E40",
"o  c #192D44",
"O  c #1B3345",
"+  c #1C344A",
"@  c #1F384E",
"#  c #1F3D57",
"$  c #21374E",
"%  c #233A4C",
"&  c #223B54",
"*  c #233E5B",
"=  c #254157",
"-  c #24425C",
";  c #2A465E",
":  c #254563",
">  c #2B4A65",
",  c #26476A",
"<  c #274A6C",
"1  c #294B6B",
"2  c #334D66",
"3  c #365166",
"4  c #33536B",
"5  c #3D576E",
"6  c #274D72",
"7  c #294D73",
"8  c #2B5175",
"9  c #2D547B",
"0  c #2C587F",
"q  c #325676",
"w  c #355874",
"e  c #3A5B76",
"r  c #30557F",
"t  c #32587C",
"y  c #3A5C78",
"u  c #48667E",
"i  c #54697A",
"p  c #2E5781",
"a  c #2F5A83",
"s  c #2F5E8A",
"d  c #315680",
"f  c #315B85",
"g  c #335E8A",
"h  c #315F90",
"j  c #35628D",
"k  c #39678B",
"l  c #3B698C",
"z  c #356493",
"x  c #386595",
"c  c #366895",
"v  c #396994",
"b  c #356699",
"n  c #396799",
"m  c #376A9A",
"M  c #3A6B9C",
"N  c #3F7091",
"B  c #3E739D",
"V  c #376AA1",
"C  c #3C6EA2",
"Z  c #3E72A3",
"A  c #3F74A9",
"S  c #3E79AC",
"D  c #3F7DB0",
"F  c #536F84",
"G  c #517188",
"H  c #5A798E",
"J  c #467396",
"K  c #4B7494",
"L  c #43729B",
"P  c #517693",
"I  c #5D7C93",
"U  c #5E7D99",
"Y  c #4175A5",
"T  c #467AA4",
"R  c #497DA2",
"E  c #4175AB",
"W  c #447BAC",
"Q  c #497EAF",
"!  c #4477B0",
"~  c #447DB4",
"^  c #497EB3",
"/  c #427FB9",
"(  c #5E809C",
")  c #62839E",
"_  c #4B81AF",
"`  c #5580A2",
"'  c #5F88A8",
"]  c #4581B5",
"[  c #4B83B4",
"{  c #4682BA",
"}  c #4985BC",
"|  c #4C89BD",
" . c #518DBE",
".. c #4D90BB",
"X. c #6688A4",
"o. c #6C90AA",
"O. c #6792B2",
"+. c #6B96B4",
"@. c #7196B2",
"#. c #749DBD",
"$. c #4785C0",
"%. c #4A87C1",
"&. c #4788C2",
"*. c #4D8BC3",
"=. c #4E8EC9",
"-. c #518EC3",
";. c #538FCB",
":. c #4F91C5",
">. c #4F90C9",
",. c #5392C4",
"<. c #5394CC",
"1. c #5996CB",
"2. c #5598CE",
"3. c #5B99CD",
"4. c #5496D1",
"5. c #569AD3",
"6. c #5A9DD4",
"7. c #579DD8",
"8. c #599ED9",
"9. c #619CC6",
"0. c #6F9FC5",
"q. c #609ED1",
"w. c #5EA1D5",
"e. c #5CA2DC",
"r. c #5CA9DF",
"t. c #72A0C1",
"y. c #71A4CF",
"u. c #62A2D6",
"i. c #6FA5D1",
"p. c #6FA8D3",
"a. c #63A5DB",
"s. c #68A7DD",
"d. c #66A9DE",
"f. c #6AACDE",
"g. c #77ABD2",
"h. c #7AABD2",
"j. c #73ADDD",
"k. c #78B3DF",
"l. c #5EA6E1",
"z. c #5DA8E1",
"x. c #60A6E1",
"c. c #63AAE3",
"v. c #6AAEE4",
"b. c #6BAFE8",
"n. c #71AFE2",
"m. c #67B0E5",
"M. c #6DB1E5",
"N. c #6CB2E9",
"B. c #73B3E6",
"V. c #7AB5E4",
"C. c #7AB8E7",
"Z. c #73B5EA",
"A. c #7AB7EA",
"S. c #75B9ED",
"D. c #7CBBED",
"F. c #7CBCF0",
"G. c #82B2D8",
"H. c #82BEEC",
"J. c #81BFF1",
"K. c #84C1EF",
"L. c #84C1F1",
"P. c #8AC4F2",
/* pixels */
"g j v B Z Y Q [ | [  .:.,.,.,.,.1.,.1.,.3.<.2.<.1.,.,.,.,.-. .| | [ Q T B M x g ",
"j v B W _ [ | -.,.,.3.3.3.3.3.6.6.u.u.w.w.a.u.u.u.w.w.3.5.3.1.1.,.-.| [ W T L v ",
"M L W [ | -.,.3.6.u.w.a.a.a.d.d.f.s.s.v.f.f.f.v.s.m.d.d.a.a.u.u.6.3.1.-.| Q T M ",
"Y W [ ,.1.6.w.a.a.d.f.M.M.v.B.B.B.S.B.B.B.S.Z.B.B.B.B.B.B.v.v.d.c.a.q.9.,.| ^ T ",
"Q [ -.1.6.a.s.v.M.M.N.Z.B.A.j.y.k.V.D.H.D.D.G.V.i.C.D.D.D.Z.Z.M.M.v.d.u.9.,.| _ ",
"[  .1.6.a.s.v.Z.Z.S.S.D.D.D.I F H I X.#.O.) I ) i t.L.D.D.D.S.C.Z.N.v.a.w.3. ._ ",
"| ,.3.a.c.v.N.Z.S.S.S.F.K.0.U H.K.h.@.o.@.#.G.P.g.) H.L.J.F.F.S.A.M.M.v.a.6.,.| ",
" .,.6.a.c.b.N.N.S.S.F.D.D.' +.L.L.P.P.P.P.P.P.P.P.) g.H.L.H.F.S.S.B.M.m.e.w.1.| ",
" .1.6.s.c.m.N.N.Z.Z.S.S.g.G B.H.K.K.L.L.K.P.K.L.H.O.( D.D.D.S.S.N.Z.M.c.d.w.3...",
"-.2.e.a.c.c.m.N.m.M.v.N.` P S.D.D.D.D.F.H.D.D.D.D.C.u j.B.Z.M.M.N.N.c.c.e.6.3.| ",
":.2.6.e.x.c.6.l 4 e 4 2 4 9.N.N.Z.Z.Z.Z.A.Z.S.A.Z.Z.K 3 5 y y e ` e.c.x.e.6.<.:.",
"| 1.6.e.l.a.; 4 J J _ 1.d.c.v.b.c.N.v.N.v.v.v.v.c.v.N.6.,.R J J % J x.e.e.6.,.| ",
":.2.6.e.e.e.= e.c.x.c.c.z.c.c.c.c.c.x.c.c.c.c.c.c.c.c.c.d.x.c.z.L q e.e.w.2.<.| ",
":.<.6.6.e.,.- e.l.l.l.l.x.l.x.z.l.x.x.x.x.x.x.x.x.r.z.e.z.e.r.x._ 4 e.8.6.2.<.:.",
"-.,.6.6.e.Y = e.l.e.e.e.e.8.l.e.e.e.l.l.l.e.e.e.e.l.l.l.e.l.e.l...: e.8.6.2.,.*.",
"| <.2.7.6.k > e.e.e.e.e.e.l.8.e.e.e.e.e.l.8.e.e.e.e.e.6.e.e.e.e. .& | 7.4.2.:.*.",
"*.<.<.6.6.= W 7.e.8.8.8.8.8.8.8.8.8.8.8.8.8.8.8.8.e.e.8.e.7.8.e.1.1 l 7.5.<.:.*.",
"*.-.1.5.L - 2.7.7.7.7.7.7.7.8.7.8.7.7.6.8.8.8.7.6.8.5.e.7.7.6.7.7.Y = :.2.,.,.| ",
" .| <.<.- L 6.6.5.6.6.5.6.5.7.5.5.5.7.5.5.5.5.5.6.7.5.6.7.7.5.5.6.<.> v 2.<.*.| ",
"%.*.,.v : <.5.5.5.4.5.4.5.5.5.5.5.5.4.5.4.5.5.5.4.4.5.2.5.5.5.5.5.5.B = | >.| | ",
"| | -.t 8 ,.4.2.4.4.4.4.5.4.4.5.2.4.4.4.4.4.4.4.4.4.4.4.4.4.2.<.<.2.Q O W -.*.} ",
"{ | -.| 4 , *.<.<.4.4.>.<.<.<.<.<.<.4.<.>.<.>.4.>.4.>.4.>.4.<.4.<.B * k ,.*.*.| ",
"{ } *.,.%.q : W <.<.>.4.4.=.<.<.<.<.>.<.<.4.=.<.>.<.<.<.<.>.;.<.j # C <.*.*.| } ",
"[ } %.*.-.-.k * D ,.*.>.=.=.=.>.=.=.>.>.=.>.=.>.>.>.>.<.>.>.*.f & ^ ,.*.*.*.} { ",
"] { } %.%.:.*.t 1 -.-.=.*.=.=.*.=.=.*.=.;.*.*.>.=.=.:.*.>.*.| + _ *.*.*.*.| { ] ",
"~ ] } } *.*.| 1 9 *.*.%.*.*.*.*.*.*.*.*.*.=.*.*.*.*.*.*.*.*.*.& Z *.*.%.| } ] ^ ",
"W ~ [ } { *.] + B *.*.%.*.%.*.*.%.*.*.*.%.*.%.%.%.*.| &.*.%.$., 1 | %.| } { ] Q ",
"Z W ^ { } [ Y # } $.} } %.} } %.} %.} | %.} | | %.%.} %.&.| } v $ %.} { { { / W ",
"A S W ~ [ { f - } $.%.} { { $.} } } } } } } } } } } } } } } } ~ + [ { } ^ / S W ",
"M A S ~ W { - * { { { { } $.^ [ / } { / { { { { { { { } { } { D   x ] ] ^ ~ E A ",
"M Z Y E W ~ Z + $ x / / { / { { { ^ / ^ / ^ ^ / / { ] ^ { S 9 o 1 ! / D S W E B ",
"v M C Z A S W ~ q X : L / / / / / / / / / / / / / / / / j + $ m ~ ~ ~ W Y Z C m ",
"j c m C Y E E E ! Z : + b ~ ~ ~ ~ ~ z - 1 E ~ ~ ~ D / 7 o p ^ W ~ E E Z Y C b x ",
"j j c m n C E A A ! ! g O z ~ ! S : + 1 * + d ~ D ! 1 & M ~ S E A A Z C m n z j ",
"a f g z x L V L Z E Y Y f o d f o * m E A f o & C , * C S C Z A C Z M m b h f f ",
"9 p a f g h x n m m V C C g + o g C Z Z A A b ,   : C A Z V C M M m x z g f a p ",
"8 8 9 d f g h h z m b c n V n n m M C m m C M V c n C m m C b c x z g f f p 9 8 ",
"6 7 7 9 9 p a a g g j z h x c c b b c b n c m c n b c c b z z z j g f r 9 8 9 7 ",
"6 7 7 7 7 9 p p f f s g h h g j h z j z z z z j z z j z h h g f f p 0 9 9 7 7 7 ",
", < < 7 6 7 7 9 9 p d a a a f g g f g h g f g g g g g g f f f f 0 9 9 7 7 < < < "
};
