/* XPM */
static char *bt_______kz_zr_cz_i_iiink_uq_sav_______out[] = {
/* columns rows colors chars-per-pixel */
"40 40 152 2",
"   c #152636",
".  c #162B3C",
"X  c #1A2C3E",
"o  c #1B313F",
"O  c #182D42",
"+  c #1C3344",
"@  c #1E3449",
"#  c #1F384C",
"$  c #1E3A52",
"%  c #213D53",
"&  c #233D59",
"*  c #25425D",
"=  c #28455D",
"-  c #254562",
";  c #284762",
":  c #264864",
">  c #294965",
",  c #244669",
"<  c #274B6D",
"1  c #2A4B6E",
"2  c #2D516E",
"3  c #3E576D",
"4  c #274D72",
"5  c #294D72",
"6  c #2C5174",
"7  c #2D547C",
"8  c #325575",
"9  c #335876",
"0  c #395A75",
"q  c #30567F",
"w  c #32597E",
"e  c #43617B",
"r  c #4D697E",
"t  c #54697A",
"y  c #2E5781",
"u  c #2F5A84",
"i  c #2F5E8A",
"p  c #325C85",
"a  c #325D8A",
"s  c #366086",
"d  c #34618D",
"f  c #3A648D",
"g  c #356493",
"h  c #396595",
"j  c #356997",
"k  c #3A6A94",
"l  c #366698",
"z  c #3A6798",
"x  c #376A9A",
"c  c #3A6C9C",
"v  c #3D729E",
"b  c #376CA0",
"n  c #3B6EA2",
"m  c #3D71A4",
"M  c #3F76A9",
"N  c #436F8C",
"B  c #566D82",
"V  c #477294",
"C  c #42749D",
"Z  c #4E7898",
"A  c #5A7A93",
"S  c #5C7F9B",
"D  c #406FA4",
"F  c #4175A5",
"G  c #4478A4",
"H  c #497CA3",
"J  c #4175AA",
"K  c #437AAC",
"L  c #497EAF",
"P  c #537FA2",
"I  c #4377B0",
"U  c #447DB3",
"Y  c #497FB4",
"T  c #457FB8",
"R  c #60829E",
"E  c #4581B6",
"W  c #4B83B4",
"Q  c #4B88B7",
"!  c #4682BA",
"~  c #4985BC",
"^  c #4788BE",
"/  c #4C8ABD",
"(  c #5186B2",
")  c #5C8CB0",
"_  c #528CBE",
"`  c #5F93B8",
"'  c #6489A4",
"]  c #698CA7",
"[  c #648DAB",
"{  c #688DAA",
"}  c #6990AD",
"|  c #628FB0",
" . c #6795B7",
".. c #6A94B5",
"X. c #4A87C1",
"o. c #4688C2",
"O. c #4D8BC3",
"+. c #4F8DC9",
"@. c #518EC4",
"#. c #4F90C6",
"$. c #4F91CA",
"%. c #5392C5",
"&. c #5394CC",
"*. c #5896CB",
"=. c #5598CD",
"-. c #5A99CD",
";. c #5496D1",
":. c #5896D1",
">. c #569AD3",
",. c #5A9DD4",
"<. c #579ED9",
"1. c #5A9ED9",
"2. c #609FD5",
"3. c #5EA1D5",
"4. c #5CA3DC",
"5. c #72A0C2",
"6. c #72A3CB",
"7. c #79A5C8",
"8. c #7AA8CC",
"9. c #61A1D6",
"0. c #62A5DC",
"q. c #66A9DE",
"w. c #69ABDE",
"e. c #7CAFD4",
"r. c #76B0DB",
"t. c #7BB0D8",
"y. c #5EA6E1",
"u. c #5FAAE2",
"i. c #61A6E2",
"p. c #64ABE3",
"a. c #6AADE3",
"s. c #66AEE8",
"d. c #6BAFE8",
"f. c #70AEE9",
"g. c #66B0E7",
"h. c #6CB1E6",
"j. c #6DB3EA",
"k. c #73B4E6",
"l. c #72B5EA",
"z. c #78B7EA",
"x. c #76B9ED",
"c. c #7CBBED",
"v. c #7BBCF1",
"b. c #7FC1F3",
"n. c #84B7E2",
"m. c #81BAE7",
"M. c #81BEED",
"N. c #81BFF1",
"B. c #83C1EE",
"V. c #88C3EF",
"C. c #85C2F2",
"Z. c #8BC4F2",
/* pixels */
"a d h c F F L W Q Q _ _ %.%.%.%.` &.*.*.=.=.*.*.*.%.%.%.%.%._ Q Q W L K m k f d ",
"d k v G W W Q @.%.*.*.-.-.,.2.,.3.3.3.3.3.9.9.3.9.3.9.,.,.-.*.*.%.@.Q Q L G C h ",
"c F H Q _ @.*.-.,.9.3.0.0.q.9.w.q.q.q.a.p.a.p.a.p.w.w.0.0.0.0.9.,.-.*.` Q Y G c ",
"F K Q @.*.,.,.0.q.w.w.a.h.a.k.k.k.k.k.) 3  .k.k.k.k.k.k.k.a.a.w.q.0.3.-.%._ Y G ",
"K W @.*.,.0.q.a.h.h.l.l.z.x.z.c.v.z.{ [ r.S ..M.c.c.c.z.z.x.k.h.h.h.0.9.2._ Q W ",
"W _ *.,.9.w.a.k.j.x.z.c.c.M.M.B.m.{ 5.V.C.V...{ M.B.C.c.c.c.x.x.l.h.h.0.9.*._ W ",
"_ %.:.0.q.s.d.l.l.x.v.c.C.v.C.t.' n.M.Z.Z.Z.Z.7.] m.C.C.B.c.c.x.l.j.h.w.9.2.%._ ",
"_ %.,.0.p.d.j.l.x.x.c.c.b.B...B ..n.Z.V.Z.Z.Z.e.] B 8.C.M.b.c.x.x.k.h.g.3.2.*._ ",
"_ *.3.i.p.g.g.j.l.x.x.x.v.v.[ A A ' B.C.C.V.m.t R A 6.b.c.c.x.l.x.j.d.p.0.1.%._ ",
"@.*.1.0.p.p.g.g.j.j.j.l.l.z.x.x.z...c.c.M.M.r.r M.c.c.x.x.l.l.j.j.d.s.0.0.,.=._ ",
"%.=.,.0.0.p.p.s.a.g.g.g.h.j.k.w.Z Z z.l.l.l.k.e R w.k.j.h.j.j.g.a.p.p.4.4.1.*.@.",
"@.=.,.4.y.i.u.p.p.s.p.d.p.s.H 0 V q.d.j.g.a.h.s.k 0 ( h.a.s.g.p.s.u.u.4.3.-.&./ ",
"O.=.>.4.4.4.4.p.i.p.p.p.p.C 0 i.p.p.p.p.p.p.p.p.p.3.9 H p.u.i.p.q.u.0.4.4.>.*./ ",
"O.*.>.,.4.4.0.4./ 4.p.4.C p y.y.4.p.i.4.0.y.4.u.y.0.4.8 W y.4.&./ 4.4.4.>.>.%.@.",
"%.&.=.,.4.4.4.Q + 1.4./ = 4.4.4.4.4.4.4.4.4.y.4.4.4.4.3.= =.4.G X *.4.,.=.>.%./ ",
"O.&.>.,.>.4.#.6 p 4.4.2 Q 0.4.4.4.4.4.4.4.4.1.4.4.y.4.4.k k 4.Q d 2 ,.3.>.=.&.O.",
"O.$.=.>.,.>.8 _ 8 $ # ; 1.<.4.<.4.1.1.1.1.1.1.1.1.4.4.1.>.# & @ W C 8 ,.=.;.$./ ",
"_ &.&.,.>.8 F <.%.C F ;.,.<.<.,.<.1.,.,.<.1.1.,.>.<.1.1.,.&.C C >.>.w w =.&.%.O.",
"~ @.&.;.f 9 >.<.,.:.>.<.>.>.<.>.>.>.>.>.>.>.>.>.<.>.>.>.<.>.,.,.,.;.=.: c &.O.Q ",
"X.@.$.G : >.;.;.;.>.>.>.>.>.>.>.>.>.>.>.>.;.>.;.>.;.>.>.>.>.>.>.>.>.>.%.= %.O./ ",
"Q O.#.Q ; v =.=.>.;.;.>.;.&.,.;.&.;.;.;.;.;.;.;.>.;.;.>.&.=.>.;.=.;.&.s 6 @.@.Q ",
"~ O.@.$.Q * ~ &.;.&.$.&.&.&.&.&.;.&.&.&.;.&.;.&.$.&.;.$.;.$.$.$.:.&.K & $.@.X.~ ",
"W ~ O.@.&.G > &.d @ @ d $.&.#.&.$.&.$.&.+.$.&.&.$.&.$.&.$.9 # + K / ; Y @.O.O.Q ",
"! / ^ X.#.%.d 1 9 k v $ ! +.$.$.$.+.$.$.$.+.$.$.$.$.%.&.K $ v 6 k 6 G $.O.X.~ ! ",
"Y ! ~ X.@.O.@.8 X O.O.c : +.O.&.O.+.+.@.%.+.O.#.+.O.@.O.; J #.c + k O.O.O.^ ~ W ",
"U T ~ ^ ^ / +.O.* ~ +.O.; c O.X.O.O.O.O.O.O.O.O.O.O.O.f < O.@.k : O.O.X./ Q ! E ",
"G Y Y ~ ! O.X.o.X.O.O.O.U & c O.O.O.O.O.X.X.X.O.O.^ g > W O.O.O.X.O./ ~ X.! Y K ",
"G U T E ~ ~ ^ / ~ X.X.~ ^ W ; 5 ~ X.^ ~ X.O.^ X.M > : ~ X.o.X.~ ~ X.X.~ E E T K ",
"M K K U ! T ~ ~ ~ ! X.! ! ~ ! 1 $ y ~ ! ! ~ ^ 6 & y ! X.! ~ ~ ! ~ ! ~ ! E T I K ",
"m J K U U Y T ! ! ~ ! ! ~ ~ ! ! n > T ~ ! ! I . ! ~ T ~ ! ! ~ ! ! W T T U U M G ",
"j F J G K U U Y E E ! ! ! T U E n 5 X.T E E J   U T U T T T T T T T T U K J F m ",
"h z c m J J U T U T E U T T < O 1 p U T T E U = 1 . 7 Y T U T U U U K K J m c c ",
"g j c n D J J K U I U U U T M < - U U T U T U U $ 7 I M T U U U I I M m m n x h ",
"a d j x c n D J M I I K K M T M 4 $ c M K I a @ u I U U M I J M M M m n x l g d ",
"u a a d h z c n m n J D F J M M I p $ p M 7 $ l I M M M J F M m m m c z l g p y ",
"7 7 u a a h h l c n b D n n M n m m c - & & b n m n m m n b b c z z j g a a y 7 ",
"6 6 7 7 y a d g g l l l x c x b c c b b c c c c b b c n x x l j j g a p i y 7 7 ",
"4 5 7 7 7 y y u a i g g g l l h g l l l x l x l l x l g h j g g d s p 7 7 7 7 5 ",
"< 5 5 5 5 7 y y u i p a a i a h g g g g g g g g g g g g a i i p u u 7 7 5 5 5 < ",
"< < < 5 4 5 5 7 7 7 y y i p p p a p i a a p i a a a p a a i u p y 7 7 5 5 5 5 1 "
};
