/* XPM */
static char *bt____m__insx___g_fd_knm_f_upl_w_______out[] = {
/* columns rows colors chars-per-pixel */
"40 40 131 2",
"   c #182D40",
".  c #1A3045",
"X  c #1F3D57",
"o  c #213A51",
"O  c #223E5A",
"+  c #224156",
"@  c #24425D",
"#  c #264561",
"$  c #294665",
"%  c #274962",
"&  c #2A4966",
"*  c #274B6D",
"=  c #2A4B6B",
"-  c #2E526D",
";  c #274D72",
":  c #294D73",
">  c #2C5274",
",  c #2D547C",
"<  c #2F597C",
"1  c #315576",
"2  c #31567E",
"3  c #345D7E",
"4  c #3A5E7E",
"5  c #3A617E",
"6  c #2E5781",
"7  c #2F5983",
"8  c #325C84",
"9  c #385C80",
"0  c #325E8A",
"q  c #366183",
"w  c #3B6384",
"e  c #34628D",
"r  c #39658D",
"t  c #3C698B",
"y  c #356493",
"u  c #396692",
"i  c #366997",
"p  c #3B6A94",
"a  c #376798",
"s  c #396799",
"d  c #376A9A",
"f  c #3A6C9C",
"g  c #3E719D",
"h  c #3C6EA1",
"j  c #3D71A5",
"k  c #3F78A5",
"l  c #3E76AA",
"z  c #3F78AD",
"x  c #406987",
"c  c #486B87",
"v  c #406989",
"b  c #4B6E8A",
"n  c #54738D",
"m  c #4E7594",
"M  c #43749D",
"N  c #47799E",
"B  c #537693",
"V  c #577B9B",
"C  c #4174A4",
"Z  c #4479A4",
"A  c #4878A0",
"S  c #4175AA",
"D  c #437AAC",
"F  c #487DAD",
"G  c #447DB3",
"H  c #497EB4",
"J  c #477EB9",
"K  c #4780AD",
"L  c #4A80AC",
"P  c #5683A3",
"I  c #5F82A0",
"U  c #4581B5",
"Y  c #4A84B5",
"T  c #4D88B6",
"R  c #4682BB",
"E  c #4985BC",
"W  c #4788BE",
"Q  c #4D8ABD",
"!  c #5386B3",
"~  c #5388B4",
"^  c #5A8CB3",
"/  c #518CBE",
"(  c #4A86C0",
")  c #4D8BC3",
"_  c #4E8DC9",
"`  c #518EC4",
"'  c #518FC8",
"]  c #4E91C5",
"[  c #4E90C9",
"{  c #5392C5",
"}  c #5394CB",
"|  c #5996CB",
" . c #5599CD",
".. c #5B99CE",
"X. c #5496D1",
"o. c #569AD3",
"O. c #5A9DD4",
"+. c #569DD8",
"@. c #5A9FD9",
"#. c #6297C1",
"$. c #689EC4",
"%. c #57A0D7",
"&. c #5EA1D5",
"*. c #5CA3DC",
"=. c #5DA8DF",
"-. c #63A0CF",
";. c #6DA2CA",
":. c #63A2D6",
">. c #63A5DB",
",. c #67A9DE",
"<. c #68A9DF",
"1. c #5EA6E0",
"2. c #5DA8E3",
"3. c #62A6E2",
"4. c #63AAE3",
"5. c #6AADE3",
"6. c #67ADE9",
"7. c #6BAFE8",
"8. c #6CB1E6",
"9. c #6DB2EA",
"0. c #72B3E7",
"q. c #73B5EA",
"w. c #76B9EC",
"e. c #7CBCED",
"r. c #77B8F0",
"t. c #7DBDF1",
"y. c #80BEEE",
"u. c #82BFF0",
"i. c #85C1EF",
"p. c #85C2F1",
"a. c #8AC4F1",
/* pixels */
"0 e i f C Z H Y T Q / / { ] { {  . .{ | | | | | | | { { { { Q / E Y F D C p t e ",
"e p g Z K Y / ` { {  .........-...&.&.&.:.-.&.&.&.%.-...O...|  .{ ` T Y F Z f p ",
"f g F Y / ` { ....&.&.&.,.:.,.,.,.,.,.,.5.5.,.,.,.,.,.,.>.>.:.O.O...| ` T F D f ",
"C F Y { | O.O.>.,.,.8.8.8.8.8.0.q.q.q.q.q.q.q.q.q.q.q.0.0.5.5.5.,.:.&...| E Y C ",
"F Y ` ..O.:.5.5.9.9.q.q.0.w.w.e.e.e.y.e.y.y.i.i.e.y.w.w.q.w.q.0.8.5.,.:...{ T K ",
"Y Q | O.:.3.7.0.9.w.w.w.e.y.y.y.i.i.i.a.i.i.a.a.i.p.i.u.y.e.q.w.q.0.5.,.:...` T ",
"T { O.&.,.6.7.0.w.w.e.e.y.i.i.i.a.a.a.a.a.a.a.a.a.a.p.p.u.y.y.w.w.8.8.4.>...{ T ",
"Q | O.>.4.7.9.q.w.w.w.e.y.y.i.i.i.a.a.a.a.a.a.a.a.a.p.i.u.u.e.w.w.0.8.8.*.&.| / ",
"` | O.,.5.8.8.9.q.q.w.r.e.e.y.y.i.a.i.i.a.a.p.p.y.y.y.y.e.t.w.q.w.9.8.4.,.&. .~ ",
"`  .@.*.2.6.6.6.9.9.q.9.q.w.w.;.V n n n n n B I ;.e.e.w.w.q.q.9.9.6.4.2.&.%. .] ",
"] | O.>.>.4.4.8.6.6.9.8.9.:.^ c m P ^ | #.^ P B b ^ $.0.9.9.8.7.8.4.4.3.&.O.| { ",
"`  .O.@.=.3.4.3.4.4.4.4.| x t ~ :.,.8.8.8.8.,.:.! x w ` 6.4.4.6.4.,.3.*.*.O.] T ",
"{  .+.@.*.1.=.3.=.4.2.{ 5 N @.3.3.3.4.8.3.3.4.4.3.O.N 4 T 4.3.3.,.2.*.*.@. . .Q ",
") | o.&.*.*.F O.=.=.{ 5 Z 2.2.1.>.3.=.=.3.=.,.2.2.=.=.H 3 Y =.1. .L { *.+. .{ ) ",
"` } o.O.@.F o Y =.%.5 t >.*.*.*.@.1.=.&.*.1.1.*.*.>.*.*.N 1  .=.Y o r *.O. .] ) ",
") {  .o.F 3 +  .*.D = { *.*.@.*.@.1.@.*.*.@.@.*.*.=.*.*.} 1 C &./ & & F X. .} Q ",
") { X.T - F & t M & f @.@.@.@.@.@.@.@.@.@.@.@.@.@.@.*.O.+.Z & g w - r 5 F [ [ Q ",
") } / > t o.g 1 = r  .+.+.O.@.+.+.@.@.+.+.+.@.O.@.@.+.+.@.} t & > u { M > Y [ / ",
"/ E 8 3 ] X.X.) / | X.O.+.+.o.O.o.o.o.o.o.+.o.o.o.O.+.O.O.+.X.T Q  .o.] q > T T ",
") 4 > Y X. .o.X.X.} O.X.O.X.o.o.o.o.o.o.o.o.o.o.X.o.X.o.X. .o.o. .X. .} ) 3 3 U ",
"E @ Z } } o.}  .X.o.X.o.}  .o.o.X.X.X.X.X.} X.X.X.X.X.X.X. .o.X.X.o.} } ] F # t ",
"E & 0 Q [ { X.} } } X.[ } X.[ X.} X.X.} } } [ X.X.} } } }  .} } } [ } [ [ u = Z ",
"Y g & r [ { [ } } } [ } [ [ } [ ' } } } [ [ X.} [ } } ' [ } [ [ } } ) ] j = j E ",
"Y E g * p [ U e 7 p ) [ _ [ } _ _ [ _ _ [ [ _ [ [ [ [ [ [ ' D 0 q C [ F = r T R ",
"H R W r % Y > % $ + p ) ) _ _ ) ' _ ) ) ' ) _ ) _ ) ' ) [ H @ $ @ - g > 3 E R U ",
"G G R U < 3 @ g H 2 * W ) ) ) ) ) ) ) ) ) ) ) ) ) ) ) ) Y 8 - H g = $ 7 U E U U ",
"D H U W F 2   j ) H # i ) ) ) ) ( ) ) ) ( ) ) E ) W ) ( j @ j W M . % U E Y R D ",
"S D H U R U $ k W E e = H E E E ( ( E ( ( ( W ) W ( W D = 8 E W D > p R R U H G ",
"k S F J Y R D R R ( J 0 = U ( E E E R E R W W R R R D * < U ( R R U R R R G G D ",
"h k z D J R R R R R R z 8 @ 8 J R J R R R W J R J u # < F R R R E R J G H F S S ",
"f h l D z H J J U R J R H i O O 8 f j D z j p e @ @ e G R R R J G G G H G l h f ",
"s f h j S D D G G R G U U G l y O O O # $ @ X X , l z J G G G G G G G D j C C d ",
"e i d h C S S S D G J G G G z z z z a 6 , y j l S J J z z J z G z z S l h f d s ",
"0 y i d s C C S l D S S G G J G z z D D l z z J J z G z z z z z z z h h d s u e ",
"7 8 0 e s s s C h j j l l S l z l l l l S S S l S l l S l j j h C h h s a y 0 6 ",
", 6 8 8 0 e s s s h h h h h j h j j j h h j j j j j j j j h h h s s y y 0 0 8 6 ",
": , , 6 6 0 e y y a a a h h s h h h h h h h a h h h h h a d a a a y 0 0 6 6 , : ",
"; : : , , 6 6 7 0 0 y y y y y y y a y y a a y h a a y h y y y y 0 0 8 , , , : : ",
"* : : : : , 6 6 7 0 0 0 0 0 0 y 0 y y y 0 y 0 y y y 0 0 y 0 y 0 0 6 , , , : : : ",
"* * : * : : : , , 6 7 7 7 7 0 7 0 0 0 0 0 0 0 0 0 0 0 0 0 7 6 6 6 , , : : : : * "
};
