/* XPM */
static char *bt____hn___bz_bgtx_ihmh_k__dxfor_______out[] = {
/* columns rows colors chars-per-pixel */
"40 40 148 2",
"   c #010205",
".  c #070A0F",
"X  c #070D10",
"o  c #080B10",
"O  c #101C29",
"+  c #12222D",
"@  c #142434",
"#  c #162938",
"$  c #182F3D",
"%  c #1B2E43",
"&  c #1C3146",
"*  c #1D344B",
"=  c #1E394C",
"-  c #1E3D52",
";  c #213B54",
":  c #254157",
">  c #24415B",
",  c #264562",
"<  c #2E4D62",
"1  c #274A6E",
"2  c #2A4B6C",
"3  c #334D66",
"4  c #2D506C",
"5  c #36556A",
"6  c #274D72",
"7  c #294D73",
"8  c #2B5175",
"9  c #2D547C",
"0  c #335A77",
"q  c #3F5C72",
"w  c #31557B",
"e  c #325A7D",
"r  c #4E5C65",
"t  c #54656F",
"y  c #4B6574",
"u  c #4B657C",
"i  c #516170",
"p  c #586F7F",
"a  c #2E5781",
"s  c #2F5983",
"d  c #315C85",
"f  c #325E8A",
"g  c #336081",
"h  c #34618D",
"j  c #3A668B",
"k  c #356493",
"l  c #396693",
"z  c #366997",
"x  c #396995",
"c  c #376798",
"v  c #396798",
"b  c #376A99",
"n  c #3A6C9C",
"m  c #3E719E",
"M  c #3C6EA2",
"N  c #3D71A4",
"B  c #3F76AA",
"V  c #4B6D88",
"C  c #566C81",
"Z  c #54748B",
"A  c #5D7388",
"S  c #40739E",
"D  c #5B7993",
"F  c #5B7F9F",
"G  c #4275A5",
"H  c #467BA7",
"J  c #4B7BA0",
"K  c #4175AA",
"L  c #437AAD",
"P  c #497EAD",
"I  c #447DB3",
"U  c #4A7FB1",
"Y  c #457FB8",
"T  c #628196",
"R  c #4F81A4",
"E  c #4E82AA",
"W  c #5384AC",
"Q  c #5888AE",
"!  c #4581B6",
"~  c #4A83B5",
"^  c #4682BA",
"/  c #4985BD",
"(  c #4C89BE",
")  c #5A8EB6",
"_  c #518DBF",
"`  c #5390BD",
"'  c #6287A2",
"]  c #6590B0",
"[  c #6D91B1",
"{  c #6393B9",
"}  c #6B98B9",
"|  c #729DBD",
" . c #4785C0",
".. c #4A87C0",
"X. c #4D8BC3",
"o. c #4D8DC8",
"O. c #518EC3",
"+. c #518FC8",
"@. c #4F91C5",
"#. c #4F90C9",
"$. c #5392C5",
"%. c #5993C3",
"&. c #5394CC",
"*. c #5896CB",
"=. c #5498CD",
"-. c #5B99CE",
";. c #5496D0",
":. c #5896D1",
">. c #569AD3",
",. c #5A9DD5",
"<. c #579DD8",
"1. c #5A9ED9",
"2. c #5EA1D5",
"3. c #5CA2DC",
"4. c #5FA8DF",
"5. c #67A0CB",
"6. c #6EA3CD",
"7. c #77A7CB",
"8. c #79A9CF",
"9. c #61A2D7",
"0. c #62A5DC",
"q. c #66A9DE",
"w. c #69ABDF",
"e. c #74ADDA",
"r. c #7DB2DA",
"t. c #5EA6E0",
"y. c #60A6E1",
"u. c #64AAE3",
"i. c #6AAEE4",
"p. c #67AEE9",
"a. c #6AAFE8",
"s. c #70AFE4",
"d. c #67B0E7",
"f. c #6CB1E6",
"g. c #6CB2EA",
"h. c #73B3E5",
"j. c #7FB8E5",
"k. c #73B5EA",
"l. c #78B7EB",
"z. c #75B9ED",
"x. c #7CBCED",
"c. c #7EBDF1",
"v. c #82B9E6",
"b. c #80BEEF",
"n. c #81BFF0",
"m. c #84C1EE",
"M. c #85C2F2",
"N. c #8AC3F1",
/* pixels */
"f h x n G B P ~ ~ ` ( ` @.$.$.$.%.$.$.-.*.=.*.*.*.*.$.$.$.@.( _ / ~ P H N x l j ",
"h x m H E ~ ( O.$.%.=.-.-.-.,.-.2.2.2.9.9.0.9.2.2.,.2.2.-.-.*.*.%._ ( ~ H H n x ",
"n G H ~ ( $.$.-.-.2.9.9.0.9.q.q.u.q.w.w.w.w.w.i.q.w.w.q.0.0.9.9.,.-.*._ ( E H n ",
"G H ~ $.*.,.,.0.q.q.f.u.f.f.h.h.h.h.l.h.k.k.h.k.k.h.h.h.h.i.i.u.w.9.2.-.$.( U G ",
"P ~ O.*.,.9.i.i.f.g.k.l.h.j.x.x.x.x.x.x.b.x.M.c.x.z.x.z.j.h.l.g.f.i.q.9.-.$.( E ",
"~ _ *.,.9.w.i.s.k.z.l.l.x.x.b.b.m.M.M.N.M.N.N.N.N.M.M.x.x.x.z.l.z.f.i.0.9.*.` ~ ",
"( $.-.9.y.p.s.k.z.z.z.x.x.M.n.M.m.N.N.N.N.N.N.N.N.N.M.M.M.x.x.z.z.h.f.u.9.2.$.( ",
"( %.,.0.i.a.g.k.z.z.z.c.c.m.r.} T p i r t A T | j.N.M.M.x.c.x.z.z.h.f.d.0.-.$.` ",
"O.*.,.0.p.d.p.h.g.z.z.z.e.' y Z ] 7.v.m.v.8.[ D p Q r.c.x.z.z.z.k.g.d.u.q.2.*.` ",
"O.*.3.0.u.u.p.g.g.g.g.) q V 5.l.x.x.x.x.x.x.x.x.6.C u { z.z.g.g.f.f.u.u.0.,.*.( ",
"O.>.,.3.4.u.u.p.d.d.J 5 W k.g.g.k.k.h.l.z.l.z.k.k.h.Q q R g.f.g.g.p.u.y.3.,.=.@.",
"$.*.,.3.t.t.u.u.u.E < ` u.u.g.d.i.p.d.f.d.p.f.f.d.i.u.%.5 E u.d.u.y.y.3.2.>.$.( ",
"X.*.-.3.3.3.t.y.*.> H u.y.y.u.u.u.y.u.u.u.u.u.u.y.u.u.u.H > *.y.y.y.y.3.<.>.$.O.",
"@.=.>.<.3.3.3.3.0 4 t.0.y.y.t.4.0.t.y.t.t.t.t.t.4.4.t.t.3.4 0 0.y.y.1.1.,.=.=.( ",
"O.=.>.<.,.3.3.O.& ~ 3.3.3.4.3.3.3.3.3.0.3.3.3.3.3.y.3.3.3.~ $ $.y.3.3.1.,.=.=.X.",
"X.$.*.<.3.1.3.j = 3.3.3.3.3.3.3.3.3.t.3.3.3.3.3.3.3.3.3.3.3.; j 1.1.1.,.:.=.@.X.",
"X.%.=.<.<.1.3.; e 3.3.1.2.3.<.<.1.1.1.1.1.1.1.<.,.3.2.<.3.<.g > 1.<.<.,.=.&.$...",
"X.O.&.>.>.>.1.+ H <.<.<.<.<.<.<.<.<.<.<.<.<.<.<.1.<.<.2.<.<.H + ,.<.>.>.;.=.$.( ",
"/ O.&.:.=.>.<.o O.1.>.>.>.<.<.>.>.>.<.>.<.>.<.<.,.<.,.<.<.<.X.X >.>.>.>.&.&.X.( ",
"..O.+.&.;.;.;.  =.>.>.>.;.>.>.;.>.>.;.>.>.;.;.;.>.;.;.&.>.>.=.  >.>.&.;.&.#.@.( ",
"/ O.o.&.&.&.&.o ( ;.;.;.;.&.>.>.=.;.;.;.;.;.;.;.&.;.<.;.&.&.X.X ;.;.&.&.=.$.( / ",
"/ ( X.$.&.&.;.+ N &.&.&.;.&.#.;.&.&.;.&.;.#.&.;.;.&.&.&.&.=.N + &.&.#.&.@.X.( ( ",
"^ ..X.X.&.+.&.- e #.#.=.#.&.&.&.&.&.&.&.#.;.#.&.#.#.&.#.&.&.w ; &.&.@.&.X...( / ",
"! ( ( X.+.X.+.e * #.o.#.o.O.+.o.o.#.o.o.#.#.o.#.#.#.X.&.o.@.* e #.#.O.X.X.X.( ~ ",
"! ~ / ( X.O.X.I # G O.X.X.o.X.+.X.@.X.#.o.o.o.o.o.#.X.@.o.N # P X.o.X.X.( ( ^ ^ ",
"I ! / / ( X.X.X.2 ; X.o.X...X.X.X.o.X.( X.X.X.X.X.X.X.X.X.> 1 X.X.X.X.X.( / ! ! ",
"L I ~ / ( X.( X.P * d ..X...X.X.X.X...X...X...X...X.....h * L / X./ ..( / / ! I ",
"K H ! ^ ! / / / ( h = S  .X./ ../  .........../ ....( m * h ..../ X./ / ! ! I L ",
"B K I I ^ ! / /  ./ d * d  ./ .. ./ ^ ../ / /  ./ / f * e / / ^ ^ / / ^ Y I I K ",
"N B K P I ! ! ^ ^ ^ ^ d & ; v ^ ^ ^ ^ ^ ! ! ! / b ; % f ^ ^ ^ ^ ^ Y Y ! I L K K ",
"n n K K P I I ! ! ! ! ! G , @ % 2 l K I B k 1 % @ , N ^ ^ ! ! ^ Y I I I I L G M ",
"x n M N N L I I I Y Y ! ! I M 7 * O o   . O * 8 M ! I Y I I ^ I I I I K G G M n ",
"k z b M M K K K I I Y I I Y Y B Y B Y Y Y I Y Y Y Y Y B Y Y B Y B B Y B G M c v ",
"d k z b M G M K K K L L K I B Y Y B Y B Y B B I I B B I B B B B B B M M n v h h ",
"s f f h l v M M M M N N K K B B B B B B B B K B K B K K B B N M M N M c l h f s ",
"9 9 s f f l l v n M M M M N N N N N M M N N N N N N N N M M M M M v k k f f a a ",
"8 8 9 a s f f h k c c c M c M c M M c M M M M M M M M M c c c c k k f f s a 9 9 ",
"6 7 7 9 9 a s d f f k k k k k c c k c c k c k c c c c c k k k k f f s a a 8 7 7 ",
"1 6 6 7 7 9 9 a s s f f f f f k k k k k k f f k k k k f k f f f s a a 9 7 7 7 7 ",
"1 2 1 6 7 7 8 9 a a s s s f s s f f s f f f f f f f f f f s f a a a 8 7 7 7 7 2 "
};
