/* XPM */
static char *bt____dexxrvh_l_d_nt_____nd_ohh________out[] = {
/* columns rows colors chars-per-pixel */
"40 40 158 2",
"   c #1A2F40",
".  c #1E3851",
"X  c #263846",
"o  c #233D4E",
"O  c #223D55",
"+  c #213D59",
"@  c #264057",
"#  c #24425B",
"$  c #29425C",
"%  c #2A495E",
"&  c #254662",
"*  c #274A66",
"=  c #2A4A65",
"-  c #274A6E",
";  c #2A4C6C",
":  c #344C64",
">  c #304E6A",
",  c #2E516D",
"<  c #31526E",
"1  c #274D72",
"2  c #294D72",
"3  c #2C5173",
"4  c #2D547C",
"5  c #2E597D",
"6  c #325673",
"7  c #365871",
"8  c #3B5E74",
"9  c #30557F",
"0  c #335B7D",
"q  c #395D7F",
"w  c #3C607A",
"e  c #405C72",
"r  c #486378",
"t  c #526576",
"y  c #526778",
"u  c #54697C",
"i  c #2E5781",
"p  c #2F5983",
"a  c #305581",
"s  c #325C85",
"d  c #325E8A",
"f  c #366285",
"g  c #396282",
"h  c #34618C",
"j  c #3A648A",
"k  c #3B698D",
"l  c #356493",
"z  c #396692",
"x  c #366895",
"c  c #3B6B94",
"v  c #376798",
"b  c #396798",
"n  c #376A99",
"m  c #3A6C9C",
"M  c #3E719D",
"N  c #3C6EA2",
"B  c #3D71A4",
"V  c #3F75A8",
"C  c #406582",
"Z  c #486C86",
"A  c #496E8C",
"S  c #4F718C",
"D  c #55758E",
"F  c #426D94",
"G  c #406F9B",
"H  c #437195",
"J  c #4D7694",
"K  c #41739C",
"L  c #4A769A",
"P  c #4C7A9D",
"I  c #537896",
"U  c #507999",
"Y  c #5B7E9A",
"T  c #4175A5",
"R  c #457AA5",
"E  c #4C7BA2",
"W  c #4175AA",
"Q  c #437AAC",
"!  c #497DAD",
"~  c #547FA1",
"^  c #447DB4",
"/  c #4A7FB1",
"(  c #467EB8",
")  c #4C82AC",
"_  c #5581A5",
"`  c #5F86A6",
"'  c #5783A8",
"]  c #5986AD",
"[  c #5D89AD",
"{  c #4581B5",
"}  c #4A83B4",
"|  c #4B88B7",
" . c #4682BA",
".. c #4985BC",
"X. c #4C89BD",
"o. c #5489B3",
"O. c #5C8CB4",
"+. c #518CBD",
"@. c #588FB8",
"#. c #6485A1",
"$. c #658DA7",
"%. c #6491B3",
"&. c #6F96B5",
"*. c #4986C0",
"=. c #4D8BC2",
"-. c #4E8FC9",
";. c #518EC3",
":. c #518FC9",
">. c #4F91C6",
",. c #4F90C9",
"<. c #5392C5",
"1. c #5C96C4",
"2. c #5394CB",
"3. c #5896CB",
"4. c #5698CD",
"5. c #5B99CE",
"6. c #5496D0",
"7. c #569AD3",
"8. c #5A9DD4",
"9. c #579DD8",
"0. c #5A9ED9",
"q. c #609DCC",
"w. c #5EA1D6",
"e. c #5CA3DC",
"r. c #76A2C7",
"t. c #79A7CB",
"y. c #62A2D6",
"u. c #6FA5D3",
"i. c #63A5DB",
"p. c #67A9DD",
"a. c #6AAADD",
"s. c #77ABD0",
"d. c #7FAFD3",
"f. c #71ADDA",
"g. c #77B0DB",
"h. c #5FA7E1",
"j. c #61A7E2",
"k. c #64ABE4",
"l. c #6AADE3",
"z. c #69AFE9",
"x. c #75AFE3",
"c. c #6DB0E6",
"v. c #6DB2E9",
"b. c #72B3E6",
"n. c #79B6E5",
"m. c #7BB8E4",
"M. c #73B5EA",
"N. c #76B9EC",
"B. c #7CBBED",
"V. c #7DBDF1",
"C. c #80B6E2",
"Z. c #83B9E4",
"A. c #82BDEC",
"S. c #82BFF0",
"D. c #85C1EF",
"F. c #89C2ED",
"G. c #84C2F1",
"H. c #8AC4F2",
/* pixels */
"d h x m T W ! } | | +.>.<.<.<.<.1.2.<.5.5.2.5.3.2.<.<.<.<.<.+.+.X./ ! Q T c k d ",
"h c M R ) } X.;.<.1.4.4.5.5.8.5.w.8.y.y.w.w.w.y.w.y.w.8.5.5.3.3.<.;.| } ! R m b ",
"m M ! } +.<.2.5.w.w.w.e.i.i.i.a.p.p.p.p.l.l.a.l.a.a.p.p.p.i.y.8.8.5.3.;.X.! R m ",
"T ! } <.3.8.8.i.i.a.c.l.c.b.b.b.b.b.M.M.n.M.M.m.M.M.b.v.x.l.l.l.k.i.q.q.<.X./ R ",
"! } ;.3.8.y.l.l.v.v.M.N.n.m.B.B.B.S.A.A.A.A.V.B.B.B.B.B.n.N.b.M.c.l.p.i.q.<.| ) ",
"/ +.3.8.y.p.l.v.v.M.N.N.B.B.V.Z.C.G.G.G.H.G.G.H.G.G.A.S.V.B.N.N.b.v.l.i.w.5.+.| ",
"X.<.5.i.k.l.v.M.M.B.N.V.S.S.A.r.$.C.Z.F.H.H.H.H.G.H.G.G.S.V.B.N.M.b.c.k.i.8.<.| ",
"+.3.8.i.k.z.z.M.N.B.N.V.V.G.g.#.y #.t.Z.F.H.H.H.G.F.G.G.S.V.V.N.N.b.c.c.i.8.3.+.",
";.2.8.i.k.c.v.v.v.M.N.N.V.B.g.#.t u #.&.s.Z.D.G.G.S.n.n.g.x.f.a.a.p.p.i.i.w.3.+.",
";.3.w.i.k.k.k.v.v.v.M.v.M.N.a.I r S D ` ` %.f.m.m.u.%.%.] _ _ U P E P ) +.5.2.<.",
";.4.0.i.h.k.k.z.k.z.z.v.v.v.y.S 8 Z I ' O.I _ [ _ J A A L P E E L f , = 6 ) 2.+.",
"-.4.8.0.h.j.h.j.k.z.k.k.z.z.q.g 7 8 @.H o.1.P : X w q.q.i.y.) 0 7 8 = o @ c <.X.",
";.2.9.0.e.e.h.j.h.h.h.h.h.k.<.w q > o.E w +.w.) < , <.e.3.H 6 < % @ @ f } =.<.=.",
"<.2.7.8.e.e.e.h.h.h.h.h.h.e.) 0 k , k 5.g 0 <.i.<.K g f 0 g R <.| M R <.8.4.2.+.",
"| 2.7.9.w.e.e.h.h.h.e.e.e.4.M 0 R 6 f 2.<.; 0 4.e.+.* % K =.7.e.e.9.7.e.7.3.2.=.",
"| ,.3.8.9.e.0.0.e.h.e.e.e.2.k 0 } 6 c K w.} 6 K ) k f R w.e.w.e.w.9.e.w.7.4.,.X.",
"=.<.2.7.8.0.0.0.9.e.0.0.8.>.w g <., , , <.8.! , * c | w.9.w.9.e.0.0.9.9.7.2.<.=.",
"=.2.2.7.7.7.8.0.9.9.8.9.8.| 5 M <.& = & ! 0.! , f <.9.9.9.w.9.7.8.8.7.7.2.2.<.*.",
"..;.2.2.7.6.7.7.7.7.8.7.7.} 5 c G 6 R 0 k K j m <.9.7.7.9.7.7.7.7.6.7.7.4.2.>.X.",
"X.-.2.2.6.6.7.7.7.7.7.7.7.} 3 , 0 } 4.M = = c <.7.7.7.7.7.7.7.7.7.7.2.6.2.,.=.X.",
"..=.-.2.2.2.6.6.4.7.6.2.2.Q @ * ! 7.6.m O 0 =.4.6.6.6.6.6.6.7.6.6.6.2.2.2.>.=.X.",
"| =.;.-.2.2.2.2.6.,.6.2.,.c # c 2.6.-.0 s | 6.6.6.,.2.6.,.2.6.2.2.2.,.2.>.=.X...",
"....=.;.<.-.2.2.2.2.2.,.R 3 j -.,.,.M , { <.<.=.*.2.2.2.2.2.,.,.2.2.,.<.-.X.*.X.",
"{ | X.=.-.;.-.-.-.>.,...0 3 { ,.=.m # 0 c s * O h -.,.:.-.,.-.,.>.,.-.=.=.=.X.{ ",
"^ | ..=.*.:.-.-.-.=.M = ; Q -.=.=.B & , 3 .   - ^ ;.;.-.-.-.;.-.-.-.X.=.X.X...{ ",
"V  .....} f , ; ; * # ; M *.-.=.*.*.R f . * x  .X.=.=.-.=.X.;.*.=.-.=.X.*.X.{ { ",
"^ ^ } ..! - + f x x c V X.=.=.*.=...d & s W *.*.=.*.*.*.=.=.*.*.*.*.*.......^ ^ ",
"W Q ^ ..{ f & N *...*.*.....*...R 4 - f { X.*.*...*.=.*...*...*.*...X.....{ ^ R ",
"B R ^ (  .Q 3 2 W *...*. .....B 3 - c .. .*.*.*.*. .*.*.| ....*.........{ ^ Q Q ",
"N T W Q ^ { m * 5 Q  . .....M 3 - M  . .*. .V *. . . .*.(  . . . .( ( ^ ^ ^ W W ",
"m B T W R ^ ^ z & s Q { ( m 2 - B {  .(  . .*.*. . .V *. .*.(  .( ^ ^ ^ ^ R W N ",
"b m m W W ^ Q ^ s & 0 W B 3 - N (  .^ (  . .V V *.V  .*.V V ^ ^ ^ ^ ^ Q W N m m ",
"l x n N T T W W ^ d & 2 - & l ( ( V *.*.V *.( V ( ( ( V ( ( ^ ^ V ^ V V N N v x ",
"s l x n N G B W W W a + O 4 ^ Q ( V V V V V ( ( ( V ( V V ^ V V V V N N N v l d ",
"p s d l z b m N B N N T W W W W V V V V V V V V V V V V V N V V N N N v l l s i ",
"4 4 p s d l b b N N N N N N N T B B B N V V V V V V V V N N N n n v v l d d i a ",
"2 4 4 i a d d l l v v v b N b b N n N N N N N n N N v N n v v v v l l p i i a 4 ",
"1 2 2 4 4 i p p d d l l l l l l l l l v l v l v v v v v v v l l d d i i 4 i 2 2 ",
"1 - 2 2 2 i 4 p i s d d d d l d l l l l l l l l l l l l l l d d d i i i 1 1 2 1 ",
"- - - 2 1 2 2 4 4 i i p p p s d d s d d d s d d d d p d p p p p i i 1 1 1 1 1 - "
};
