/* XPM */
static char *bt____cu_ictqvrswzvc_ppl__f_c__n_______out[] = {
/* columns rows colors chars-per-pixel */
"40 40 128 2",
"   c #192C3B",
".  c #192F46",
"X  c #1B3143",
"o  c #1C344C",
"O  c #1E394E",
"+  c #1F3B53",
"@  c #22364E",
"#  c #233E54",
"$  c #233F5B",
"%  c #254055",
"&  c #24425D",
"*  c #29465E",
"=  c #2E495E",
"-  c #254563",
";  c #2A4763",
":  c #264867",
">  c #2A4965",
",  c #274B6D",
"<  c #2A4D6C",
"1  c #334D64",
"2  c #2E516E",
"3  c #3A5465",
"4  c #274D72",
"5  c #294D73",
"6  c #2D5273",
"7  c #2D547B",
"8  c #2F5979",
"9  c #315575",
"0  c #325976",
"q  c #30567C",
"w  c #345A7B",
"e  c #485F6F",
"r  c #435D74",
"t  c #4D687D",
"y  c #2E5781",
"u  c #2F5983",
"i  c #325C85",
"p  c #325E8A",
"a  c #366184",
"s  c #386487",
"d  c #34628D",
"f  c #39658C",
"g  c #3B688D",
"h  c #356493",
"j  c #396693",
"k  c #356897",
"l  c #3B6B94",
"z  c #376798",
"x  c #396798",
"c  c #376A99",
"v  c #3A6C9C",
"b  c #3E729C",
"n  c #3C6EA1",
"m  c #3D71A4",
"M  c #3F77A8",
"N  c #416585",
"B  c #4C718C",
"V  c #447296",
"C  c #41729C",
"Z  c #4175A4",
"A  c #4479A5",
"S  c #4175AA",
"D  c #437AAD",
"F  c #497EAF",
"G  c #447DB4",
"H  c #4A7FB3",
"J  c #457FB8",
"K  c #4A80AE",
"L  c #5387AF",
"P  c #4681B5",
"I  c #4A83B4",
"U  c #4B88B7",
"Y  c #4682BA",
"T  c #4985BB",
"R  c #4D8ABD",
"E  c #5088B7",
"W  c #518CBE",
"Q  c #5790BB",
"!  c #6E99BC",
"~  c #4785C0",
"^  c #4985C0",
"/  c #4D8CC3",
"(  c #4E8EC9",
")  c #518EC3",
"_  c #518FC9",
"`  c #4F91C5",
"'  c #4F91CA",
"]  c #5391C5",
"[  c #5494CB",
"{  c #5996CB",
"}  c #5598CE",
"|  c #5A99CE",
" . c #5596D1",
".. c #569AD3",
"X. c #5B9DD4",
"o. c #579DDA",
"O. c #5A9EDA",
"+. c #609ED7",
"@. c #5EA1D5",
"#. c #5CA3DC",
"$. c #5DA8DF",
"%. c #75A3C5",
"&. c #64A3D5",
"*. c #62A5DC",
"=. c #67A9DE",
"-. c #68A9DF",
";. c #74A9D5",
":. c #70AAD8",
">. c #5FA6E1",
",. c #61A7E2",
"<. c #64ABE3",
"1. c #6AADE3",
"2. c #64AFE8",
"3. c #69AEE9",
"4. c #67B0E7",
"5. c #6CB1E6",
"6. c #6DB2E9",
"7. c #72B3E7",
"8. c #73B5EA",
"9. c #76B9EC",
"0. c #7CBCED",
"q. c #7DBDF1",
"w. c #83B9E7",
"e. c #81BEEE",
"r. c #81BFF0",
"t. c #84C1EF",
"y. c #85C2F1",
"u. c #8AC4F1",
/* pixels */
"p d j v Z A H I U U Q R ] ] ] ] { ] ] { { } { { { [ ] ] ] ] W W U I F D m l f p ",
"d l b A K I R ) ] { } | | X.| | @.&.@.@.@.*.&.@.@.@.@.| | | { { [ W U I F A C l ",
"v C D I W ) ] | | @.@.&.*.*.=.=.-.-.-.-.-.:.-.1.=.-.=.=.*.&.&.O.X.| { W U H D v ",
"Z D U ] { X.X.*.*.=.5.5.1.5.7.7.7.7.7.9.7.9.8.7.8.8.8.5.5.7.1.-.=.*.&.| ] E I Z ",
"F I ) { X.&.<.1.4.6.8.7.7.9.0.0.0.0.w.e.0.e.t.t.0.0.0.0.0.9.7.7.5.1.=.&.| ] U K ",
"H ) { X.&.1.1.6.6.9.9.0.0.0.0.e.y.e.y.u.y.y.u.u.y.y.e.r.0.0.9.9.8.5.1.*.&.} Q U ",
"E ] | +.1.1.6.8.8.9.9.0.e.e.y.y.u.u.u.u.u.u.u.u.u.u.y.y.r.0.0.9.8.8.5.-.&.@.] R ",
"W [ X.*.<.3.3.8.9.9.q.0.y.t.y.y.y.u.u.u.u.u.u.u.y.y.u.r.r.r.q.9.9.8.5.4.$.| { W ",
") { +.*.<.4.4.6.8.8.9.9.0.0.e.e.t.y.t.t.y.w.%.! w.e.e.0.e.0.9.8.8.6.4.<.*.@.{ W ",
") { @.#.,.2.4.6.4.8.6.8.9.9.9.0.0.0.0.w.w.;.t t :.w.0.9.9.8.9.6.5.3.3.<.*.X.} R ",
"` } @.@.*.<.<.4.2.3.6.4.3.6.5.8.8.9.9.8.8.B e 3 &.9.7.7.5.6.4.4.3.<.<.*.@.| } ] ",
"` } X.#.*.,.,.,.<.2.2.2.1.2.3.2.4.1.4.5.L s V 1 Q 1.2.3.2.,.3.3.2.,.>.*.#...] R ",
") { X.o.#.$.#.,.,.,.,.<.<.<.<.<.,.<.,.{ w W K = V #.>.<.<.<.>.<.,.,.#.#...X.[ / ",
"] [ ..X.#.#.,.#.,.*.,.,.$.#.$.*.,.,.#.g s *.E > w X.$.>.*.*.>.>.,.>.#.o.X...] R ",
"/ [ ..#.o.O.#.../ U D g a s V K W X.K 0 U #.Q > 2 } $.#.#.>.>.>.#.#.#.o.X...] ] ",
"` ] } ..X.[ C w 2 2 %   * g s w i 0 * V o.$.U 2 2 / o.#.#.o.#.O.#.O.o.X...} ` / ",
"( ] } { l 9 2 C U R A 6 w s w 0 0 # > ) #.o.U 6 6 V @.@.#...o.#.o.o...o. .[ ' R ",
"W ] [ a 0 C U / C V C C C C Z Z 0 # A ....o.K w 0 > j A o.o...o.X.o.X.....[ ' R ",
"R C & . ; C R w 2 w 8 q 8 6 0 w & g [ ....#.P w s & & # > 6 b  .X.[ ..} } [ / R ",
"G * @ b b 0 @ + b [ U U K K v % ; W .. . .| D 6 U < X X X X # : 9 A } } [ [ ^ R ",
"I Z P ] [ P l # & w j P R [ g 8 P }  . . . .D * A R C ; # 6 j D a < 2 ` ' ] ( U ",
"Y R ( ] ` [ [ Z < w 8 * < > 2 D  .[ ' [  .[ a % - w b T U w > a j 6 X w R R / Y ",
"Y R T ` ) [ [ ' b 6 M P Z f D _ [ ' [ [ [ j i D D 0 ; 0 f T U 6 > < m 0 8 ( / T ",
"P U ^ / ( ( [ ' / f 2 U ( R ' ' ( ( _ ( m + a ] ( / P s : 6 C T I I ( H , s U T ",
"P Y T / ^ ` ( ( ) ^ q w ^ ( ( ' ) ( ( / P d : > 6 h R / ^ 6 - / ) ( / ^ d ; D P ",
"G P Y R R / R / ( ^ D > j ( / ` / / / ( ( ^ D i ; O O $ & X , G Y ) / / P * d K ",
"D H P Y R ^ ^ / / ^ T v : b / ^ / ^ P b a : - & - , 7 l l 0 > $ & < V T Y < 2 D ",
"M D P P T T T U / T / P w : H T l w - # * i M G G Y I T ~ Y G H v 5 $ < j i : m ",
"S S D G Y Y T T Y T ~ ~ D 6 : : $ - i S J J T T ^ T T T Y T ~ Y J P H 5 - # 5 S ",
"m Z S G G P Y Y T Y Y Y Y m 5 5 m G J P Y Y Y Y Y Y Y T Y Y Y Y J J J G x . 5 S ",
"v n m D D G G P Y J Y Y Y G G J Y P Y J Y Y J J Y J J J Y Y Y Y G J J G D j x n ",
"l v n Z m D G G G P G G G P J G G J P G J J G J J G J J G G G G G G G S Z Z n x ",
"h h v n S S S S S G G G G G G M M J J J M J J G G J G G J G G G S G S n m n z z ",
"i h h c x Z Z S S S G M S G M J J J M J J M G J S G G m G S n G S n n n x z h h ",
"y p p h h x v n m n m m M S M M M M M m m S S S S S m S S S n n n n n k z h y y ",
"7 y u i p h x x n n n n n m m m m m m n m m m m S S m m n S n z z z k k p u y y ",
"6 6 y y y p p h h h z z n z n z n z n n z n n z z n z z n z z k z k u u y y y y ",
"4 4 5 7 7 y u u p h h h h h z z h h z z z z z z z z z z z z z h p p y y y y 5 4 ",
"4 , 5 5 5 y 7 y y u p u p h h h h h h h h h h h z h p h h h p p p y y y 4 5 5 4 ",
", , , 5 4 5 5 7 y y y u u u u y p p u p p p p p p p p p y p y y y y y 4 4 4 4 , "
};
