/* XPM */
static char *bt____extwzomp__nh_ip_vcwxagdllu_______out[] = {
/* columns rows colors chars-per-pixel */
"40 40 173 2",
"   c #07080C",
".  c #090E12",
"X  c #0A131B",
"o  c #0B1C24",
"O  c #101E27",
"+  c #101C28",
"@  c #12212D",
"#  c #142434",
"$  c #16273A",
"%  c #172A3C",
"&  c #192B3C",
"*  c #15313F",
"=  c #2C363F",
"-  c #162A42",
";  c #1A2D44",
":  c #1C3143",
">  c #1C3449",
",  c #1E384E",
"<  c #1E3A51",
"1  c #223546",
"2  c #21374A",
"3  c #20394F",
"4  c #223D54",
"5  c #253F58",
"6  c #2A4255",
"7  c #24425B",
"8  c #29445A",
"9  c #29485D",
"0  c #334A5A",
"q  c #254663",
"w  c #294664",
"e  c #274965",
"r  c #2A4B63",
"t  c #274A6D",
"y  c #2B4B6B",
"u  c #314D62",
"i  c #2D506C",
"p  c #355166",
"a  c #34526E",
"s  c #3C5569",
"d  c #3C586D",
"f  c #274D72",
"g  c #294D73",
"h  c #2C5275",
"j  c #2D547C",
"k  c #2D597C",
"l  c #325470",
"z  c #30557C",
"x  c #315A7C",
"c  c #3C5F7E",
"v  c #33607F",
"b  c #465968",
"n  c #4C5E6C",
"m  c #4E687D",
"M  c #2E5781",
"N  c #2F5983",
"B  c #315C86",
"V  c #325E8A",
"C  c #366285",
"Z  c #396280",
"A  c #34628D",
"S  c #39668D",
"D  c #356493",
"F  c #396693",
"G  c #366997",
"H  c #3A6994",
"J  c #366798",
"K  c #396798",
"L  c #376A99",
"P  c #3A6B9C",
"I  c #3D719D",
"U  c #3C6EA1",
"Y  c #3D71A4",
"T  c #3E74A9",
"R  c #3F7AAE",
"E  c #436B84",
"W  c #4F6980",
"Q  c #446D8C",
"!  c #4C6F8C",
"~  c #536F85",
"^  c #587384",
"/  c #5D778C",
"(  c #5E7A8F",
")  c #42739D",
"_  c #4A789C",
"`  c #577994",
"'  c #5A7995",
"]  c #577E9D",
"[  c #607C8F",
"{  c #627E94",
"}  c #4174A5",
"|  c #447AA4",
" . c #4175AA",
".. c #437AAD",
"X. c #497DAE",
"o. c #447CB3",
"O. c #4A7FB1",
"+. c #477FB8",
"@. c #4781AF",
"#. c #4881AE",
"$. c #5C87A7",
"%. c #5081A9",
"&. c #4581B6",
"*. c #4A83B5",
"=. c #4B88B7",
"-. c #4683BA",
";. c #4A85BC",
":. c #4C89BD",
">. c #5086B5",
",. c #518CBD",
"<. c #5A90BC",
"1. c #6487A4",
"2. c #6689A6",
"3. c #6A8DA5",
"4. c #6A8DAA",
"5. c #6790B0",
"6. c #4987C0",
"7. c #4788C0",
"8. c #4D8BC3",
"9. c #4E8DC9",
"0. c #518EC3",
"q. c #518EC8",
"w. c #4F90C6",
"e. c #4E91CB",
"r. c #5392C5",
"t. c #5394CB",
"y. c #5896CB",
"u. c #5598CD",
"i. c #5B99CD",
"p. c #5496D1",
"a. c #5997D1",
"s. c #569AD3",
"d. c #5A9DD4",
"f. c #579DD9",
"g. c #5A9ED9",
"h. c #609FD4",
"j. c #57A0D7",
"k. c #5EA1D5",
"l. c #5CA3DC",
"z. c #67A0CD",
"x. c #6BA4CF",
"c. c #74A6CE",
"v. c #61A1D6",
"b. c #63A5DB",
"n. c #69A7DB",
"m. c #65A9DE",
"M. c #68ABDF",
"N. c #74A7D0",
"B. c #7EAED2",
"V. c #72ACDA",
"C. c #5EA6E1",
"Z. c #5EA9E2",
"A. c #61A6E2",
"S. c #64ABE3",
"D. c #6AADE3",
"F. c #6BAFE8",
"G. c #6CB1E5",
"H. c #6DB3EA",
"J. c #73B4E6",
"K. c #73B5EA",
"L. c #78B6EA",
"P. c #76B9ED",
"I. c #7CBCED",
"U. c #74B6F0",
"Y. c #7CBDF1",
"T. c #82B6DF",
"R. c #83B9DF",
"E. c #85B6E1",
"W. c #83BEEC",
"Q. c #84C1EE",
"!. c #88C2EF",
"~. c #86C1F1",
"^. c #88C2F1",
/* pixels */
"V A H I Y } X.*.=.=.:.,.r.r.r.<.y.r.y.r.u.y.y.y.y.t.r.r.r.0.,.:.=.*.X...I P F V ",
"A H I | #.*.:.0.y.y.y.i.d.i.d.d.k.k.k.k.v.k.k.k.v.k.h.k.d.i.y.y.r.0.:.*.X.| ) H ",
"P I X.*.,.r.y.i.i.k.k.v.b.n.n.M.M.M.M.D.M.D.M.S.M.S.M.n.n.v.v.v.d.i.y.r.=.O.| P ",
"} X.*.r.y.i.d.l.m.M.D.D.G.G.G.J.J.J.J.J.I.J.L.J.J.J.J.G.G.G.D.M.n.b.h.i.r.:.O.| ",
"X.*.0.y.d.b.M.D.H.G.K.K.L.L.I.Y.I.I.I.W.I.I.Q.I.Y.P.I.L.I.L.K.H.G.D.M.v.z.r.:.#.",
"*.,.y.d.b.M.D.H.H.P.P.I.I.I.W.Q.Q.Q.!.W.!.!.Q.!.~.~.Q.W.I.I.I.L.K.G.D.b.k.i.,.#.",
":.r.a.b.A.D.H.K.K.P.I.I.Y.c.1.2.4.4.5.B.R.R.T.R.W.!.~.~.Q.I.I.P.K.K.G.S.b.i.r.,.",
",.r.d.n.S.F.F.K.U.I.P.I.I.b n 1.1.3.3.1.[ [ [ / / / ^ ~ W m ] J.P.J.G.G.l.k.u.,.",
",.u.d.b.S.H.H.H.K.P.P.P.m ' ` I.~.~.~.~.^.!.~.~.Q.c.x.c.x.$.= z.H.K.F.S.b.k.u.,.",
"r.y.l.b.S.S.S.G.H.H.H.Q ! P.s I.I.I.Y.I.I.I.I.I.I.Y.I.P.V.d ! E H.F.S.S.b.d.u.,.",
"r.t.d.l.A.S.Z.F.S.F.#.u G.G.0 J.H.K.K.P.J.L.H.K.K.K.J.G.p <._ a H.S.S.C.k.d.y.8.",
"8.y.k.l.l.A.Z.S.S.>.6 v.D.M.6 i.D.F.G.S.H.F.H.H.D.F.F.c v S.Q r A.A.C.C.l.d.r.:.",
"w.u.s.g.l.l.A.A.j.4 =.S.m.Z.9 ) S.A.S.S.S.S.M.S.S.S.Z r S.S.d.1 Z.m.k.l.d.s.u.:.",
"0.y.d.d.l.l.l.l.8 #.Z.l.m.A.4 ) C.Z.A.A.A.Z.l.A.l.X.4 s.A.l.k.& Z.l.l.l.d.u.y.w.",
"9.t.s.d.l.l.l.v @ h p S =.:.9 9 =.d.l.b.l.l.l.l.l.2 *.l.l.l.d.: y.l.l.d.f.u.t.:.",
"8.y.u.d.f.l.l.4 > l l 7 : : # X > > : : : : , a & ) g.l.l.l.l.< P l.j.f.d.t.r.:.",
"8.r.u.d.s.g.d.8 H d.g.g.d.l.) 6 k.u.=.=.=.=.X.y O g.f.g.l.j.j., I d.d.s.p.t.e.:.",
"8.t.t.u.s.s.f.h y g.g.s.g.d.r.: s.g.d.s.f.g.s.g.: r.l.d.f.d.d.x 9 s.g.s.s.t.0.:.",
":.0.t.t.s.s.s.| : d.s.d.s.s.s.& d.s.f.s.d.f.s.s.4 C s.s.f.s.s.A 4 s.s.t.t.t.0.:.",
":.9.e.p.t.a.d.U > s.s.p.s.s.s.- o.s.a.s.p.s.s.f.4 C s.s.s.s.s.C 4 p.p.u.t.t.8.;.",
";.:.r.t.t.t.p.:.& w.u.t.p.p.t.4 x u.p.p.p.p.e.s.e i u.u.u.p.p.q.& u.p.t.t.0.8.6.",
";.8.:.9.t.q.t.t.$ :.p.t.t.t.t.< S y.t.t.t.t.t.t.P : p.t.t.p.t.t.% t.q.t.9.8.8.;.",
"-.:.8.8.t.t.p.e.& *.e.t.t.t.r.k # 6 7 H Y ) Y | x 3 e.t.t.r.t.e.; t.e.q.0.8.:.=.",
"*.-.:.9.0.8.e.r.4 j 9.9.e.9.8.3 q h h > ; - * & & . $ $ $ $ 7 q o r.0.9.9.:.:.-.",
"o.=.;.8.8.8.9.9.4 y 9.9.8.w.7 e 9.9.9.9.9.8.9.9.q.@ T ....X.h , o 0.q.8.8.;.-.&.",
"o.-.-.:.:.8.:.8.j 4 9.8.8.e 7 9.8.6.8.8.8.9.8.8.8.& ..8.8.8.9.< } 8.6.8.;.;.&.*.",
"..o.&.-.;.8.:.8.Y & 8.:.H : -.8.8.8.8.:.:.:.6.8.8.< h 8.8.8.> x 8.6.8.6.;.-.-.o.",
"T ..*.&.=.-.:.-.H & ;.o.# o.8.-.6.-.6.8.-.7.8.7.;.< h ;.-.q q ;.;.6.=.;.=.+.o...",
" ...o.o.-.-.;.-.o.$ o.: B 6.-.6.6.;.-.;.7.-.6.-.;.q 7 -.A * +.-.6.-.-.-.-.o.....",
"U }  .o.o.o.-.-.-.- 5 q -.-.-.-.+.-.-.-.-.&.+.-.-.D ; o.$ ..-.-.-.-.+.&.o...R  .",
"P U }  ...o.o.-.-.X X e C V V C A o.-.+.&.&.+.+.+.Y % < B -.-.-.o.o.+.o.....T I ",
"H P U } } ..o.o.o.F g 4 - & % % % $ # # # # $ < < <   q &.o.o.o.o.o.o.| } } U P ",
"D D P U }  . . .o.o.o.o.o.+.o.R +.T Y Y T Y P t q t j o.+.R +.o.R  . .} U U L K ",
"B D D L K } }  . . .o. . .o.o.o.R R R o.R R o. . . . ...R R R R T T Y U P K D V ",
"M B A D K K P } U U Y Y  .T T T T T T T R T T T  .T  . .T T T Y Y U P P K D B N ",
"k k M B V A K K U U U U U U Y T T Y T T T T U T Y T Y T Y U U P P K D D V B N M ",
"g j M M N V V A D J J J K U K U U J U J U U U U U U U L U J G D D D V B N M j h ",
"f g g h j M M B V V D V D J J D D D J J D J J J J J D D D J D D A V B z M h g g ",
"f g g g g j M M N V V V V V V V D D D D D V V D D D V D D V V B B M k j g g g g ",
"t t t g g g g j j M M N V N V V V V N V V V V V V V V V N V V M M j j g g g g g "
};
