/* XPM */
static char *bt______bfxqls_t__hrogpqkme_lmbt_______out[] = {
/* columns rows colors chars-per-pixel */
"40 40 174 2",
"   c #040506",
".  c #060D13",
"X  c #090D14",
"o  c #091016",
"O  c #0B161E",
"+  c #0E1722",
"@  c #0D1922",
"#  c #0E1D2B",
"$  c #121D25",
"%  c #111E2B",
"&  c #1A2225",
"*  c #14222D",
"=  c #1B262C",
"-  c #142533",
";  c #162937",
":  c #1B2936",
">  c #182538",
",  c #162C3C",
"<  c #192D3D",
"1  c #1E313F",
"2  c #222D33",
"3  c #20323E",
"4  c #28303D",
"5  c #31383E",
"6  c #1A2E42",
"7  c #1B3245",
"8  c #1D3549",
"9  c #1D394F",
"0  c #1F3950",
"q  c #253745",
"w  c #20394F",
"e  c #2E3F4F",
"r  c #223C54",
"t  c #243E59",
"y  c #31434D",
"u  c #3A444D",
"i  c #2F4251",
"p  c #25445D",
"a  c #3C4650",
"s  c #364856",
"d  c #3C4E5A",
"f  c #274462",
"g  c #284764",
"h  c #234863",
"j  c #2B4A64",
"k  c #274A6E",
"l  c #2A4B6D",
"z  c #3E5B6D",
"x  c #274D72",
"c  c #294D72",
"v  c #2B5276",
"b  c #2D547C",
"n  c #2F5878",
"m  c #345672",
"M  c #335977",
"N  c #30557F",
"B  c #335B7A",
"V  c #3D6179",
"C  c #42505B",
"Z  c #425363",
"A  c #455867",
"S  c #495966",
"D  c #495F71",
"F  c #486273",
"G  c #44637F",
"H  c #51687A",
"J  c #2E5781",
"K  c #2F5984",
"L  c #315B86",
"P  c #335E8A",
"I  c #366184",
"U  c #396687",
"Y  c #34628D",
"T  c #3B658C",
"R  c #356493",
"E  c #396594",
"W  c #356A97",
"Q  c #396995",
"!  c #376798",
"~  c #396798",
"^  c #376A99",
"/  c #3A6C9C",
"(  c #3E729B",
")  c #3B6EA1",
"_  c #3B6FA8",
"`  c #3D71A4",
"'  c #3F74AA",
"]  c #486680",
"[  c #466985",
"{  c #4D6C80",
"}  c #506A81",
"|  c #4C708A",
" . c #537189",
".. c #5B778C",
"X. c #477493",
"o. c #43739D",
"O. c #49759A",
"+. c #567D9A",
"@. c #5F7E9A",
"#. c #4174A5",
"$. c #487FA6",
"%. c #4175AA",
"&. c #437AAD",
"*. c #497EAF",
"=. c #4077B0",
"-. c #447DB3",
";. c #4A7FB1",
":. c #477FB8",
">. c #4A80AE",
",. c #5580A2",
"<. c #4681B6",
"1. c #4A83B4",
"2. c #4B88B7",
"3. c #4682BA",
"4. c #4985BC",
"5. c #4788BE",
"6. c #4C89BD",
"7. c #5D8AB1",
"8. c #518CBE",
"9. c #6486A2",
"0. c #6694B8",
"q. c #4784C1",
"w. c #4A87C0",
"e. c #4788C0",
"r. c #4D8BC3",
"t. c #4F8DC8",
"y. c #518EC4",
"u. c #518FC9",
"i. c #4F91C6",
"p. c #4F91C9",
"a. c #5291C5",
"s. c #5394CB",
"d. c #5896CC",
"f. c #5698CE",
"g. c #5B99CE",
"h. c #5496D1",
"j. c #569AD3",
"k. c #5A9DD4",
"l. c #579CD8",
"z. c #599ED9",
"x. c #699CC7",
"c. c #709EC0",
"v. c #5EA1D5",
"b. c #5CA2DC",
"n. c #5FA8DF",
"m. c #62A4D6",
"M. c #63A5DC",
"N. c #66A9DD",
"B. c #6AAADD",
"V. c #70A6D4",
"C. c #73B0DD",
"Z. c #5EA5E0",
"A. c #5FAAE3",
"S. c #61A6E1",
"D. c #64ABE3",
"F. c #6AADE3",
"G. c #6CAFE8",
"H. c #70AFE4",
"J. c #6DB1E6",
"K. c #6DB2E9",
"L. c #72B3E7",
"P. c #73B5EA",
"I. c #79B7EA",
"U. c #76B9ED",
"Y. c #7CBBED",
"T. c #75B6F0",
"R. c #7DBDF1",
"E. c #80B5DD",
"W. c #82B7E3",
"Q. c #81BEEE",
"!. c #82BFF0",
"~. c #84C1EF",
"^. c #85C2F1",
"/. c #8AC4F1",
/* pixels */
"P Y Q ( #.#.*.1.2.6.2.8.a.a.8.a.d.a.d.d.d.d.d.d.a.d.a.a.a.a.6.8.6.1.$.#.` ( E P ",
"Y Q ( #.*.1.6.a.a.d.g.g.f.g.v.k.m.g.v.v.v.v.v.v.v.v.v.v.g.g.d.d.s.8.6.1.$.#.o.Q ",
"/ #.&.1.6.y.a.g.g.v.v.m.n.B.m.N.B.B.B.B.B.F.J.B.B.N.N.N.m.M.m.v.v.d.d.8.6.*.$./ ",
"#.$.1.a.d.k.v.M.N.N.J.B.J.J.L.L.L.L.L.P.I.L.L.I.P.P.L.J.L.F.G.B.N.M.m.g.a.6.;.#.",
"$.1.y.d.k.M.B.F.K.K.K.L.L.Y.Y.Y.I.Y.Y.Y.~.Y.R.R.Y.Y.Y.I.I.P.L.L.J.F.N.m.x.a.2.>.",
"1.8.d.k.m.B.F.L.P.I.U.Y.Y.Y.Q.Q.^.^.~./././././.^.^.~.R.Q.Y.I.P.P.J.J.m.v.g.8.2.",
"6.y.k.m.S.G.G.P.P.T.U.0.Y.^.~.~././././././././././.^.^.^.R.R.U.U.J.J.D.N.v.8.2.",
"8.d.k.M.D.G.K.K.P.U.C.5 a d 9.0.^./././././././././.^.~.!.R.R.U.U.L.J.F.b.k.f.8.",
"8.d.k.M.D.K.K.K.K.T.| s +.z u C A H ..9.E.W./.^.~.Q.Q.R.R.Y.U.U.T.K.J.D.M.v.f.8.",
"y.d.v.M.D.D.D.K.K.K.4 : T.P.V.D d F H  .A Z D { x.C.Y.U.U.P.L.K.K.K.D.D.b.v.d.6.",
"r.f.k.n.Z.D.D.D.D.J.: & K.K.P.K.L.[ s z 7.P.,.G i y y G K.K.J.K.D.D.D.M.b.g.s.i.",
"a.f.j.b.Z.S.D.D.D.F.= @ D.J.D.D.D.K.G.V q q O.J.G.v.X.$ m D.D.D.D.D.Z.n.b.j.s.8.",
"a.f.j.b.b.n.Z.Z.A.f.1 * >.n.D.A.D.D.D.D.D.*.q 1 U M.D.m.* 8.D.M.S.S.Z.b.v.j.a.r.",
"t.s.j.l.b.b.b.Z.M.6.- 1 o.n.Z.n.Z.A.n.S.Z.b.M.i.m t j 2.a.- Z.Z.Z.Z.z.z.k.f.s.r.",
"r.s.f.v.k.b.b.b.b.6.- ; o.b.n.b.b.b.b.M.Z.Z.M.b.n.b.B r 1 * j b.Z.b.b.k.k.j.a.y.",
"a.a.j.j.l.b.z.b.b.1.; - ( b.b.v.b.z.b.b.b.b.z.b.b.z.b.b.( ,   2.b.z.z.k.j.f.i.r.",
"r.s.j.j.j.z.z.z.v.8 n ; o.z.b.z.b.z.z.b.v.b.b.v.b.l.b.l.l.q   U z.z.l.l.h.s.a.r.",
"6.a.s.h.j.j.k.z.k.7 B ; / k.z.l.k.l.l.l.l.l.j.l.l.l.v.n O T 7 n k.j.j.j.h.s.a.6.",
"r.y.s.s.j.h.j.k.l.7 m - o.j.l.k.k.j.l.j.j.l.l.j.l.s.p , Q i.# 2.j.k.j.j.f.s.i.6.",
"6.y.s.f.h.h.j.j.s.# r.7 l j.h.j.j.j.h.j.j.j.j.h.U * I f.l.1.@ j.h.j.f.s.s.p.r.5.",
"5.r.y.s.s.s.h.h.i.@ h.I % s.h.h.f.h.h.s.j.h.f.6 - / h.j.f.3.@ f.h.h.s.h.s.a.6.6.",
"4.6.t.p.p.s.s.s.s.@ s.B # p.s.h.h.h.s.s.h.E @ j s.s.s.s.p.( # f.s.s.p.p.t.y.6.5.",
"1.5.6.t.i.s.s.s.%.8 p.v - s.p.s.p.p.h.s.t - ( i.s.s.p.p.s.7 p p.s.s.p.a.t.6.6.6.",
"1.5.2.r.r.t.p.p.8 > u.B ; u.p.a.t.p./ - , <.t.p.p.t.p.p.t., p s.p.p.y.r.r.r.5.<.",
"-.5.5.6.r.y.t.r.#.; #.Y 1 t.r.y.u.r % l i.t.t.t.t.t.r.u.t.< t t.t.t.r.r.6.6.4.<.",
"=.1.4.5.4.r.r.r.r.` - #.- r.r.<.6 < &.w.r.r.r.t.r.r.r.y.r.* P r.r.r.r.5.4.5.4.=.",
"&.=.3.2.4.4.r.5.w.r.t * Y r.v @ r r.r.r.e.5.w.w.r.w.r.r.3.+ r.4.r.4.r.4.4.3.1.-.",
"%.*.<.<.4.4.4.5.w.5.<.$ o 7 ; Y 5.q.5.6.5.5.e.4.5.5.4.4.3.+ 4.5.r.4.4.4.3.1.-.&.",
"#.%.;.-.3.3.5.4.q.q.3./   . h =.&.q.:.4.4.q.4.4.4.4.4.4.3.O 5.3.3.5.3.3.<.<.*.&.",
"` ' %.=.;.-.3.3.3.4.3.3.3.p 6 + + * 6 E =.3.3.4.3.3.3.3.l r 3.3.3.3.:.<.-.=.%.%.",
"/ ) #.%.&.;.:.-.3.3.3.3.3.:.:.:.:.h w + @ % 6 v ` :.:.<.c l :.3.<.-.-.-.=.&.%.) ",
"Q / ) #.%.&.&.-.' :.-.3.-.-.3.-.:.-.:.:.' v c # 6 O O X X 9 -.-.-.-.-.&.#.` / / ",
"Y R / ) ) %.%.%.=.-.-.-.-.-.-.-.:.' 3.' 3.3.:.' :.R K # * L &.<.' =.%.#.) ) / ~ ",
"P R R ^ ) #.%.#.%.%.=.%.;.=.=.-.<.' ' <.' ' :.' ' -.' ' =.=.%.' ' ' ` ` / ~ R P ",
"K L Y R E ~ ~ #.) ) _ %.%.&.' ' ' ' ' _ ' ' ' ' ' ' &.' ' ` ` _ ) ` / ^ ! Y P K ",
"b J K K P R ~ ~ / ) ) ) ) ) _ _ ` ` ` _ ' ' ' ' _ ' ' ' ) ) _ ) / Q ^ Y P L K J ",
"v v b J K P P Y ! ! ! ! ~ / / / ) ^ ) ) ! ) ) ) / ) ) ^ / ) ! ! R R P L K J b v ",
"x c v v b J K K P P Y R R R R ! R R ! ! ! ! ! ! W W ! ! R R R R Y Y L J b b v c ",
"k x x c c b b J J K P P P Y Y Y R R R P R R P R R R Y R Y P Y P K K b b v c c k ",
"k k k x c c v b J J J K K L L L P P P P P P P P P L P L K L K K J v b c c c k k "
};
