/* XPM */
static char *bt____rwv__i_o_z_q_loaipfn_hce_z_______out[] = {
/* columns rows colors chars-per-pixel */
"40 40 162 2",
"   c #101E27",
".  c #132434",
"X  c #16263B",
"o  c #162A3B",
"O  c #1A2C3D",
"+  c #19303E",
"@  c #212B37",
"#  c #162B42",
"$  c #1A2E43",
"%  c #173247",
"&  c #1D3244",
"*  c #1D354B",
"=  c #1F394E",
"-  c #1D3951",
";  c #20364A",
":  c #21394E",
">  c #293C4D",
",  c #233C53",
"<  c #233E59",
"1  c #244055",
"2  c #2C4257",
"3  c #24415C",
"4  c #28445C",
"5  c #34495B",
"6  c #264461",
"7  c #294764",
"8  c #294B64",
"9  c #274A6C",
"0  c #2A4C6C",
"q  c #304F6C",
"w  c #2B506B",
"e  c #305067",
"r  c #274D72",
"t  c #294D72",
"y  c #2C5174",
"u  c #2D537B",
"i  c #2E597F",
"p  c #335777",
"a  c #365874",
"s  c #30557F",
"d  c #335A7C",
"f  c #3F5E7A",
"g  c #39607C",
"h  c #465D6F",
"j  c #435E73",
"k  c #42637D",
"l  c #4E677B",
"z  c #2E5781",
"x  c #2F5983",
"c  c #315C85",
"v  c #325E8B",
"b  c #315F91",
"n  c #346087",
"m  c #3B6686",
"M  c #34628D",
"N  c #39678B",
"B  c #3D698E",
"V  c #356493",
"C  c #396694",
"Z  c #356897",
"A  c #3B6A95",
"S  c #366798",
"D  c #386698",
"F  c #376A99",
"G  c #3A6C9C",
"H  c #3D729E",
"J  c #3B6EA2",
"K  c #3C6FA8",
"L  c #3D71A4",
"P  c #3E74A9",
"I  c #3E7AAD",
"U  c #516C81",
"Y  c #5D7486",
"T  c #57758D",
"R  c #5B788D",
"E  c #406F99",
"W  c #41749C",
"Q  c #527690",
"!  c #5F7D95",
"~  c #5B7F99",
"^  c #4274A6",
"/  c #467AA6",
"(  c #497CA7",
")  c #4175AA",
"_  c #437AAC",
"`  c #497DAD",
"'  c #447DB3",
"]  c #497EB3",
"[  c #467FB9",
"{  c #487FB8",
"}  c #658196",
"|  c #5583A7",
" . c #5485AD",
".. c #5A87AE",
"X. c #4681B6",
"o. c #4A83B4",
"O. c #4B88B7",
"+. c #4682BA",
"@. c #4985BC",
"#. c #4C89BD",
"$. c #528DBE",
"%. c #5490BD",
"&. c #6989A2",
"*. c #618CAE",
"=. c #6A91AE",
"-. c #4986C1",
";. c #4D8BC3",
":. c #4E8DC9",
">. c #518EC4",
",. c #518EC9",
"<. c #4F91C5",
"1. c #4F91C9",
"2. c #5391C5",
"3. c #5394CB",
"4. c #5896CB",
"5. c #5598CD",
"6. c #5B99CE",
"7. c #5496D1",
"8. c #5997D2",
"9. c #569AD3",
"0. c #5B9DD4",
"q. c #579DD8",
"w. c #5A9ED9",
"e. c #6299C6",
"r. c #619BC9",
"t. c #57A0D7",
"y. c #5EA1D6",
"u. c #5CA2DC",
"i. c #5FA8DF",
"p. c #77A7CB",
"a. c #7BABCF",
"s. c #62A2D6",
"d. c #69A3D1",
"f. c #62A5DC",
"g. c #66A9DE",
"h. c #6AAADF",
"j. c #77ACD6",
"k. c #79AAD2",
"l. c #5EA6E1",
"z. c #5EA9E1",
"x. c #61A6E1",
"c. c #64ABE3",
"v. c #6AAEE4",
"b. c #67ADE9",
"n. c #6AAFE8",
"m. c #6DB1E6",
"M. c #6DB2E9",
"N. c #72B3E6",
"B. c #7BB3E4",
"V. c #7DBAE7",
"C. c #73B5EA",
"Z. c #7AB7E8",
"A. c #76B9EC",
"S. c #7CBCED",
"D. c #7ABDF1",
"F. c #80AED0",
"G. c #81BEED",
"H. c #81BEF0",
"J. c #83C1EE",
"K. c #89C3EE",
"L. c #84C2F1",
"P. c #8AC4F2",
/* pixels */
"v M C H L / ` o.O.O.%.#.2.2.2.2.4.2.4.4.5.6.5.2.5.2.2.4.2.$.$.#.#.o.` / L A B n ",
"M A H / ` o.#.>.2.4.5.6.6.6.6.6.s.0.y.s.y.y.s.y.s.s.6.0.9.0.5.4.2.$.#.o.` / G A ",
"G L ( O.$.2.2.6.6.y.y.y.f.f.g.g.g.h.g.h.h.g.g.h.g.h.g.g.s.f.s.s.0.6.4.2.@.o./ G ",
"^ ( O.;.4.0.0.f.g.g.v.m.m.m.N.N.N.N.C.N.A.A.Z.C.C.C.N.N.C.v.v.h.h.f.0.r.2.#.o.W ",
"( o.>.4.0.s.v.v.m.M.C.C.C.Z.S.A.S.S.G.J.S.G.J.G.S.S.V.C.A.C.C.m.m.v.g.s.6.%.O.o.",
"o.$.4.0.s.c.v.m.M.A.A.Z.S.S.G.G.J.K.L.L.L.K.L.P.K.K.J.J.G.S.A.Z.C.M.v.f.s.6.%.o.",
"#.2.6.f.x.b.m.C.M.D.S.S.J.G.J.L.L.P.K.P.a.Y &.} R R =.J.H.H.S.Z.Z.M.m.v.f.6.2.O.",
"$.2.0.f.v.n.n.C.A.A.D.S.L.D.L.L.L.K.P.P.k.&.P.P.L.k.R l | J.D.A.A.m.v.v.i.y.4.$.",
">.4.0.x.c.v.M.M.e.v.A.A.D.S.H.G.G.L.L.G.p.! L.G.L.G.J.B.Q k d.N.C.M.n.c.f.y.4.%.",
">.4.w.f.c.b.c.v.@ f M.C.A.A.A.S.S.S.G.G.j.h U T *.Z.A.S.Z...5  .m.v.c.g.f.t.5.$.",
"<.4.0.i.x.x.x.m a 2 f.m.m.m.M.C.C.C.C.C.C.N.e.| k 5 k m.m.M.r., $.v.c.u.u.0.2.;.",
">.4.0.u.l.f.s.; x.g e c.b.c.b.n.b.v.n.M.v.v.m.M.v.s.g > %.v.g.%.& y.l.f.t.0.4.#.",
">.5.q.u.t.f.d q z.x.; 6.x.c.x.x.x.c.c.b.c.c.c.x.c.x.c.( + ( z.x.m 1 f.u.0.9.2.#.",
"<.3.q.0.u.0.$ 5.i.l.p 8 z.f.l.i.x.x.i.z.l.u.x.x.x.l.i.z.%.O 5.z.f.; E u.0.5.5.<.",
";.3.5.0.u.y 8 i.u.l.w.$ 5.u.u.i.u.u.l.u.u.l.u.u.l.i.u.u.u.B = i.u.W 1 0.9.9.3.;.",
"<.3.5.q.5.O 4.u.u.w.u.d 8 u.u.u.u.u.u.u.u.u.u.u.u.u.u.i.u.u.- W u.w.% O.9.5.3.#.",
";.3.5.9.0 7 w.0.u.w.u.5.o >.w.w.w.w.w.w.w.w.w.w.u.w.u.0.t.u.A * w.w.w 8 9.5.2.#.",
"#.2.5.3.O >.w.q.0.0.q.q.d 8 q.q.w.q.q.0.q.q.0.0.q.0.t.w.w.0.w.O >.q.H = 5.3.2.#.",
"#.,.3.y 8 6.q.9.q.q.0.q.8.O >.q.9.9.q.9.9.q.q.q.0.9.q.9.q.8.q.4 ( 9.X.* 3.3.;.@.",
"#.>.2.  A / ` q.q.7.#./ / 1 , 7.9.9.7.9.9.7.7.7.9.7.q.3.5.q.9.w B 9.2.= 3.3.>.@.",
"@.;.>.O ; : . N 3.7.% = - - 0 7.5.5.7.7.7.7.7.7.7.7.5.7.5.7.7.y c 5.4.- 3.1.;.#.",
"O.;.;.1.:.7.n 4 3.3.= ;.1.3.3.5.7.3.7.3.7.1.3.7.7.3.3.3.1.7.3.7 G 3.#.& ;.;.#.#.",
"+.@.;.>.2.3.A = ,.3.: A 3.7.1.3.:.3.3.3.1.3.1.3.1.1.1.3.1.3.3.; ( ,.L * <.:.#.@.",
"X.O.;.;.;.2.' O 1.3.0 3 1.:.1.2.:.1.:.:.1.:.1.1.1.,.3.:.,.<.@.o >.2.c - ;.#.@.+.",
"' @.#.-.#.<.;.o _ :.o.. ;.,.,.:.:.<.;.:.:.1.:.-.:.;.;.;.1.;.8 6 :.;.* d #.;.@.+.",
"' X.+.@.;.;.;.y 3 :.:.< 0 ;.;.-.;.;.;.;.;.;.;.;.;.;.;.;.:.@.o ' ;.X.O ;.@.+.o.X.",
"_ ' o.@.@.#.;.' . -.#.' . G #.#.;.;.;.@.;.;.#.;.;.-.;.;.;.% 8 ;.:.4 3 @.@.+.X._ ",
") _ ' +.+.@.@.#., 7 -.-.G . _ #.-.+.@.-.@.@.-.-.@.;.-.@.3 * @.-.X.. ^ @.@.+.' _ ",
"P _ ' ' X.+.@.@.' . M @.+.i . x @.@.-.@.@.-.-.@.@.-.[ % $ [ @.+.# y @.o.' ' _ _ ",
"J ) _ _ ` X.+.+.+.A . ' X.+.G X # n +.+.+.@.+.X.) 3 . 6 +.+.@.6 - o.[ [ ' ' _ ^ ",
"G H ^ ) _ ' ' [ X.X.y . G +.[ +.t $ X % , 3 * # o - J [ +.[ < # [ ' ' ' _ _ ) L ",
"A F J K ) _ _ ' { ' X.d . y [ ' [ X.G c 9 6 u V [ [ ' ' I $ # ' ' ' I _ ^ L J F ",
"V Z G J ^ ^ ) _ ' I ' _ J X O z ' ' ' ' ' ' ' I [ [ P < . 6 ' ' ' I ) P J J F C ",
"x V Z F G ^ K ) ) _ ' ' _ ' t X o < x G ' I L v t % . * F ' ) ) P P L G G D C M ",
"x c v M C D G ^ K K K ^ ^ P ^ ) v = O X # # o # $ 7 ^ K P L K P J ^ F G Z b v z ",
"u z x c v b C D F J G G J P K J L K P J L L L P P K K J L J J G G D V V v v c z ",
"y u z z z v v b V Z Z Z D F G J G G J G J G G G G G J G F J Z Z V V v c z x z y ",
"r r t u u z z c v v V V V C V D Z S Z S F F Z Z S S V Z S V V V M v c s u u t t ",
"9 t t t t u z z x x x v v b n V b V V V V V b b V V V v b V v v c x u u y t t 9 ",
"9 9 9 t t t t u u z x x x z c v v c v v v c v v v v v v x x c z s u u r t t t 9 "
};
