/* XPM */
static char *bt____wrg__k_xibvcqa_ysyz___yynr_______out[] = {
/* columns rows colors chars-per-pixel */
"40 40 141 2",
"   c #010203",
".  c #040508",
"X  c #060A0D",
"o  c #080B0D",
"O  c #070C10",
"+  c #091114",
"@  c #0A161C",
"#  c #0F181F",
"$  c #101115",
"%  c #15161A",
"&  c #0F1B25",
"*  c #0F1D2A",
"=  c #1D1E23",
"-  c #101D29",
";  c #0F202A",
":  c #1B2024",
">  c #10212F",
",  c #1C252A",
"<  c #1E282A",
"1  c #132333",
"2  c #1B2830",
"3  c #14293B",
"4  c #1A2D3D",
"5  c #232D39",
"6  c #1B3043",
"7  c #1D354B",
"8  c #1F3D55",
"9  c #293541",
"0  c #233C52",
"q  c #253F58",
"w  c #214156",
"e  c #25435D",
"r  c #364D5B",
"t  c #254663",
"y  c #294663",
"u  c #2C4B62",
"i  c #274A6E",
"p  c #294A6C",
"a  c #3A4F60",
"s  c #35556C",
"d  c #274D71",
"f  c #294D73",
"g  c #2B5175",
"h  c #2D547C",
"j  c #315472",
"k  c #30567B",
"l  c #315B7D",
"z  c #446076",
"x  c #2D5782",
"c  c #2F5A83",
"v  c #305780",
"b  c #315C85",
"n  c #325E8A",
"m  c #376282",
"M  c #34628E",
"N  c #38658F",
"B  c #356493",
"V  c #386595",
"C  c #356997",
"Z  c #3B6A95",
"A  c #376798",
"S  c #396799",
"D  c #376B9A",
"F  c #3A6C9C",
"G  c #3E719D",
"H  c #3C6EA1",
"J  c #3D71A4",
"K  c #3F78A3",
"L  c #3F74A8",
"P  c #456B82",
"I  c #41729B",
"U  c #567D9C",
"Y  c #4174A4",
"T  c #4479A5",
"R  c #4175AB",
"E  c #437AAD",
"W  c #487EAD",
"Q  c #447DB4",
"!  c #467FB9",
"~  c #4980AE",
"^  c #4581B6",
"/  c #4A83B5",
"(  c #4B88B7",
")  c #4682BA",
"_  c #4985BC",
"`  c #4788BE",
"'  c #4C89BD",
"]  c #5287B2",
"[  c #548AB5",
"{  c #5F8BB2",
"}  c #508CBC",
"|  c #6490B7",
" . c #4B86C1",
".. c #4D8BC3",
"X. c #4E8EC9",
"o. c #518EC3",
"O. c #518FC9",
"+. c #4F90C6",
"@. c #4F90C9",
"#. c #5291C5",
"$. c #5394CB",
"%. c #5997CC",
"&. c #5598CF",
"*. c #5A9ACE",
"=. c #5496D1",
"-. c #5997D0",
";. c #569AD3",
":. c #5A9DD4",
">. c #569DD8",
",. c #5A9ED9",
"<. c #649AC9",
"1. c #5EA1D5",
"2. c #57A2DC",
"3. c #5CA2DC",
"4. c #5FA8DF",
"5. c #61A2D6",
"6. c #62A5DC",
"7. c #68A5DB",
"8. c #66AADE",
"9. c #69A9DF",
"0. c #70A9D6",
"q. c #5FA6E0",
"w. c #5FAAE3",
"e. c #61A6E1",
"r. c #64ABE3",
"t. c #6AADE4",
"y. c #6CAEE8",
"u. c #67B0E7",
"i. c #6CB1E6",
"p. c #6DB2EA",
"a. c #72B3E6",
"s. c #73B5EA",
"d. c #79B7EA",
"f. c #76B9ED",
"g. c #7CBCED",
"h. c #7DBDF1",
"j. c #81BEEE",
"k. c #82BEF0",
"l. c #85C1EF",
"z. c #84C2F1",
"x. c #8AC4F2",
/* pixels */
"n M V G Y T W / ( ( } } #.#.#.#.#.#.#.*.%.%.%.%.$.#.#.#.#.} } ' ( / W E Y I V M ",
"M Z G T W / ' o.#.%.*.*.*.*.*.*.5.1.5.1.1.1.1.1.5.1.1.*.*.*.*.*.#.o.( / W G I Z ",
"F K E / } o.$.%.*.1.5.5.6.7.8.8.9.9.8.9.8.9.i.8.9.8.8.8.7.7.5.5.:.%.%.} ( W T F ",
"I W / #.%.:.:.6.8.8.t.t.i.t.a.a.a.a.a.d.d.d.a.s.d.a.a.a.i.i.9.8.8.6.1.:.o.[ ) Y ",
"W ] o.%.:.7.6.t.u.p.p.s.a.f.f.g.g.g.g.g.g.l.j.j.g.g.g.f.d.a.a.s.a.t.7.5.*.#.( ~ ",
"/ } #.:.7.9.t.p.s.f.f.f.g.g.l.g.l.l.l.x.x.z.x.x.z.z.j.h.g.g.f.f.d.i.i.7.6.*.} ( ",
"' #.*.6.r.r.p.s.s.f.f.g.l.g.z.z.x.x.x.x.x.x.x.x.x.x.z.z.l.g.j.f.f.i.a.8.7.:.#.( ",
"} $.:.6.r.y.y.s.f.f.h.h.j.z.z.z.l.x.x.x.x.x.x.x.x.x.x.z.h.j.g.<.< s.i.r.8.:.%.} ",
"o.%.:.6.r.u.y.p.p.f.f.f.g.h.g.z.j.l.x.j.x.k.j.x.j.j.j.k.g.U z r = p.y.r.6.1.%.} ",
"o.%.:.6.r.r.u.y.p.p.p.f.s.f.f.g.g.h.g.j.g.j.j.g.k.f.0.| { a 9 5 % y.r.r.3.:.%.' ",
"+.%.:.4.q.r.r.r.u.u.u.y.p.p.p.p.s.p.s.d.s.s.f.a.s.i.P = : [ r.[ $ r.r.e.1.;.%.o.",
"#.&.>.1.3.r.r.r.w.r.u.u.r.y.r.y.t.t.t.y.t.i.t.*., 2 s ] ] 6.r.[ X r.4.e.1.>.$.' ",
"..%.;.1.3.q.q.e.w.r.r.r.w.r.r.w.r.r.e.r.9.m u r u u ~ w.r.e.6./ . q.q.,.2.&.$.+.",
"#.$.*.>.3.2.2.q.q.q.q.q.q.3.q.q.w.4.#.E T 4 # w 4.3.4.q.4.4.q.~   4.3.,.:.%.$.} ",
"..$.%.2.,.2.q.q.q.q.q.3.q.q.3.3.3.3.u   . ~ ,.,.3.3.3.q.2.q.3.W . 3.2.>.;.%.$.} ",
"+.$.&.;.:.1.,.,.2.,.,.,.,.3.,._ @ # u Y I :.3.2.3.3.1.3.3.2.1.W   ,.1.>.&.&.@.' ",
"..$.&.:.,.:.,.,.3.2.,.,.,.j e e 0 w T 3.:.,.1.1.,.,.1.,.,.2.>.W   ,.>.>.;.$.+.' ",
"....=.=.;.;.,.:.:.:.' T I > + w :.;.:.>.2.>.>.>.,.,.>.>.>.>.>.T   ;.;.;.&.$.#...",
"' o.$.&.;.%.;.;.:.>.q   o Q &.=.:.;.;.:.>.;.>.;.>.>.;.;.>.;.;.Y   ;.%.=.&.$...' ",
" .o.O.$.&.;.;.E @ & u Z Z -.=.;.=.;.;.=.;.=.=.;.;.=.;.;.;.;.%.T   ;.;.$.$.#...( ",
"' ..#.#.&.e t e q e W $.=.=.=.=.%.&.@.=.=.=.&.=.=.=.&.=.&.&.=.J   =.&.&.$.#.' ' ",
"_  ...@.#.O O 7 _ / X.=.@.$.&.$.$.=.=.&.=.=.&.=.$.$.$.&.@.&.$.G   @.$.X.+.....` ",
") ` ..o.@...' l     b $.$.$.$.@.@.@.=.$.@.&.O.@.@.@.$.@.$.$.@.G   $.@.$.....' _ ",
"/ (  .....o.@.( l v 7 & 1 ..+.$.X.$.X.X.X.X.X.+.@.@.@.X.@.+.#.F   $...o...` _ ( ",
"Q _ ` ..' ....O.X...l 6 6 e t m ........X.X.....X...o.X...@...F   o.......` ) ^ ",
"Q ^ ) ( ' ............ . .; X 3 T K _ ......X.....X...........Z   ......' _ ) Q ",
"W Q ^ _ `  ...' ` .. . ...! ^ k     g  . . . ..... ....... ...Z   ' ' ` _ _ / Q ",
"R E ^ ^ _ _ _ _  .` `  ._ `  .Q k g 7 - - * b _ _  .` `  . ._ Z   _ _ _ ) ^ Q E ",
"L W Q Q ) ) _ _  . .)  .) )  ._ _ _ h 1 3 3 7 t t Q _ _ _ _ _ B   _ ) ) ^ Q Q R ",
"H J R E Q ^ / ) ) ^ ) ) )  .^ ^ _ ! _ _ ) ^ t . X x H Y ) ) ) M   ) ) ^ Q E R T ",
"F H Y E W Q Q ) _ ! ) ) ) ! ! ^ ^ ^ ! ! ^ ) L L J * . > ) ) ) M   Q Q Q Q E J J ",
"Z S H J R R E Q Q ^ Q ^ Q Q ! ! ! Q ! Q ! ^ ^ ! Q k i e * * c T   Q Q R T J F S ",
"B C D H Y R R E E Q Q Q Q ! Q L  .L  .L  .L ! ! ! ) ! L 3 > 8 8 . L E L J H S C ",
"n M C D S Y Y L R L Q L L Q L ! L L L ) L ) L ! L L L L L L 8 .   L J H S V V M ",
"c n n B V S F H H H J J L L L L L L L L L L L L L L L ! L L L L H H F S A B n x ",
"h h x b n V V S H H H H J L L L L H L H L L L L L L J L H H H D H S A M n n x x ",
"f g h x v n n M B A A A H S H H H H H H H H H H D H H A D D A A B B M n x v x g ",
"f f g g h x x n n n B B B B B B B A B B B A B A D A A A A A A B n n c x k h g f ",
"i f f f f h x x x n n n n B n B B B B B B B n B B B n B B B n n c c h h g f f i ",
"i i i f d d g g h x x x x x n x x n n n n x n n n n n n x x x x h x g f f f i p "
};
